<?xml version="1.0" encoding="UTF-8"?><svg xmlns="http://www.w3.org/2000/svg" viewBox="0 0 864 864" version="1.2" baseProfile="tiny-ps"><title>DM-BIMI</title><defs></defs><path d="M435.76,430.58h0c-.71,0-1.44,0-2.16,0v12.71A57.89,57.89,0,0,1,435.76,430.58Z"></path><polygon points="433.59 466.66 433.59 477.44 435.27 477.44 433.59 466.66"></polygon><path d="M517.61,300.79c-.59-.19-1.19-.38-1.79-.55l-1.78-.51c-1.18-.32-2.37-.63-3.56-.92-2.37-.59-4.76-1.12-7.15-1.61s-4.78-.93-7.18-1.34q-2.92-.51-5.88-.94c-.33-.8-.66-1.6-1-2.39-.52-1.23-1-2.46-1.6-3.68s-1.12-2.44-1.7-3.65l-.9-1.82-.47-.9c-.16-.31-.32-.61-.49-.91a1.2,1.2,0,0,0-2.23.83l.45,2c.16.66.33,1.32.5,2,.34,1.3.7,2.6,1.08,3.89s.76,2.56,1.16,3.84c.28.87.56,1.75.85,2.62l-7.87,13.18a1.2,1.2,0,0,0,2,1.38l9.59-11.53q2.86.54,5.73,1,3.6.6,7.22,1.09c2.42.32,4.84.6,7.28.83,1.22.11,2.44.22,3.66.3l1.85.1c.62,0,1.25.06,1.87.07a1.21,1.21,0,0,0,.4-2.35Z"></path><path d="M432.91,337.53c.28.76.46,1.53.68,2.29v-2.76a5.58,5.58,0,0,0-.52.32Z"></path><path d="M433.23,380.61l.36.11v-1.41C433.46,379.74,433.37,380.17,433.23,380.61Z"></path><polygon points="433.59 466.66 433.59 466.65 433.59 466.65 433.59 466.66"></polygon><path d="M433.38,447.62c0,.11.09.2.21.3v-4.67C433.49,444.64,433.41,446.08,433.38,447.62Z"></path><path d="M551.75,323.71v-39a43.37,43.37,0,0,0-43.25-43.24H488.58a167.3,167.3,0,0,0-55-41.22h0c-.69-.33-1.36-.68-2.06-1-28.51,12.53-48.88,26.72-62.81,42.23H354.55a43.37,43.37,0,0,0-43.24,43.24v39l-11.93,18v41.45l32.15,22,13.7-11.42,21.58,18.72q-3.6,4.49-7.57,8.56s-11.65,15.61-8.25,50.5a100.22,100.22,0,0,1,15.82-17.1c2.08-1.77,4.22-3.46,6.44-5.07h9.91l5.57-9.18a99.18,99.18,0,0,1,12.76-5h0a54.44,54.44,0,0,0-1.71,12.52c0,1.13,7.85,1.69,15.7,1.69s15.7-.56,15.7-1.69a63.53,63.53,0,0,0-2.4-17.09h0c.91,0,1.82,0,2.73,0,.69,0,1.38,0,2.06.05h0c.72,0,1.45,0,2.16,0h0a57.89,57.89,0,0,0-2.17,12.67v4.67c2.65,1.95,31.19,1.85,31.19-.3a54.89,54.89,0,0,0-1.58-12h0a99.34,99.34,0,0,1,13.27,5.56l4.92,8.11h8.4A101.22,101.22,0,0,1,501.27,459c.5.49,1,1,1.46,1.49q1.83,1.88,3.56,3.84c.47.53.94,1,1.39,1.59,1.52,1.8,3,3.63,4.39,5.54,3.4-34.89-8.26-50.5-8.26-50.5q-4-4.07-7.57-8.56l21.58-18.72,13.71,11.42,32.15-22V341.67Zm-121.92,103-1.08,0h-5l1.48,4.86A56.25,56.25,0,0,1,427.34,445a99.5,99.5,0,0,1-11.84.56,102.21,102.21,0,0,1-11.82-.55,52.88,52.88,0,0,1,1.47-9l1.73-6.63-6.41,2.07h0l-.1,0a101.81,101.81,0,0,0-13.25,5.22l-1,.48-.58,1L381,445.55h-9l-1,.71c-2.27,1.64-4.52,3.41-6.68,5.26a102.86,102.86,0,0,0-10.21,10c-.51-24.53,7-36.69,8-38.18,2.59-2.66,5.14-5.55,7.59-8.6L372,412l-2.73-2.38L347.7,390.86l-2.42-2.1-2.45,2.05-11.53,9.6-28.16-19.27V342.81l11.3-17,.63-.94V284.68a39.52,39.52,0,0,1,39.48-39.48h15.84l1.12-1.25c13.48-15,33.09-28.4,58.32-39.86V332.73a16.92,16.92,0,0,0-3.69-.75c-.31,0-.64,0-1,0-6.26,0-19.28,5.24-26.47,14.73a24.19,24.19,0,0,0-5.2,15.76v.24l0,.23c1.16,7.17,7.27,21.22,22,23.1a25.87,25.87,0,0,0,3.45.22,37.3,37.3,0,0,0,10.79-1.75Zm-2-79.91a78.8,78.8,0,0,0-1,12.7,77.79,77.79,0,0,0,1,12.71,59.36,59.36,0,0,0,2,8.28A34.38,34.38,0,0,1,419,382.46a23.42,23.42,0,0,1-3-.19c-15.91-2-18.82-20-18.82-20a20.57,20.57,0,0,1,4.44-13.36c6.58-8.68,18.65-13.24,23.47-13.24l.6,0a9.39,9.39,0,0,1,4.56,1.39A55.2,55.2,0,0,0,427.83,346.84Zm36,21.72c-4.73,8.61-11,12.08-16.79,13.18a27.92,27.92,0,0,1-13.48-1h0l-.36-.11c.14-.44.23-.87.36-1.3a58.66,58.66,0,0,0,1.67-7.06,76.69,76.69,0,0,0,1-12.71,78.8,78.8,0,0,0-1-12.7,59.46,59.46,0,0,0-1.66-7c-.22-.76-.4-1.53-.68-2.29l.16-.15a5.58,5.58,0,0,1,.52-.32h0a8,8,0,0,1,6.35-1.12c11.41,2.76,17.82,7.88,21.42,13a25,25,0,0,1,4.46,13.32A29,29,0,0,1,463.86,368.56Zm69.64-86.45c-10,32.33-25.35,40.22-25.35,40.22-20.24,13.39-39.77,8.36-49.74,4.08a8.47,8.47,0,0,1-4.66-10.5c10.6-31.74,19.38-36,19.38-36,20.21-17.81,43.78-12.57,55.32-8.29A8.48,8.48,0,0,1,533.5,282.11Z"></path><path d="M515.13,491.74,509.81,471l-6.36,2.5c-2-2.74-3.21-4.23-3.21-4.23l-3.79,1.38c3.06-8.73-3.06-13.23-3.06-13.23l-4.84,16.11H473l1.24-10.78q-10.09-6.14-20.19,0l1.82,10.78h-6.55l1.2-10.78q-9.71-6.12-19.41,0A19.93,19.93,0,0,0,421,459.83a20.39,20.39,0,0,0-11.33,3.69,3.55,3.55,0,0,0-.31.23,2.36,2.36,0,0,0-.36-.26,20.28,20.28,0,0,0-23.24,0,3.77,3.77,0,0,0-1.69,3.76l1,6.43h-5.49l-3.8-1.46-2.57-13.46a3.75,3.75,0,0,0-2.87-3,3.34,3.34,0,0,0-.82-.1,3.74,3.74,0,0,0-3,1.56c-.19.25-4,5.68-2.25,14.37-.36.48-.86,1.16-1.49,2.05h-1.32L356,471.43a3.76,3.76,0,0,0-5.09,2.58l-9.25,37.87a166.79,166.79,0,0,0-11.65,41,117.85,117.85,0,0,0,2.56,47.89,3.75,3.75,0,0,0,3.62,2.77,3.68,3.68,0,0,0,.66-.06,3.75,3.75,0,0,0,3.09-4c0-.15-1-14.05,4.76-24.83,4.44,8.69,12,26.78,6.37,40.81-9,22.58,5.86,48.91,6.5,50a3.76,3.76,0,0,0,3.26,1.89,3.66,3.66,0,0,0,1.51-.32,3.76,3.76,0,0,0,2.06-4.59c0-.15-5.15-17.44,8.44-40.73.92-1.59,1.56-1.59,1.77-1.59a2.57,2.57,0,0,1,.82.16c.41,4.74,1.8,15.39,6.26,20.78a3.76,3.76,0,0,0,6.58-3.15,36,36,0,0,1-.55-5.18C405.65,658,427.36,710,430,716.4l.06.13a3.85,3.85,0,0,0,1.12,1.59,3.77,3.77,0,0,0,2.41.88,3.68,3.68,0,0,0,.66-.06,3.6,3.6,0,0,0,2-1h0v0a4.4,4.4,0,0,0,1-2.68c5.33-14.57,25.64-74.8,44.08-95.05,2,8.93.07,14.64.07,14.64s.51-.85,1.21-2.26a16.76,16.76,0,0,1-.49,2.26s5.94-9.85,6.22-20.78c4-2.39,7.45-2.13,9.94,1.93,15.48,25.23,9.22,43.78,9.22,43.78s15.49-25.6,6.59-46.75,10-49.34,10-49.34c11,12.24,9.29,32.28,9.29,32.28C545.08,555.57,528.73,515.66,515.13,491.74ZM374.62,616.35c-1.94,0-3.63,1.08-5,3.45-14.71,25.23-8.77,43.78-8.77,43.78s-14.71-25.6-6.26-46.74S345,567.49,345,567.49c-10.48,12.25-8.83,32.28-8.83,32.28-8.65-31.67-.92-63.09,9.05-86.7l9.32-38.17,6.14,2.54h4c1.92-2.76,3.09-4.27,3.09-4.27l.83.32c-2.92-8.75.91-14,.91-14l3,15.52,6.41,2.46h10.59l-1.73-10.79a16.57,16.57,0,0,1,19.19,0l-1.18,10.79h7.62l-1.67-10.79a15.51,15.51,0,0,1,18.5,0l-1.14,10.79h3.38l-.6,7.58q-.86,11-.86,22.09v20l-1.5-.49-.17-.14a1.67,1.67,0,0,0-.51-.23l-.11,0a1.64,1.64,0,0,0-.54,0h0l-2.79-.92-35.92-15.57a1.88,1.88,0,0,0-2.3.66c-1.2,1.74-29.42,43.15-19,86.13a1.88,1.88,0,0,0,2.12,1.41,1.9,1.9,0,0,0,1.59-2c0-.11-.67-10.12,3.17-17.61,2.64,5.66,7.61,18.51,4.06,28.52A31,31,0,0,0,377.45,617,7.06,7.06,0,0,0,374.62,616.35Zm18.14-11.15h-.36l-.36,0-.23,0-.38.11-.25.08a3,3,0,0,0-.37.17l-.26.13a3,3,0,0,0-.37.25,2.22,2.22,0,0,0-.27.19c-.12.1-.24.22-.37.34s-.17.15-.25.24-.26.32-.39.49l-.21.27a8.52,8.52,0,0,0-.57.95,53.84,53.84,0,0,0-5.77,17.93c-1.26-5.55-1.85-12.33.31-18.42,5.23-14.77-5.34-33.73-5.79-34.53a1.89,1.89,0,0,0-3.14-.22,25.54,25.54,0,0,0-3.94,8.07c-1.65-32.06,15.59-61.24,19.65-67.62l36,15.62,1,51.75v83.35c-2.64-6.84-6.68-17-11.18-26.92-12.89-28.53-18.84-32.12-22.19-32.33h-.31Zm40.83,110c0-9.11-.11-9.11-.11-9.11V715c-2.67-6.47-28.08-67.39-47.05-90.12a51.16,51.16,0,0,1,5-14.58c.46-.89.92-1.32,1.37-1.3,6.21.4,21.58,33.4,32.94,64.37v0a2.08,2.08,0,0,0,.07.5l0,.08a1.66,1.66,0,0,0,.19.43.18.18,0,0,1,.05.07,2.51,2.51,0,0,0,.31.35h0a1.87,1.87,0,0,0,.41.25l.05,0c.41.45,1,1.11,2,2.11a1.9,1.9,0,0,0,1.36.57h1.53l1.82,14v23.43Z"></path><path d="M424.17,153.92h4.06l8.35,12.8h.05v-12.8h3.07v17.24h-3.89l-8.53-13.23h0v13.23h-3.06Z"></path><path d="M268.84,311.25h3.36l3.24,12.42h0l3.88-12.42h3l3.79,12.42h.05l3.39-12.42h3.11l-5,17.25h-2.92l-4-13.13h-.05l-4,13.13h-2.82Z"></path><path d="M578.23,311.25h11.43V314H581.3v4.24h7.92V321H581.3v4.68h8.79v2.78H578.23Z"></path><path d="M347.77,502.55c-63.82-29.48-109.88-91.09-117.19-164l-.23.23-20.64-20.65,20.64-20.64.23.23c9.62-95.91,86.26-172.32,182.24-181.66l-.57-.58,20.64-20.65,20.64,20.65-.61.6c95.93,9.57,172.39,86.16,181.78,182.14l.72-.73,20.65,20.64-20.65,20.65-.72-.73c-7.17,73.23-53.4,135.15-117.51,164.65A182.93,182.93,0,0,1,529.83,536c84.32-37.34,143.32-121.76,143.32-219.76C673.15,183.76,565.37,76,432.89,76S192.62,183.76,192.62,316.24c0,98.46,59.56,183.23,144.52,220.3A176.76,176.76,0,0,1,345.22,513Z" fill="none"></path><path d="M255.94,318.15c0-97.43,79.26-176.7,176.69-176.7s176.69,79.27,176.69,176.7c0,70.05-41,130.71-100.23,159.27l4.42,18.12c1.21,2.24,2.44,4.66,3.68,7.17,64.11-29.5,110.34-91.42,117.51-164.65l.72.73,20.65-20.65L635.42,297.5l-.72.73c-9.39-96-85.85-172.57-181.78-182.14l.61-.6L432.89,94.84l-20.64,20.65.57.58c-96,9.34-172.62,85.75-182.24,181.66l-.23-.23-20.64,20.64,20.64,20.65.23-.23c7.31,72.9,53.37,134.51,117.19,164l6.39-26.15C296,447.44,255.94,387.4,255.94,318.15Z"></path><path d="M687.52,316.24c0-140.41-114.23-254.65-254.63-254.65S178.24,175.83,178.24,316.24c0,105.39,64.37,196,155.86,234.69.79-4.93,1.82-9.74,3-14.39-85-37.07-144.52-121.84-144.52-220.3C192.62,183.76,300.41,76,432.89,76S673.15,183.76,673.15,316.24c0,98-59,182.42-143.32,219.76,1.25,4.65,2.29,9.46,3.1,14.38C623.74,511.43,687.52,421.15,687.52,316.24Z"></path><path d="M360.05,267.45v3.76a45,45,0,0,1,30.54,11.53l.2.32.57.22c.83.58,8.41,6.51,17.52,33.82a4.7,4.7,0,0,1-2.57,5.86,52.22,52.22,0,0,1-20.23,4.28,46.33,46.33,0,0,1-25.95-8.05l-.15-.1-.18-.09c-.15-.08-14.23-7.92-23.5-38a4.7,4.7,0,0,1,2.76-5.84,61.52,61.52,0,0,1,21-4v-3.76m0,0a65.29,65.29,0,0,0-22.3,4.18,8.48,8.48,0,0,0-5.05,10.48c10,32.33,25.35,40.22,25.35,40.22a50,50,0,0,0,28,8.67,55.57,55.57,0,0,0,21.71-4.59,8.47,8.47,0,0,0,4.66-10.5c-10.6-31.74-19.38-36-19.38-36a48.71,48.71,0,0,0-33-12.47Z"></path><polygon points="477.81 279.34 477.81 279.34 477.81 279.34 477.81 279.34"></polygon><path d="M477.21,311.47a1.21,1.21,0,0,0,1.62-.21l9.59-11.53c1.91.36,3.81.7,5.73,1q3.6.6,7.22,1.09c2.42.32,4.84.6,7.28.83,1.22.11,2.44.22,3.66.3l1.85.1c.62,0,1.25.06,1.87.07a1.21,1.21,0,0,0,.4-2.35c-.59-.19-1.19-.38-1.79-.55l-1.78-.51c-1.18-.32-2.37-.63-3.56-.92-2.37-.59-4.76-1.12-7.15-1.61s-4.78-.93-7.18-1.34q-2.93-.51-5.88-.94c-.33-.8-.66-1.6-1-2.39-.52-1.23-1-2.46-1.6-3.68s-1.12-2.44-1.7-3.65l-.9-1.82-.47-.9c-.16-.31-.32-.61-.49-.91a1.2,1.2,0,0,0-2.23.83l.45,2c.16.66.33,1.32.5,2,.34,1.3.7,2.6,1.08,3.89s.76,2.56,1.16,3.84c.28.87.56,1.75.85,2.62l-7.87,13.18A1.2,1.2,0,0,0,477.21,311.47Z"></path><path d="M275.49,734.94H289a19.32,19.32,0,0,1,6.41,1,12.92,12.92,0,0,1,5.12,3.18,13.05,13.05,0,0,1,3.14,5.36,17.27,17.27,0,0,1,.38,7.6,18.39,18.39,0,0,1-2.76,7.65,20.64,20.64,0,0,1-5.05,5.34,22.28,22.28,0,0,1-12.78,4.2H270.68Zm6.65,28.85a22.43,22.43,0,0,0,5.49-.66,15.15,15.15,0,0,0,4.71-2,12,12,0,0,0,3.5-3.59,13.18,13.18,0,0,0,1.84-5.37,12.71,12.71,0,0,0-.22-5.34,7.64,7.64,0,0,0-2.18-3.62,9.54,9.54,0,0,0-3.79-2,18.44,18.44,0,0,0-5.07-.65h-5.59l-3.25,23.31Z"></path><path d="M312.35,734.94h22.77l-.77,5.54H317.69l-1.17,8.45h15.79l-.78,5.53H315.75l-1.31,9.33H332l-.78,5.53H307.54Z"></path><path d="M357.85,742.32a4.92,4.92,0,0,0-2.33-2.06,8.17,8.17,0,0,0-3.3-.66,9.45,9.45,0,0,0-2.12.25,6.54,6.54,0,0,0-1.91.77,4.91,4.91,0,0,0-1.48,1.39,4.29,4.29,0,0,0-.76,2,2.79,2.79,0,0,0,.83,2.67,9.67,9.67,0,0,0,2.79,1.61c1.15.45,2.4.89,3.74,1.31a14.24,14.24,0,0,1,3.69,1.75,7.66,7.66,0,0,1,2.62,3,8.2,8.2,0,0,1,.51,4.9,11.87,11.87,0,0,1-1.7,4.83,12,12,0,0,1-3.23,3.43,14.39,14.39,0,0,1-4.29,2,18,18,0,0,1-4.91.68,16.87,16.87,0,0,1-6-1.07,9.79,9.79,0,0,1-4.61-3.59l5.24-4.47a6.6,6.6,0,0,0,2.6,2.64,7.32,7.32,0,0,0,3.71.95,8.5,8.5,0,0,0,2.16-.29,7.7,7.7,0,0,0,2-.87,5.93,5.93,0,0,0,1.63-1.49,4.6,4.6,0,0,0,.88-2.06,3.24,3.24,0,0,0-.83-2.91,8.8,8.8,0,0,0-2.79-1.73c-1.15-.47-2.4-.91-3.74-1.33a14.25,14.25,0,0,1-3.67-1.73,7.18,7.18,0,0,1-3.15-7.79,10.49,10.49,0,0,1,1.74-4.61,12.18,12.18,0,0,1,3.33-3.23,14.71,14.71,0,0,1,4.35-1.92,18.48,18.48,0,0,1,4.76-.63,16.13,16.13,0,0,1,5.17.82,9.68,9.68,0,0,1,4.15,2.72Z"></path><path d="M376.16,740.48H365.62l.78-5.54h27.19l-.78,5.54H382.27l-4,28.84h-6.11Z"></path><path d="M397.62,734.94h6.12l-4.81,34.38h-6.12Z"></path><path d="M411.26,734.94h8.11l13.07,25.55h.09l3.6-25.55h6.12l-4.81,34.38h-7.77L416.36,743h-.09l-3.69,26.37h-6.12Z"></path><path d="M461,734.94h5.29l10,34.38h-7l-2.13-7.86H452.3l-4.18,7.86h-6.85Zm4.76,21.27-3.3-14-7.39,14Z"></path><path d="M486.78,740.48H476.24l.77-5.54h27.2l-.78,5.54H492.89l-4,28.84h-6.11Z"></path><path d="M508.24,734.94h6.12l-4.81,34.38h-6.12Z"></path><path d="M517.61,752.28a22.31,22.31,0,0,1,2.4-7.5,20.45,20.45,0,0,1,4.57-5.76,20.13,20.13,0,0,1,6.26-3.67,21.9,21.9,0,0,1,7.51-1.28,19.08,19.08,0,0,1,7.21,1.19,13.26,13.26,0,0,1,5.27,3.62,13.74,13.74,0,0,1,3,5.73,19,19,0,0,1,.29,7.47,21.7,21.7,0,0,1-2.38,7.34,20.24,20.24,0,0,1-4.56,5.68,21,21,0,0,1-6.32,3.71,22.25,22.25,0,0,1-7.57,1.39,18.7,18.7,0,0,1-7.14-1.29,13.6,13.6,0,0,1-5.22-3.64,14,14,0,0,1-3-5.66A17.91,17.91,0,0,1,517.61,752.28Zm6.46-.39a14.39,14.39,0,0,0,.12,5.1,10.05,10.05,0,0,0,1.82,4,9.19,9.19,0,0,0,3.35,2.67,10.8,10.8,0,0,0,4.71,1,12.81,12.81,0,0,0,5-1A13.58,13.58,0,0,0,543.2,761a14.11,14.11,0,0,0,3-4,16.39,16.39,0,0,0,1.56-5.1,13.69,13.69,0,0,0-.17-4.81,9.85,9.85,0,0,0-1.82-3.91,9,9,0,0,0-3.38-2.62,11.22,11.22,0,0,0-4.73-.95,13,13,0,0,0-5,.95,13.42,13.42,0,0,0-4.1,2.62,14.39,14.39,0,0,0-4.47,8.72Z"></path><path d="M562.33,734.94h8.11l13.07,25.55h.09l3.6-25.55h6.12l-4.81,34.38h-7.77L567.43,743h-.09l-3.69,26.37h-6.12Z"></path><path d="M273.76,784.37h5.14l6.47,32.33,6.46-32.33H297v38.68H293.6V789.34l-6.85,33.71h-3l-6.9-33.71v33.71h-3.1Z"></path><path d="M336.43,805.81l-8-21.44h3.65l6.19,17,6.25-17h3.37l-8,21.44v17.24h-3.42Z"></path><path d="M377.26,814.43v-2.15h3.27v2.37c0,3.87,2,5.81,5.19,5.81s5.2-1.94,5.2-5.86c0-3.7-1.55-6.14-6.36-10-5.47-4.37-7.3-7.41-7.3-11.83,0-5.63,3.1-9,8.52-9s8.34,3.38,8.34,9.18v1.55h-3.26v-1.77c0-3.87-1.88-5.86-5.08-5.86s-5.09,2-5.09,5.69c0,3.43,1.66,5.81,6.47,9.67,5.47,4.43,7.18,7.41,7.18,12.11,0,5.86-3.09,9.23-8.62,9.23S377.26,820.24,377.26,814.43Z"></path><path d="M431.59,787.46h-7.08v-3.09h17.63v3.09H435v35.59h-3.42Z"></path><path d="M473.64,784.37h15.48v3.09H477.07v13.87H487v3.1h-9.89V819.9h12.05v3.15H473.64Z"></path><path d="M520.83,784.37h8.24c6,0,8.56,2.71,8.56,8.79v2.37c0,4.31-1.49,6.91-4.69,7.79v.11c3.37.78,4.69,3.38,4.69,8v7a15.3,15.3,0,0,0,.56,4.64h-3.48a17.35,17.35,0,0,1-.5-4.69v-7.13c0-4.48-1.66-6-5.75-6h-4.2v17.85h-3.43ZM528.41,802c3.92,0,5.8-1.66,5.8-5.86v-2.71c0-4.2-1.49-6-5.25-6h-4.7V802Z"></path><path d="M575.82,805.81l-8-21.44h3.65l6.19,17,6.25-17h3.37l-8,21.44v17.24h-3.43Z"></path></svg>