<?xml version="1.0" encoding="UTF-8" standalone="no"?>
<svg version="1.2" baseProfile="tiny-ps" viewBox="0 0 810 810" xmlns="http://www.w3.org/2000/svg">
  <title>Destination Mystery</title>
  <desc>The logo of the Destination Mystery Podcast, hosted by Michael Mickelsen and Melissa Morgan.</desc>
  <rect fill="#000000" width="810" height="810"/>
  <path stroke="#ffffff" stroke-width="4.6" d="m 363,533 c 0,0 -29,41 -19,82 0,0 -1,-13 5,-21 0,0 11,18 6,32 -5,14 4,30 4,30 0,0 -3,-12 5,-29 8,-16 35,56 38,62 v 0.4 l 0.1,-0.2 0.1,0.2 v -0.4 c 0.1,-0.3 0.3,-0.8 0.5,-1 V 549 l -0.6,0.3 z m 0,0"/>
  <path fill="#ffffff" d="m 486,518 -5,-20 -6,2 c -2,-2.7 -3.2,-4 -3,-4 l -3.8,1 c 3,-8 -3,-13 -3,-13 l -5,16 h -15 l 1,-11 c -7,-4 -13,-4 -20,0 l 1.8,10.5 h -6.5 l 1.18,-10.5 c -6.4,-4 -12.9,-4 -19.3,0 l 1.7,10.5 -0.9,11.2 a 273.5,268.7 0 0 0 -0.9,21.5 v 160.7 l 5,38.6 3.2,1.9 c 2.8,-6.4 21.8,-69.7 41.7,-91 2,8.7 0.1,14.3 0.1,14.3 0,0 0.5,-0.8 1.2,-2.2 -0.1,0.8 -0.3,1.5 -0.5,2.2 0,0 5.9,-9.6 6.2,-20.2 4,-2.3 7.4,-2.1 9.8,1.9 15.4,24.6 9.2,42.7 9.2,42.7 0,0 15.4,-24.9 6.5,-45.5 -8.8,-20.6 9.9,-48.1 9.9,-48.1 10.9,11.9 9.2,31.4 9.2,31.4 11.6,-39.3 -4.6,-78.2 -18.1,-101.5 z M 410.2,385 a 78.9,77.5 0 0 0 -1,-12.4 62.3,61.2 0 0 0 -1.6,-6.8 v 38.5 a 60.1,59 0 0 0 1.7,-6.9 76.8,75.5 0 0 0 1,-12.4 z m 0,0"/>
  <path fill="#ffffff" d="m 344,482.3 3,15.1 6.3,2.4 h 10.5 l -1.7,-10.5 a 16.5,16.2 0 0 1 2.2,-1.3 16.7,16.4 0 0 1 2.3,-0.9 c 0.8,-0.3 1.6,-0.4 2.5,-0.6 a 16.2,16 0 0 1 2.5,-0.2 16.3,16 0 0 1 4,0.8 16.9,16.6 0 0 1 2.4,0.9 c 0.8,0.4 1.5,0.8 2.2,1.3 l -1.2,10.5 h 7.6 l -1.7,-10.5 a 14.9,14.6 0 0 1 2.1,-1.3 15.2,14.9 0 0 1 2.3,-0.9 15.2,14.9 0 0 1 4.8,-0.8 15.2,14.9 0 0 1 4.8,0.8 c 0.8,0.3 1.5,0.6 2.3,0.9 0.7,0.4 1.4,0.8 2.1,1.3 l -1.1,10.5 h 4.5 v 231.6 c 0,-8.9 -0.1,-8.9 -0.1,-8.9 v 8.6 c -2.7,-6.4 -29,-68.3 -47.9,-89.2 l -0.3,-0.3 a 39.8,39.1 0 0 0 -0.2,15.2 c -4.8,-5.7 -5.5,-20.2 -5.5,-20.2 a 8.3,8.2 0 0 0 -4.4,-1.5 c -1.9,0 -3.6,1.1 -5,3.4 -14.6,24.6 -8.7,42.7 -8.7,42.7 0,0 -14.6,-24.9 -6.2,-45.5 8.4,-20.6 -9.5,-48.1 -9.5,-48.1 -10.4,11.9 -8.8,31.4 -8.8,31.4 -8.6,-30.9 -0.9,-61.5 8.9,-84.5 l 9.2,-37.2 6.1,2.5 h 4 c 1.9,-2.7 3.1,-4.2 3.1,-4.2 l 0.8,0.3 c -2.9,-8.5 0.9,-13.6 0.9,-13.6 m 0,-3.7 a 3.7,3.6 0 0 0 -1.7,0.4 3.7,3.7 0 0 0 -1.3,1.1 c -0.2,0.2 -4,5.5 -2.2,14 -0.4,0.5 -0.8,1.1 -1.5,2 h -1.3 l -5.4,-2.2 a 3.7,3.7 0 0 0 -1.6,-0.3 3.7,3.7 0 0 0 -2.2,0.8 3.7,3.6 0 0 0 -0.6,0.6 3.9,3.9 0 0 0 -0.4,0.7 3.9,3.9 0 0 0 -0.3,0.7 l -9.2,36.9 a 164.6,161.7 0 0 0 -11.6,39.9 116.9,114.9 0 0 0 -1.2,23.5 116.6,114.6 0 0 0 3.7,23.2 c 0.1,0.4 0.3,0.7 0.5,1.1 0.2,0.3 0.5,0.6 0.8,0.9 a 3.7,3.6 0 0 0 2.9,0.7 3.7,3.7 0 0 0 2.3,-1.4 3.6,3.5 0 0 0 0.6,-1.2 3.6,3.6 0 0 0 0.1,-1.3 c 0,-0.2 -1,-13.6 4.7,-24.2 4.4,8.5 11.9,26.1 6.3,39.8 -8.9,22 5.8,47.6 6.4,48.7 a 3.7,3.6 0 0 0 1.4,1.3 3.7,3.6 0 0 0 1.9,0.5 3.6,3.6 0 0 0 1.5,-0.3 c 0.4,-0.2 0.8,-0.4 1.1,-0.8 a 3.7,3.7 0 0 0 1.1,-2.4 3.7,3.7 0 0 0 -0.2,-1.3 c -0.05,-0.1 -5.1,-16 8.4,-39.7 0.9,-1.5 1.6,-1.5 1.8,-1.5 0.3,0.01 0.6,0.1 0.8,0.2 0.4,4.6 1.8,15 6.2,20.2 a 3.7,3.6 0 0 0 2.1,1.2 c 0.4,0.1 0.8,0.1 1.2,0.1 a 3.7,3.6 0 0 0 2.2,-1 c 0.3,-0.3 0.5,-0.6 0.7,-1 a 3.7,3.6 0 0 0 0.4,-1.2 3.7,3.6 0 0 0 -0.04,-1.2 35.6,34.9 0 0 1 -0.5,-5 c 17.8,24.6 39.3,75.3 41.9,81.5 l 0.06,0.1 a 3.7,3.6 0 0 0 1.2,1.6 3.6,3.6 0 0 0 2.3,0.8 3.4,3.3 0 0 0 0.9,-0.1 c 2.9,-0.7 2.9,-3.4 2.9,-4.4 V 499.9 c 0,-0.2 -0.03,-0.5 -0.1,-0.7 a 3.6,3.5 0 0 0 -0.6,-1.3 3.6,3.6 0 0 0 -0.5,-0.6 3.8,3.8 0 0 0 -0.6,-0.5 3.7,3.7 0 0 0 -0.6,-0.3 3.7,3.6 0 0 0 -1.4,-0.3 h -0.3 l 0.7,-6.5 a 3.6,3.6 0 0 0 -0.3,-1.9 3.6,3.6 0 0 0 -1.3,-1.5 19,18.6 0 0 0 -5.3,-2.7 19.2,18.8 0 0 0 -2.9,-0.7 19.2,18.9 0 0 0 -3,-0.2 c -1,0 -2,0.1 -3,0.2 a 19.1,18.8 0 0 0 -5.7,1.8 19.2,18.9 0 0 0 -2.6,1.5 3.2,3.2 0 0 0 -0.3,0.2 3.7,3.7 0 0 0 -0.4,-0.3 20,19.7 0 0 0 -5.5,-2.7 20.1,19.8 0 0 0 -17.6,2.7 3.6,3.6 0 0 0 -0.8,0.7 3.8,3.7 0 0 0 -0.9,1.9 3.8,3.7 0 0 0 0.02,1.1 l 1,6.3 h -5.4 l -3.8,-1.4 -2.5,-13.1 a 3.7,3.6 0 0 0 -1.3,-2.1 3.7,3.6 0 0 0 -1.1,-0.6 3.7,3.6 0 0 0 -1.3,-0.2 z m 0,0"/>
  <path fill="#ffffff" d="m 403.8,233.6 v 125.3 a 16.8,16.5 0 0 0 -3.7,-0.7 h -1 c -6.2,0 -19.1,5.1 -26.2,14.4 a 23.7,23.3 0 0 0 -4,7.2 23.7,23.2 0 0 0 -1.2,8.1 v 0.5 c 1.2,7 7.2,20.7 21.9,22.5 1.1,0.1 2.3,0.2 3.4,0.2 a 36.9,36.3 0 0 0 10.7,-1.7 v 41.2 h -6 l 1.5,4.7 a 55.6,54.7 0 0 1 2.1,13 c -3.9,0.4 -7.8,0.6 -11.8,0.5 -3.9,0.04 -7.8,-0.1 -11.7,-0.5 0.2,-3 0.7,-5.9 1.5,-8.8 l 1.7,-6.5 -6.4,2 h -0.1 a 100.8,99 0 0 0 -13.1,5.1 l -1,0.5 -0.6,1 -4.4,7.2 h -8.9 l -1,0.7 a 106.9,105 0 0 0 -6.6,5.1 103.5,101.7 0 0 0 -10.1,9.7 c -0.5,-23.9 6.9,-35.7 7.9,-37.2 a 119.9,117.8 0 0 0 7.5,-8.4 l 2.3,-2.7 -2.7,-2.3 -21.4,-18.2 -2.4,-2 -2.4,2 -11.4,9.4 -28,-18.8 v -37.3 l 11.2,-16.6 0.6,-0.9 v -39.2 a 39.5,38.8 0 0 1 0.8,-7.5 39.4,38.7 0 0 1 2.2,-7.2 38.8,38.1 0 0 1 1.6,-3.4 38.2,37.6 0 0 1 2,-3.2 39.7,39 0 0 1 2.3,-3 39.5,38.8 0 0 1 5.4,-5.3 39.1,38.4 0 0 1 9.8,-5.8 39.4,38.7 0 0 1 3.6,-1.3 38.4,37.7 0 0 1 3.7,-0.9 39,38.3 0 0 1 7.6,-0.8 h 15.7 l 1.1,-1.2 c 13.4,-14.6 32.8,-27.7 57.8,-38.8 m 1.7,-4.8 c -28.3,12.2 -48.5,26 -62.3,41.1 h -14 a 43.2,42.5 0 0 0 -8.4,0.8 43.1,42.3 0 0 0 -8,2.4 42.9,42.1 0 0 0 -7.4,3.9 43.4,42.6 0 0 0 -6.5,5.2 43.1,42.3 0 0 0 -9.3,13.6 43.5,42.7 0 0 0 -2.5,7.9 43.2,42.5 0 0 0 -0.8,8.2 v 38 l -11.8,17.5 v 40.4 l 31.9,21.4 13.6,-11.1 21.4,18.2 a 118.8,116.7 0 0 1 -7.5,8.3 c 0,0 -11.6,15.2 -8.2,49.2 a 98.8,97 0 0 1 15.7,-16.7 106.7,104.8 0 0 1 6.4,-4.9 h 9.8 l 5.5,-8.9 a 97,95.3 0 0 1 12.7,-4.9 54.1,53.2 0 0 0 -1.7,12.2 c 0,1.1 7.8,1.6 15.6,1.6 7.8,0 15.6,-0.5 15.6,-1.6 a 61.9,60.8 0 0 0 -2.4,-16.6 h 4.7 v -48.6 l -0.4,-0.1 c 0.1,-0.4 0.2,-0.8 0.4,-1.3 V 365.8 c -0.2,-0.7 -0.4,-1.5 -0.7,-2.2 l 0.1,-0.1 c 0.2,-0.1 0.4,-0.2 0.5,-0.3 V 229.8 c -0.7,-0.3 -1.3,-0.7 -2.1,-1 z M 393.1,407.3 a 23.1,22.7 0 0 1 -3,-0.2 c -15.8,-1.9 -18.7,-19.5 -18.7,-19.5 a 20.2,19.8 0 0 1 1,-6.9 20.4,20 0 0 1 3.4,-6.1 c 6.5,-8.5 18.5,-12.9 23.3,-12.9 h 0.6 c 1.6,0.1 3.1,0.5 4.5,1.4 a 54.9,53.9 0 0 0 -2.5,9.5 76.9,75.5 0 0 0 -1,12.4 75.8,74.5 0 0 0 1,12.4 56.2,55.3 0 0 0 2,8.1 34,33.4 0 0 1 -10.7,1.9 z m 0,0"/>
  <path fill="#ffffff" d="m 524.7,350.1 v -38 a 43.2,42.5 0 0 0 -0.8,-8.2 43.2,42.4 0 0 0 -2.5,-7.9 42.9,42.1 0 0 0 -1.8,-3.7 42.7,41.9 0 0 0 -4.7,-6.9 43,42.2 0 0 0 -12.9,-10.4 42.9,42.1 0 0 0 -3.8,-1.8 43.5,42.7 0 0 0 -4,-1.4 42.4,41.7 0 0 0 -4.1,-1 43.2,42.5 0 0 0 -8.4,-0.8 H 462.1 A 165.4,162.5 0 0 0 436.9,247.1 165.5,162.6 0 0 0 407.5,229.8 v 133.3 a 7.8,7.7 0 0 1 3,-1.2 7.9,7.7 0 0 1 3.3,0.1 c 11.3,2.7 17.7,7.7 21.2,12.7 a 24.6,24.2 0 0 1 3.2,6.2 24.6,24.2 0 0 1 1.3,6.8 29.2,28.7 0 0 1 -2,6.1 c -4.7,8.4 -10.9,11.8 -16.6,12.8 -4.5,0.8 -9,0.4 -13.4,-1 v 48.5 h 2.1 a 57.4,56.4 0 0 0 -2.2,12.3 v 4.6 c 2.6,1.9 30.9,1.8 30.9,-0.3 a 53.8,52.8 0 0 0 -1.6,-11.7 98.9,97.1 0 0 1 13.3,5.5 l 4.9,7.9 h 8.3 a 99.4,97.7 0 0 1 11.4,9.5 c 0.5,0.5 1,1 1.4,1.5 a 96.8,95 0 0 1 3.5,3.7 c 0.5,0.5 0.9,1 1.4,1.5 1.5,1.8 3,3.5 4.3,5.4 3.4,-34 -8.2,-49.2 -8.2,-49.2 a 105.8,104 0 0 1 -7.5,-8.3 l 21.4,-18.2 13.6,11.1 31.9,-21.4 v -40.4 z m -18.1,-40.5 c -9.9,31.5 -25.1,39.2 -25.1,39.2 -20.1,13 -39.4,8.1 -49.3,4 a 8.2,8.1 0 0 1 -1.4,-0.7 8.3,8.2 0 0 1 -1.2,-1 8.5,8.4 0 0 1 -1,-1.2 8.3,8.1 0 0 1 -0.8,-1.4 8.3,8.1 0 0 1 -0.5,-1.5 8.1,7.9 0 0 1 -0.2,-1.5 c -0.02,-0.5 0,-1 0.1,-1.5 a 8.8,8.6 0 0 1 0.4,-1.5 c 10.5,-30.9 19.2,-35.1 19.2,-35.1 20,-17.3 43.4,-12.2 54.9,-8.1 a 8.4,8.2 0 0 1 3.8,2.8 c 0.3,0.4 0.6,0.9 0.8,1.3 0.2,0.5 0.4,1 0.5,1.5 a 8,7.8 0 0 1 0.3,1.5 8.1,8 0 0 1 -0.04,1.6 c -0.1,0.5 -0.2,1 -0.3,1.5 z M 398.2,184.7 h 4 l 8.3,12.5 h 0.1 v -12.5 h 3 v 16.8 h -3.9 l -8.5,-12.9 h -0.04 v 12.9 h -3 z M 244.2,338 h 3.3 l 3.2,12.1 h 0.04 l 3.8,-12.1 h 3 l 3.8,12.1 h 0.04 l 3.4,-12.1 h 3.1 l -5,16.8 h -2.9 l -4,-12.8 h -0.1 l -4,12.8 h -2.8 z m 306.9,0 h 11.3 v 2.7 h -8.3 v 4.1 h 7.8 v 2.7 h -7.8 v 4.6 h 8.7 v 2.7 h -11.8 z m 0,0"/>
  <path fill="#ffffff" d="m 231.3,344.7 c 0,-94.9 78.6,-172.1 175.2,-172.1 96.6,0 175.2,77.2 175.2,172.1 0,68.3 -40.7,127.4 -99.4,155.2 l 4.4,17.7 a 206.8,203.1 0 0 1 3.6,7 c 63.6,-28.7 109.4,-89.1 116.6,-160.4 l 0.7,0.7 20.5,-20.1 -20.5,-20.1 -0.7,0.7 C 597.7,231.7 521.9,157.1 426.7,147.8 l 0.6,-0.6 -20.5,-20.1 -20.5,20.11 0.6,0.6 c -95.2,9.1 -171.2,83.6 -180.7,177 l -0.2,-0.2 -20.5,20.1 20.5,20.1 0.2,-0.2 c 7.3,71 52.9,131 116.2,159.8 l 6.3,-25.5 c -57.7,-28.2 -97.4,-86.7 -97.4,-154.2 z m 0,0"/>
  <path fill="#ffffff" d="m 659.4,342.8 c 0,-136.8 -113.3,-248.1 -252.5,-248.1 -139.3,0 -252.6,111.3 -252.6,248.1 0,102.7 63.8,191 154.6,228.6 a 159,156.2 0 0 1 3,-14 C 227.6,521.3 168.6,438.7 168.6,342.8 c 0,-129.1 106.9,-234.1 238.3,-234.1 131.4,0 238.3,105.1 238.3,234.1 0,95.5 -58.5,177.7 -142.1,214.1 a 150.4,147.8 0 0 1 3.1,14 C 596.1,533 659.4,445.1 659.4,342.8 Z m 0,0"/>
  <path fill="#ffffff" d="m 334.6,295.3 v 3.7 a 44.5,43.7 0 0 1 16.2,2.8 44.4,43.6 0 0 1 7.4,3.6 44.2,43.4 0 0 1 6.6,4.8 l 0.2,0.3 0.6,0.2 c 0.8,0.6 8.3,6.3 17.4,33 a 4.6,4.5 0 0 1 0.3,1.7 4.5,4.4 0 0 1 -0.1,0.8 4.7,4.6 0 0 1 -2.7,3.2 51.2,50.3 0 0 1 -20.1,4.1 45.8,45 0 0 1 -13.4,-2 45.8,45 0 0 1 -12.3,-5.8 l -0.1,-0.1 -0.2,-0.1 c -0.1,-0.1 -14.1,-7.7 -23.3,-37 a 4.6,4.5 0 0 1 -0.2,-1.7 4.9,4.8 0 0 1 0.1,-0.9 c 0.1,-0.3 0.2,-0.6 0.3,-0.8 0.1,-0.3 0.3,-0.5 0.4,-0.7 0.2,-0.2 0.4,-0.5 0.6,-0.6 a 4.7,4.6 0 0 1 1.5,-0.9 60.6,59.6 0 0 1 20.8,-3.8 v -3.7 m 0,0 a 64.2,63 0 0 0 -22.1,4.1 8.5,8.3 0 0 0 -3.7,2.8 8.4,8.3 0 0 0 -1.6,4.3 8.4,8.3 0 0 0 0.4,3.1 c 9.9,31.5 25.1,39.2 25.1,39.2 a 49.3,48.5 0 0 0 13.2,6.3 49.3,48.4 0 0 0 14.5,2.2 c 7.5,-0.1 14.7,-1.5 21.5,-4.5 a 8.4,8.2 0 0 0 1.4,-0.7 8.5,8.3 0 0 0 2.2,-2.1 8.7,8.5 0 0 0 0.8,-1.3 c 0.2,-0.5 0.4,-1 0.5,-1.5 a 8.4,8.2 0 0 0 -0.2,-4.5 C 376.1,311.6 367.4,307.4 367.4,307.4 a 48,47.2 0 0 0 -7.2,-5.2 48.2,47.3 0 0 0 -16.6,-6.2 48.1,47.2 0 0 0 -8.9,-0.7 z m 116.2,42.9 c 0.2,0.1 0.4,0.2 0.7,0.2 0.4,0 0.7,-0.1 0.9,-0.4 l 9.5,-11.2 c 1.9,0.3 3.8,0.7 5.7,1 2.4,0.4 4.8,0.7 7.2,1.1 2.4,0.3 4.8,0.6 7.2,0.8 1.2,0.1 2.4,0.2 3.6,0.3 l 1.8,0.1 c 0.6,0 1.2,0.1 1.9,0.1 0.3,0.003 0.6,-0.1 0.8,-0.3 0.2,-0.2 0.4,-0.4 0.4,-0.7 a 1.2,1.2 0 0 0 -0.2,-0.8 1.2,1.2 0 0 0 -0.6,-0.5 57.9,56.9 0 0 0 -1.8,-0.5 l -1.8,-0.5 a 170.2,167.2 0 0 0 -10.6,-2.5 222.7,218.8 0 0 0 -7.1,-1.3 244.1,239.8 0 0 0 -5.8,-0.9 c -0.3,-0.8 -0.7,-1.6 -1,-2.3 a 125.5,123.3 0 0 0 -1.6,-3.6 c -0.6,-1.2 -1.1,-2.4 -1.7,-3.6 a 72.6,71.4 0 0 0 -0.9,-1.8 l -0.5,-0.9 c -0.2,-0.3 -0.3,-0.6 -0.5,-0.9 a 1.2,1.2 0 0 0 -0.6,-0.5 1.2,1.1 0 0 0 -0.8,-0.01 1.1,1.1 0 0 0 -0.6,0.5 c -0.1,0.3 -0.2,0.5 -0.1,0.8 l 0.4,1.9 c 0.2,0.6 0.3,1.3 0.5,1.9 0.3,1.3 0.7,2.5 1.1,3.8 0.4,1.3 0.8,2.5 1.2,3.7 0.3,0.8 0.6,1.7 0.8,2.6 l -7.8,12.8 a 1.2,1.1 0 0 0 -0.1,0.8 c 0.1,0.3 0.2,0.5 0.5,0.7 z m 0,0"/>
  <path fill="#ffffff" d="m 532,591 h -3.4 v 8.8 h -2.8 v -8.8 h -3.4 v -2.1 h 9.6 z m 12.1,8.8 h -2.8 v -7.3 l -2,4.7 h -1.9 l -2,-4.7 v 7.3 h -2.7 v -10.9 h 3.3 l 2.5,5.5 2.4,-5.5 h 3.3 z"/>
</svg>
