<?xml version="1.0" encoding="UTF-8" standalone="no"?>
<svg version="1.2" baseProfile="tiny-ps" viewBox="0 0 810 810" xmlns="http://www.w3.org/2000/svg">
  <title>Destination Mystery</title>
  <desc>The logo of the Destination Mystery Podcast, hosted by Michael Mickelsen and Melissa Morgan.</desc>
  <rect fill="#000000" width="810" height="810"/>
  <path d="m 363,533 c 0,0 -29,41 -19,82 0,0 -1,-13 5,-21 0,0 11,18 6,32 -5,14 4,30 4,30 0,0 -3,-12 5,-29 8,-16 35,56 38,62 v 0.4 l 0.1,-0.2 0.1,0.2 v -0.4 c 0.1,-0.3 0.3,-0.8 0.5,-1 V 549 l -0.6,0.3 z m 0,0" stroke="#ffffff" stroke-width="4.6"/>
  <path fill="#ffffff" d="m 486,518 -5,-20 -6,2 c -2,-2.7 -3.2,-4 -3,-4 l -3.8,1 c 3,-8 -3,-13 -3,-13 l -5,16 h -15 l 1,-11 c -7,-4 -13,-4 -20,0 l 1.8,10.5 h -6.5 l 1.18,-10.5 c -6.4,-4 -12.9,-4 -19.3,0 l 1.7,10.5 -0.9,11.2 a 273.5,268.7 0 0 0 -0.9,21.5 v 160.7 l 5,38.6 3.2,1.9 c 2.8,-6.4 21.8,-69.7 41.7,-91 2,8.7 0.1,14.3 0.1,14.3 0,0 0.5,-0.8 1.2,-2.2 -0.1,0.8 -0.3,1.5 -0.5,2.2 0,0 5.9,-9.6 6.2,-20.2 4,-2.3 7.4,-2.1 9.8,1.9 15.4,24.6 9.2,42.7 9.2,42.7 0,0 15.4,-24.9 6.5,-45.5 -8.8,-20.6 9.9,-48.1 9.9,-48.1 10.9,11.9 9.2,31.4 9.2,31.4 11.6,-39.3 -4.6,-78.2 -18.1,-101.5 z M 410.2,385 a 78.9,77.5 0 0 0 -1,-12.4 62.3,61.2 0 0 0 -1.6,-6.8 v 38.5 a 60.1,59 0 0 0 1.7,-6.9 76.8,75.5 0 0 0 1,-12.4 z m 0,0"/>
  <path d="m 344,482.3 3,15.1 6.3,2.4 h 10.5 l -1.7,-10.5 a 16.5,16.2 0 0 1 2.2,-1.3 16.7,16.4 0 0 1 2.3,-0.9 c 0.8,-0.3 1.6,-0.4 2.5,-0.6 a 16.2,16 0 0 1 2.5,-0.2 16.3,16 0 0 1 4,0.8 16.9,16.6 0 0 1 2.4,0.9 c 0.8,0.4 1.5,0.8 2.2,1.3 l -1.2,10.5 h 7.6 l -1.7,-10.5 a 14.9,14.6 0 0 1 2.1,-1.3 15.2,14.9 0 0 1 2.3,-0.9 15.2,14.9 0 0 1 4.8,-0.8 15.2,14.9 0 0 1 4.8,0.8 c 0.8,0.3 1.5,0.6 2.3,0.9 0.7,0.4 1.4,0.8 2.1,1.3 l -1.1,10.5 h 4.5 v 231.6 c 0,-8.9 -0.1,-8.9 -0.1,-8.9 v 8.6 c -2.7,-6.4 -29,-68.3 -47.9,-89.2 l -0.3,-0.3 a 39.8,39.1 0 0 0 -0.2,15.2 c -4.83216,-5.73949 -5.50653,-20.24725 -5.50653,-20.24725 a 8.3190719,8.1719287 0 0 0 -4.39406,-1.49008 c -1.91162,0 -3.59933,1.05192 -4.95783,3.36178 -14.59908,24.58014 -8.69784,42.65312 -8.69784,42.65312 0,0 -14.59909,-24.94001 -6.20922,-45.53675 8.38988,-20.59501 -9.4616,-48.07877 -9.4616,-48.07877 -10.39177,11.93363 -8.75717,31.44976 -8.75717,31.44976 -8.58014,-30.85513 -0.92306,-61.46596 8.92619,-84.46645 l 9.24479,-37.18923 6.07735,2.47592 h 3.96839 c 1.8939,-2.68978 3.05591,-4.15987 3.05591,-4.15987 l 0.83014,0.31297 c -2.9037,-8.52835 0.89563,-13.64189 0.89563,-13.64189 m 0,-3.66433 a 3.715262,3.6495486 0 0 0 -1.67355,0.41467 3.7214571,3.6556339 0 0 0 -1.30362,1.10668 c -0.17965,0.24431 -3.96836,5.53172 -2.23021,14.00097 -0.34871,0.46597 -0.84253,1.12755 -1.46912,1.9969 h -1.30979 l -5.39326,-2.19338 a 3.720572,3.6547647 0 0 0 -1.56912,-0.27559 3.7170321,3.6512873 0 0 0 -2.21606,0.82154 3.6639317,3.599126 0 0 0 -0.56375,0.56074 3.933859,3.8642789 0 0 0 -0.42834,0.66591 3.9294339,3.8599322 0 0 0 -0.27346,0.7407 l -9.17134,36.8954 a 164.62913,161.71725 0 0 0 -11.55642,39.94333 116.92101,114.85298 0 0 0 -1.17263,23.45517 116.61745,114.55479 0 0 0 3.70287,23.20132 c 0.10708,0.38774 0.27611,0.74765 0.50445,1.08322 0.22831,0.33298 0.50799,0.62159 0.83365,0.86241 a 3.7002169,3.6347694 0 0 0 2.90727,0.69635 3.7196872,3.6538954 0 0 0 2.30191,-1.36489 3.5842809,3.5208842 0 0 0 0.6257,-1.19536 3.6329562,3.5686986 0 0 0 0.14513,-1.33879 c 0,-0.15564 -0.9912,-13.63759 4.71267,-24.18805 4.41442,8.46576 11.90247,26.09017 6.32603,39.75902 -8.92617,21.99902 5.80477,47.64062 6.43757,48.71081 a 3.6639317,3.599126 0 0 0 1.36555,1.34835 3.6524266,3.5878244 0 0 0 1.86648,0.49293 3.6373814,3.5730455 0 0 0 1.50716,-0.30949 c 0.42215,-0.18256 0.79828,-0.43468 1.12396,-0.75374 a 3.720572,3.6547647 0 0 0 1.09565,-2.39419 3.7170321,3.6512873 0 0 0 -0.177,-1.32489 c -0.0479,-0.14518 -5.1056,-16.99239 8.36333,-39.6808 0.92306,-1.54832 1.55583,-1.54832 1.75585,-1.54832 0.28321,0.006 0.55755,0.0574 0.82306,0.15648 0.40445,4.61454 1.77353,14.99201 6.20831,20.24291 a 3.6993319,3.6339003 0 0 0 2.07093,1.24927 c 0.40445,0.0887 0.81599,0.10865 1.22752,0.0609 a 3.6922518,3.6269454 0 0 0 2.18861,-1.0354 c 0.29382,-0.28861 0.53543,-0.61463 0.71863,-0.98149 a 3.6816317,3.6165131 0 0 0 0.3593,-1.1545 3.6816317,3.6165131 0 0 0 -0.0406,-1.2084 35.565802,34.936735 0 0 1 -0.54341,-5.04661 c 17.77274,24.58968 39.3032,75.27999 41.92106,81.52543 l 0.0619,0.12518 a 3.706412,3.640855 0 0 0 1.18945,1.62049 3.6241061,3.5600052 0 0 0 2.30898,0.78763 3.3807293,3.3209327 0 0 0 0.85403,-0.0982 c 2.87628,-0.66246 2.87628,-3.36875 2.87628,-4.39112 V 499.86272 c 0,-0.24081 -0.025,-0.47816 -0.0725,-0.71289 a 3.605521,3.5417486 0 0 0 -0.55666,-1.32142 3.6462315,3.581739 0 0 0 -0.46376,-0.55638 3.825888,3.7582178 0 0 0 -0.56285,-0.45553 3.7258822,3.6599807 0 0 0 -0.64606,-0.33644 3.7019868,3.6365083 0 0 0 -1.42752,-0.28167 h -0.31594 l 0.69209,-6.45931 a 3.6232213,3.5591358 0 0 0 -0.33189,-1.94561 3.6276462,3.5634825 0 0 0 -1.31423,-1.49094 18.982528,18.646777 0 0 0 -5.32333,-2.67588 19.176345,18.837165 0 0 0 -2.91786,-0.68939 19.233871,18.893673 0 0 0 -2.99134,-0.23037 c -1.00182,0 -1.99744,0.0783 -2.98955,0.23037 a 19.133866,18.795437 0 0 0 -5.68705,1.82043 19.201125,18.861506 0 0 0 -2.55414,1.54484 3.2152329,3.1583635 0 0 0 -0.30798,0.22427 3.7453523,3.6791067 0 0 0 -0.35577,-0.2547 20.023297,19.669137 0 0 0 -5.48352,-2.65154 20.125074,19.769111 0 0 0 -17.56475,2.65154 3.6276462,3.5634825 0 0 0 -0.81951,0.69288 3.7506621,3.6843228 0 0 0 -0.87438,1.91258 3.7612825,3.694755 0 0 0 0.0167,1.05885 l 0.99208,6.26198 h -5.43392 l -3.77193,-1.41966 -2.54882,-13.11508 a 3.708182,3.6425938 0 0 0 -1.28503,-2.1386 3.6957919,3.6304227 0 0 0 -1.11688,-0.62594 3.6940218,3.6286841 0 0 0 -1.26556,-0.21734 z m 0,0" fill="#ffffff" fill-opacity="1" fill-rule="nonzero" />
  <path d="m 403.81851,233.55172 v 125.3261 a 16.837271,16.539462 0 0 0 -3.671,-0.73025 h -0.9921 c -6.19861,0 -19.11086,5.10745 -26.24314,14.35129 a 23.711125,23.291735 0 0 0 -3.96129,7.23041 23.661564,23.243052 0 0 0 -1.19299,8.12586 v 0.45554 c 1.15848,6.98526 7.21813,20.67323 21.87651,22.50758 1.13369,0.14605 2.27093,0.21733 3.4117,0.21386 a 36.947298,36.293796 0 0 0 10.71389,-1.70393 v 41.18826 h -6.03308 l 1.47974,4.73798 a 55.64928,54.664987 0 0 1 2.12313,13.01248 c -3.90644,0.41121 -7.82348,0.59464 -11.75379,0.5477 -3.91351,0.0435 -7.81992,-0.13649 -11.71307,-0.53726 0.22479,-2.96452 0.708,-5.88552 1.45937,-8.76831 l 1.71427,-6.46886 -6.36764,2.02734 h -0.10709 a 100.77317,98.990744 0 0 0 -13.06448,5.14481 l -0.99208,0.46859 -0.57438,0.97108 -4.43124,7.18261 h -8.92618 l -0.99209,0.69896 a 106.90184,105.01102 0 0 0 -6.63755,5.12484 103.49279,101.66227 0 0 0 -10.12627,9.74284 c -0.49384,-23.8968 6.94554,-35.74522 7.93409,-37.1953 a 119.91588,117.79488 0 0 0 7.52966,-8.37797 l 2.25058,-2.74716 -2.71698,-2.31943 -21.40304,-18.23905 -2.38952,-2.04475 -2.43996,1.99692 -11.42546,9.35164 -27.968,-18.78239 v -37.34484 l 11.19712,-16.56119 0.62304,-0.91457 v -39.15831 a 39.487271,38.788842 0 0 1 0.76023,-7.49818 39.352748,38.656701 0 0 1 2.23286,-7.20955 38.818206,38.131611 0 0 1 1.64612,-3.40875 38.242065,37.565661 0 0 1 1.97358,-3.2366 39.738612,39.035739 0 0 1 2.28862,-3.02883 39.506741,38.807968 0 0 1 5.4242,-5.33174 39.088134,38.396763 0 0 1 9.84926,-5.80381 39.42001,38.722771 0 0 1 3.61261,-1.27362 38.391631,37.712581 0 0 1 3.72675,-0.91977 38.954496,38.265489 0 0 1 7.63321,-0.75112 h 15.70888 l 1.1098,-1.21537 c 13.36185,-14.61644 32.81076,-27.66979 57.8441,-38.83578 m 1.6762,-4.75449 c -28.26891,12.20834 -48.47894,26.03368 -62.29568,41.14131 h -14.04335 a 43.246782,42.481858 0 0 0 -8.35891,0.82849 43.098101,42.335806 0 0 0 -8.03409,2.41073 42.90517,42.146288 0 0 0 -7.40928,3.89557 43.355639,42.588788 0 0 0 -6.49153,5.24048 43.051197,42.28973 0 0 0 -9.3032,13.64798 43.48308,42.713976 0 0 0 -2.45413,7.89548 43.246782,42.481858 0 0 0 -0.84429,8.20757 v 37.99686 l -11.82371,17.53661 v 40.38497 l 31.87798,21.43133 13.59726,-11.12513 21.40214,18.23905 a 118.79635,116.69514 0 0 1 -7.50842,8.3371 c 0,0 -11.55377,15.21023 -8.18275,49.20023 a 98.774816,97.027743 0 0 1 15.69117,-16.6603 106.6505,104.76413 0 0 1 6.38887,-4.93795 h 9.82889 l 5.52422,-8.94477 a 97.003919,95.288166 0 0 1 12.65295,-4.86925 54.144768,53.187085 0 0 0 -1.70452,12.19704 c 0,1.10147 7.7854,1.6448 15.57082,1.6448 7.78454,0 15.56995,-0.54333 15.56995,-1.64393 a 61.888583,60.793934 0 0 0 -2.37801,-16.64989 h 4.74983 v -48.56906 l -0.3664,-0.10434 c 0.14868,-0.42858 0.23896,-0.84935 0.3664,-1.26752 V 365.7883 c -0.22833,-0.74329 -0.40798,-1.49007 -0.67439,-2.23076 l 0.14869,-0.14605 c 0.16991,-0.12866 0.35667,-0.20691 0.5257,-0.31297 V 229.76304 c -0.69472,-0.32251 -1.34788,-0.66243 -2.05324,-0.97452 z M 393.1055,407.32778 a 23.077461,22.669278 0 0 1 -2.97363,-0.18343 c -15.77084,-1.94997 -18.6648,-19.48569 -18.6648,-19.48569 a 20.191449,19.834314 0 0 1 1.03457,-6.88703 20.368452,20.008184 0 0 1 3.36657,-6.12981 c 6.53755,-8.45621 18.49932,-12.89774 23.28012,-12.89774 h 0.60534 c 1.62842,0.0609 3.1356,0.5129 4.5215,1.35531 a 54.888174,53.917342 0 0 0 -2.47181,9.47771 76.865566,75.506014 0 0 0 -0.98855,12.37438 75.822144,74.481044 0 0 0 0.98855,12.38222 56.247546,55.252669 0 0 0 1.98418,8.065 33.968362,33.367549 0 0 1 -10.70946,1.88128 z m 0,0" fill="#ffffff" fill-opacity="1" fill-rule="nonzero" />
  <path d="m 524.73622,350.09299 v -37.99772 a 43.246782,42.481858 0 0 0 -0.84341,-8.21107 43.165364,42.401877 0 0 0 -2.45413,-7.89198 42.872425,42.114122 0 0 0 -1.80541,-3.73301 42.698964,41.943728 0 0 0 -4.67285,-6.85919 42.975971,42.215836 0 0 0 -12.92287,-10.42271 42.872425,42.114122 0 0 0 -3.79934,-1.77262 43.51317,42.743534 0 0 0 -3.95864,-1.3953 42.421073,41.67075 0 0 0 -4.07988,-1.01194 43.246782,42.481858 0 0 0 -8.3589,-0.82849 H 462.07681 A 165.40262,162.47705 0 0 0 436.924,247.10758 165.52919,162.60139 0 0 0 407.52846,229.80829 v 133.28937 a 7.8429378,7.7042161 0 0 1 3.03114,-1.19796 7.886303,7.7468146 0 0 1 3.26746,0.10434 c 11.31483,2.69065 17.67272,7.67901 21.2331,12.66736 a 24.628878,24.193256 0 0 1 3.16304,6.17764 24.587283,24.152396 0 0 1 1.26909,6.79835 29.201713,28.685209 0 0 1 -1.98419,6.09851 c -4.69851,8.3884 -10.90773,11.77106 -16.64965,12.8334 -4.53919,0.77113 -8.99876,0.44512 -13.37246,-0.97366 v 48.53342 h 2.14438 a 57.438765,56.42282 0 0 0 -2.15412,12.34482 v 4.55021 c 2.63112,1.90127 30.92659,1.80305 30.92659,-0.29211 a 53.792534,52.841082 0 0 0 -1.5585,-11.69281 98.894296,97.145107 0 0 1 13.25033,5.50563 l 4.8817,7.90241 h 8.32085 a 99.412911,97.654548 0 0 1 11.37412,9.46033 c 0.48676,0.47553 0.99209,0.97453 1.43813,1.45007 a 96.759654,95.048224 0 0 1 3.54004,3.74258 c 0.45578,0.50597 0.92306,1.02235 1.37885,1.54832 1.49742,1.75262 2.97716,3.53566 4.34539,5.39608 3.37187,-33.98914 -8.18191,-49.19935 -8.18191,-49.19935 a 105.83364,103.96171 0 0 1 -7.50928,-8.33711 l 21.40301,-18.23904 13.59637,11.12425 31.87798,-21.43132 v -40.38413 z m -18.10725,-40.53017 c -9.91917,31.4967 -25.13422,39.18529 -25.13422,39.18529 -20.07463,13.04377 -39.44479,8.14323 -49.3312,3.97294 a 8.2190659,8.0736917 0 0 1 -1.36914,-0.73721 8.3234969,8.1762755 0 0 1 -1.20979,-0.97368 8.5102334,8.3597092 0 0 1 -1.00269,-1.17536 8.2571213,8.1110739 0 0 1 -0.76467,-1.34142 8.2748213,8.128461 0 0 1 -0.49737,-1.45355 8.0712696,7.9285096 0 0 1 -0.21417,-1.52138 c -0.0248,-0.51291 0,-1.02236 0.0725,-1.5318 a 8.7792757,8.6239928 0 0 1 0.36288,-1.49442 c 10.50238,-30.92292 19.22146,-35.07235 19.22146,-35.07235 20.03305,-17.3497 43.42025,-12.24572 54.86695,-8.07631 a 8.3544721,8.2067028 0 0 1 3.75063,2.79498 c 0.31862,0.41816 0.59119,0.86675 0.81954,1.33532 0.23188,0.47207 0.41506,0.96064 0.54959,1.46662 a 7.9650687,7.8241871 0 0 1 0.2593,1.53875 8.1279101,7.9841481 0 0 1 -0.0417,1.55875 c -0.0619,0.519 -0.177,1.02844 -0.33895,1.52483 z M 398.19341,184.66446 h 4.03741 l 8.28013,12.47959 h 0.0513 v -12.47871 h 3.04266 v 16.84373 h -3.86482 l -8.45271,-12.88817 h -0.0488 v 12.88817 h -3.04517 z M 244.14013,337.95247 h 3.30108 l 3.21524,12.09966 h 0.0479 l 3.83737,-12.09966 h 2.97718 l 3.7675,12.09966 h 0.0486 l 3.35418,-12.09966 h 3.09312 l -4.95694,16.80635 h -2.90726 l -3.96482,-12.79255 h -0.0531 l -3.96484,12.79255 h -2.80726 z m 306.85869,0 h 11.32544 v 2.70978 h -8.28013 v 4.12942 h 7.84472 v 2.69935 h -7.84472 v 4.55801 h 8.7191 v 2.70979 h -11.76441 z m 0,0" fill="#ffffff" fill-opacity="1" fill-rule="nonzero" />
  <path d="m 231.34557,344.66562 c 0,-94.91174 78.62054,-172.14168 175.23862,-172.14168 96.62156,0 175.2421,77.22994 175.2421,172.14168 0,68.25471 -40.6661,127.35429 -99.40759,155.17709 l 4.39407,17.65486 a 206.78027,203.12285 0 0 1 3.64002,6.98524 c 63.5825,-28.7391 109.44359,-89.06793 116.55552,-160.40888 l 0.71153,0.70941 20.4729,-20.11687 -20.4729,-20.11075 -0.71243,0.70244 C 597.69447,231.7313 521.86083,157.13985 426.71809,147.81864 l 0.59473,-0.58421 -20.46935,-20.11686 -20.47287,20.11686 0.5779,0.55377 c -95.21089,9.10041 -171.20473,83.55277 -180.74512,176.99181 l -0.22832,-0.22429 -20.47997,20.1099 20.47909,20.11772 0.21859,-0.22431 c 7.25973,71.02277 52.93409,131.04559 116.23956,159.77861 l 6.33664,-25.48687 c -57.68478,-28.21313 -97.4234,-86.70762 -97.4234,-154.18515 z m 0,0" fill="#ffffff" fill-opacity="1" fill-rule="nonzero" />
  <path d="m 659.39279,342.77477 c 0,-136.79461 -113.2916,-248.091932 -252.53868,-248.091932 -139.25066,0 -252.56261,111.338182 -252.56261,248.091932 0,102.67507 63.84179,190.95189 154.58252,228.64621 a 159.02082,156.20814 0 0 1 2.97627,-14.01832 C 227.60553,521.32446 168.55517,438.73929 168.55517,342.77477 c 0,-129.06866 106.90627,-234.08403 238.29894,-234.08403 131.39264,0 238.29537,105.05623 238.29537,234.08403 0,95.47594 -58.51405,177.72206 -142.14108,214.10193 a 150.4398,147.7789 0 0 1 3.07362,14.00791 C 596.1351,532.97989 659.39191,445.0734 659.39191,342.77477 Z m 0,0" fill="#ffffff" fill-opacity="1" fill-rule="nonzero" />
  <path d="m 334.61269,295.27934 v 3.65391 a 44.530044,43.742421 0 0 1 16.21334,2.82191 44.376938,43.592023 0 0 1 7.43228,3.56262 44.199937,43.418152 0 0 1 6.6305,4.84924 l 0.21063,0.31298 0.55313,0.21299 c 0.83367,0.56423 8.34207,6.34367 17.38951,32.95112 a 4.6020397,4.5206414 0 0 1 0.25223,1.68483 4.5188489,4.4389221 0 0 1 -0.11419,0.84849 4.6746102,4.5919284 0 0 1 -2.69927,3.17486 51.180877,50.275619 0 0 1 -20.05515,4.13987 45.806224,44.99603 0 0 1 -13.44416,-2.01081 45.8372,45.026458 0 0 1 -12.26265,-5.78295 l -0.13807,-0.0982 -0.18675,-0.0887 c -0.14159,-0.0783 -14.11588,-7.71553 -23.30756,-37.01885 a 4.6241649,4.5423752 0 0 1 -0.22125,-1.71176 4.9294924,4.8423024 0 0 1 0.13808,-0.85544 c 0.0761,-0.27818 0.177,-0.55029 0.30089,-0.81198 0.12832,-0.26079 0.27701,-0.50944 0.44958,-0.74329 0.17701,-0.23473 0.36994,-0.45206 0.58409,-0.64853 a 4.6772654,4.5945365 0 0 1 1.48684,-0.92066 60.635413,59.562929 0 0 1 20.82512,-3.84776 v -3.66346 m 0,0 a 64.175441,63.040344 0 0 0 -22.12519,4.0712 8.460673,8.3110252 0 0 0 -3.72589,2.808 8.4058025,8.2571254 0 0 0 -1.6116,4.33026 8.4376627,8.288422 0 0 0 0.37701,3.07317 c 9.91828,31.4967 25.14307,39.18615 25.14307,39.18615 a 49.343601,48.470839 0 0 0 13.2397,6.26542 49.3082,48.436064 0 0 0 14.53094,2.17946 c 7.48453,-0.0537 14.66105,-1.54484 21.53048,-4.47194 a 8.3907574,8.2423463 0 0 0 1.37176,-0.73721 8.4836832,8.3336284 0 0 0 2.20986,-2.14992 8.6677648,8.5144542 0 0 0 0.76377,-1.34055 c 0.21063,-0.46945 0.37701,-0.95455 0.49383,-1.45356 a 8.3925274,8.2440851 0 0 0 -0.22745,-4.54671 C 376.11688,311.57974 367.4093,307.42945 367.4093,307.42945 a 47.999274,47.15029 0 0 0 -7.17389,-5.23612 48.197515,47.345024 0 0 0 -16.64875,-6.18109 48.073616,47.223315 0 0 0 -8.90584,-0.73288 z m 116.16078,42.87655 c 0.20356,0.14606 0.43188,0.21734 0.6841,0.21386 0.37348,0 0.67793,-0.1391 0.92042,-0.4173 l 9.51383,-11.23379 c 1.8833,0.34948 3.77457,0.6755 5.6729,0.97369 2.37803,0.39121 4.77018,0.74416 7.16944,1.06322 2.39927,0.31297 4.79852,0.5842 7.21813,0.80849 1.2107,0.10521 2.42049,0.21387 3.6303,0.29212 l 1.83549,0.0982 c 0.6151,0 1.23018,0.0583 1.85675,0.0678 0.29384,0.003 0.55313,-0.0878 0.78147,-0.27123 0.22746,-0.18343 0.36639,-0.4173 0.41773,-0.70332 a 1.2036104,1.1823216 0 0 0 -0.15931,-0.80153 1.1806002,1.1597184 0 0 0 -0.64605,-0.51292 57.906049,56.881838 0 0 0 -1.77356,-0.5364 l -1.76649,-0.499 a 170.24095,167.22982 0 0 0 -10.62008,-2.46203 222.72103,218.78166 0 0 0 -7.12165,-1.3075 244.06741,239.75047 0 0 0 -5.8322,-0.9163 c -0.32747,-0.77807 -0.65313,-1.55875 -0.99121,-2.3264 a 125.5401,123.31962 0 0 0 -1.59744,-3.58606 c -0.55755,-1.18841 -1.10005,-2.37769 -1.68769,-3.55567 a 72.637887,71.353108 0 0 0 -0.89121,-1.77349 l -0.45668,-0.87544 c -0.1593,-0.30253 -0.32479,-0.59376 -0.48409,-0.88673 a 1.1894502,1.1684119 0 0 0 -0.62836,-0.52943 1.1637851,1.1432007 0 0 0 -0.83012,-0.006 1.1381198,1.1179894 0 0 0 -0.62926,0.53031 c -0.14158,0.25123 -0.18319,0.519 -0.12388,0.80501 l 0.44515,1.94911 c 0.15931,0.64159 0.31862,1.28316 0.48676,1.9456 0.33631,1.26667 0.69208,2.53331 1.0691,3.7904 0.377,1.2562 0.75313,2.49504 1.16111,3.74169 0.27703,0.84937 0.55757,1.70481 0.84342,2.55416 l -7.80577,12.82907 a 1.15051,1.1301603 0 0 0 -0.13097,0.83197 c 0.0655,0.29558 0.22124,0.53029 0.46905,0.70678 z m 0,0" fill="#ffffff" fill-opacity="1" fill-rule="nonzero" />
  <path d="m 532.96732,591.44446 h -3.40753 v 8.80096 h -2.81397 v -8.80096 h -3.40753 v -2.11047 h 9.62903 z m 12.09182,8.80096 h -2.7993 v -7.30604 l -2.02254,4.74123 h -1.94193 l -2.02253,-4.74123 v 7.30604 h -2.65275 v -10.91143 h 3.2683 l 2.45489,5.47404 2.44756,-5.47404 h 3.2683 z" transform="scale(1.0012015,0.99879991)" font-weight="bold" font-size="15.0078px" fill="#ffffff" stroke-width="1.25065" fill-opacity="1" fill-rule="nonzero"/></svg>
