<?xml version="1.0" encoding="UTF-8"?><svg xmlns="http://www.w3.org/2000/svg" viewBox="0 0 864 864" version="1.2" baseProfile="tiny-ps"><title>DM-BIMI</title><defs></defs><rect x="-33.81" y="-24.81" width="931.63" height="931.63"></rect><path d="M387.57,499.19s-29.06,42-18.73,84.62c0,0-1-13.4,5.23-21.58,0,0,10.66,18.85,5.65,33s3.71,31.25,3.71,31.25-3.52-12.4,5.2-29.26c8.37-16.2,35.69,57.69,37.85,63.6v.37l.07-.18.07.18v-.37c.11-.3.3-.82.54-1.45V515.82l-.61.26Z"></path><path d="M434.6,418.38h0c-.72,0-1.44,0-2.16,0v12.71A57.89,57.89,0,0,1,434.6,418.38Z"></path><polygon points="432.43 454.46 432.43 465.24 434.1 465.24 432.43 454.46"></polygon><path d="M516.45,288.59c-.6-.19-1.19-.38-1.79-.55l-1.78-.51c-1.18-.32-2.37-.63-3.56-.92-2.38-.59-4.76-1.12-7.15-1.61s-4.78-.93-7.18-1.34q-2.94-.51-5.88-.94c-.33-.8-.66-1.6-1-2.39-.52-1.23-1.05-2.46-1.61-3.68s-1.11-2.44-1.7-3.65c-.29-.61-.59-1.21-.9-1.82l-.46-.9c-.16-.31-.33-.61-.49-.91a1.22,1.22,0,0,0-1.47-.55,1.2,1.2,0,0,0-.76,1.37l.45,2c.16.66.32,1.32.49,2,.34,1.3.7,2.6,1.08,3.89s.77,2.56,1.17,3.84c.28.87.56,1.75.85,2.62l-7.87,13.17a1.21,1.21,0,0,0,.34,1.6,1.18,1.18,0,0,0,.69.22,1.22,1.22,0,0,0,.93-.43l9.59-11.53q2.85.54,5.72,1c2.41.4,4.81.76,7.23,1.09s4.84.6,7.28.83c1.22.11,2.44.22,3.66.3l1.85.1c.62,0,1.24.06,1.87.07a1.21,1.21,0,0,0,1.21-1A1.23,1.23,0,0,0,516.45,288.59Z"></path><path d="M434.09,334.64a80,80,0,0,1,1,12.7,77.79,77.79,0,0,1-1,12.71,60.62,60.62,0,0,1-1.67,7.06v1.41a27.92,27.92,0,0,0,13.48,1c5.77-1.1,12-4.57,16.79-13.18a29.66,29.66,0,0,0,2-6.26,25,25,0,0,0-4.47-13.32c-3.59-5.16-10-10.28-21.41-13a8,8,0,0,0-6.35,1.12v2.76A63.7,63.7,0,0,1,434.09,334.64Z"></path><path d="M525,295a43.2,43.2,0,0,0,3.18-5.41c4.28-8.88,4.43-17.59.41-24.55s-11.64-11.19-21.46-11.91a45.62,45.62,0,0,0-12.38.91c-12.84-.61-25,.09-36.2,2.66l.35,21.64a44,44,0,0,0-2.17,3.89c-4.29,8.87-4.43,17.58-.42,24.54,4.56,7.88,13.78,12,24.53,12A49.06,49.06,0,0,0,495,316.49a205.41,205.41,0,0,0,22.7,2A80.73,80.73,0,0,0,525,295Zm-20.73,11.37c-17.23,9.95-36.54,8.86-43.06-2.43-3.05-5.28-2.83-12.12.61-19.25,3.62-7.5,10.3-14.33,18.82-19.25a47.83,47.83,0,0,1,23.46-6.77c.88,0,1.75,0,2.61.1,7.9.58,13.93,3.81,17,9.1s2.84,12.12-.61,19.26C519.44,294.58,512.76,301.42,504.25,306.33Z"></path><path d="M511.27,483.41,506,462.7l-6.36,2.5c-2-2.74-3.22-4.23-3.22-4.23l-3.78,1.38c3.05-8.72-3.07-13.22-3.07-13.22l-4.84,16.11H469.11l1.24-10.79q-10.11-6.12-20.2,0L452,465.24h-6.55l1.19-10.79q-9.74-6.12-19.46,0h0l1.75,10.78h0L428,476.68q-.87,11-.86,22.09V663.69l5.15,39.63h0l3.18,2c2.85-6.55,22-71.5,42-93.51,2,8.93.08,14.65.08,14.65s.5-.85,1.21-2.27a15.6,15.6,0,0,1-.5,2.27s5.95-9.85,6.23-20.78c4-2.4,7.44-2.13,9.93,1.92,15.49,25.23,9.23,43.78,9.23,43.78s15.48-25.6,6.59-46.74,10-49.35,10-49.35c11,12.25,9.29,32.28,9.29,32.28C541.22,547.23,524.87,507.32,511.27,483.41Z"></path><path d="M435.11,347.34a80,80,0,0,0-1-12.7,63.7,63.7,0,0,0-1.66-7v39.49a60.62,60.62,0,0,0,1.67-7.06A77.79,77.79,0,0,0,435.11,347.34Z"></path><path d="M431.75,325.33c.27.76.45,1.53.68,2.29v-2.76c-.17.11-.36.19-.53.32Z"></path><path d="M432.06,368.41l.37.11v-1.41C432.3,367.54,432.21,368,432.06,368.41Z"></path><path d="M368.38,447.26l3,15.52,6.4,2.46h10.6l-1.74-10.79a16.57,16.57,0,0,1,19.19,0l-1.17,10.79h7.62l-1.68-10.79a15.51,15.51,0,0,1,18.5,0l-1.13,10.79h4.49V703c0-9.11-.11-9.11-.11-9.11v8.83c-2.73-6.61-29.22-70.14-48.31-91.59l-.34-.28a40.54,40.54,0,0,0-.24,15.57c-4.87-5.89-5.55-20.78-5.55-20.78a8.52,8.52,0,0,0-4.43-1.53c-1.93,0-3.63,1.08-5,3.45-14.72,25.23-8.77,43.78-8.77,43.78s-14.72-25.6-6.26-46.74-9.54-49.35-9.54-49.35c-10.48,12.25-8.83,32.28-8.83,32.28-8.65-31.67-.93-63.09,9-86.7l9.32-38.17,6.13,2.54h4c1.91-2.76,3.08-4.27,3.08-4.27l.84.32c-2.93-8.75.9-14,.9-14m0-3.76a3.77,3.77,0,0,0-3,1.56c-.18.25-4,5.68-2.25,14.37-.35.48-.85,1.16-1.48,2.05h-1.32l-5.44-2.25a3.76,3.76,0,0,0-5.09,2.58l-9.25,37.87a166.79,166.79,0,0,0-11.65,41,118,118,0,0,0,2.55,47.89,3.77,3.77,0,0,0,3.63,2.77,3.66,3.66,0,0,0,.65-.06,3.76,3.76,0,0,0,3.1-4c0-.16-1-14,4.75-24.83,4.45,8.69,12,26.78,6.38,40.81-9,22.58,5.85,48.9,6.49,50a3.76,3.76,0,0,0,3.26,1.89,3.71,3.71,0,0,0,1.52-.32,3.76,3.76,0,0,0,2.06-4.59c-.05-.15-5.15-17.44,8.43-40.73.93-1.59,1.57-1.59,1.77-1.59a2.66,2.66,0,0,1,.83.16c.41,4.74,1.79,15.39,6.26,20.78a3.75,3.75,0,0,0,4.52,1,3.79,3.79,0,0,0,2.06-4.15,36,36,0,0,1-.55-5.18c17.92,25.24,39.63,77.27,42.27,83.68l.06.13a3.81,3.81,0,0,0,1.2,1.66,3.75,3.75,0,0,0,2.33.81,3.55,3.55,0,0,0,.86-.1c2.9-.68,2.9-3.46,2.9-4.51V689h0V465.24a3.76,3.76,0,0,0-3.76-3.76h-.32l.7-6.63a3.75,3.75,0,0,0-1.66-3.53,19.22,19.22,0,0,0-22.65,0,3.55,3.55,0,0,0-.31.23,4.06,4.06,0,0,0-.36-.26,20.28,20.28,0,0,0-23.24,0,3.75,3.75,0,0,0-1.69,3.76l1,6.43h-5.48l-3.8-1.46-2.57-13.46a3.76,3.76,0,0,0-3.7-3.06Z"></path><path d="M379.72,595.21c5-14.13-5.65-33-5.65-33-6.21,8.18-5.23,21.58-5.23,21.58-10.33-42.66,18.73-84.62,18.73-84.62l39,16.89.61-.26V659.35c-.24.63-.43,1.15-.54,1.45l2.46,2.89s-2.48-2.58-2.53-2.7a1.52,1.52,0,0,1-.07.18v-.37c-2.16-5.91-29.48-79.8-37.85-63.6"></path><polygon points="432.43 454.46 432.43 454.45 432.43 454.45 432.43 454.46"></polygon><path d="M432.21,435.42c0,.11.09.2.22.3v-4.67C432.33,432.44,432.25,433.88,432.21,435.42Z"></path><path d="M428.67,191.89V320.53a16.9,16.9,0,0,0-3.7-.75c-.31,0-.64,0-1,0-6.25,0-19.27,5.24-26.46,14.73a24.13,24.13,0,0,0-5.2,15.76v.24l0,.23c1.17,7.17,7.28,21.22,22.06,23.1a25.82,25.82,0,0,0,3.44.22,37.37,37.37,0,0,0,10.8-1.75v42.28l-1.08,0h-5l1.49,4.86a56.25,56.25,0,0,1,2.14,13.36,99.7,99.7,0,0,1-11.85.56,102,102,0,0,1-11.81-.55,51.88,51.88,0,0,1,1.47-9l1.73-6.64-6.42,2.08h0l-.11,0A101.36,101.36,0,0,0,386,424.54l-1,.48-.58,1-4.47,7.37h-9l-1,.72c-2.27,1.64-4.52,3.41-6.69,5.26a104,104,0,0,0-10.21,10c-.5-24.53,7-36.69,8-38.18,2.59-2.66,5.14-5.55,7.59-8.6l2.27-2.82-2.74-2.38-21.58-18.72-2.41-2.1-2.46,2.05-11.52,9.6L302,368.94V330.61l11.29-17,.63-.94V272.48A39.53,39.53,0,0,1,353.39,233h15.84l1.12-1.25c13.47-15,33.08-28.4,58.32-39.86m1.69-4.88c-28.5,12.53-48.88,26.72-62.81,42.23H353.39a43.37,43.37,0,0,0-43.25,43.24v39l-11.92,18v41.45l32.14,22,13.71-11.42,21.58,18.72q-3.6,4.48-7.57,8.56s-11.65,15.61-8.25,50.5a99.82,99.82,0,0,1,15.82-17.1q3.11-2.65,6.44-5.07H382l5.57-9.18a98.05,98.05,0,0,1,12.76-5h0a54.81,54.81,0,0,0-1.72,12.52c0,1.13,7.85,1.69,15.7,1.69s15.7-.56,15.7-1.69a62.67,62.67,0,0,0-2.4-17.09h0c.91,0,1.81,0,2.72,0,.7,0,1.38,0,2.07,0V368.52l-.37-.11c.15-.44.24-.87.37-1.3V327.62c-.23-.76-.41-1.53-.68-2.29l.15-.15c.17-.13.36-.21.53-.32V188c-.7-.33-1.36-.68-2.07-1ZM417.87,370.26a23.66,23.66,0,0,1-3-.19c-15.9-2-18.82-20-18.82-20a20.62,20.62,0,0,1,4.44-13.36c6.59-8.68,18.65-13.24,23.47-13.24l.61,0a9.39,9.39,0,0,1,4.56,1.39,55.2,55.2,0,0,0-2.49,9.73,77.68,77.68,0,0,0-1,12.7,76.69,76.69,0,0,0,1,12.71,56.67,56.67,0,0,0,2,8.28,34.48,34.48,0,0,1-10.8,1.93Z"></path><path d="M430.08,325.65a39.12,39.12,0,0,1,3.33,10.54,60.62,60.62,0,0,1,.91,10.55,59.62,59.62,0,0,1-.9,10.54,38.45,38.45,0,0,1-3.34,10.54,38.42,38.42,0,0,1-3.33-10.54,58.71,58.71,0,0,1-.91-10.54,59.68,59.68,0,0,1,.92-10.55A38.73,38.73,0,0,1,430.08,325.65Z"></path><path d="M550.59,311.51v-39a43.37,43.37,0,0,0-43.25-43.24H487.41a167.25,167.25,0,0,0-55-41.22V324.86a8,8,0,0,1,6.35-1.12c11.41,2.76,17.82,7.88,21.41,13a25,25,0,0,1,4.47,13.32,29.66,29.66,0,0,1-2,6.26c-4.74,8.61-11,12.08-16.79,13.17a27.82,27.82,0,0,1-13.48-1v49.82c.72,0,1.44,0,2.16,0h0a57.89,57.89,0,0,0-2.17,12.67v4.67c2.65,1.95,31.18,1.85,31.18-.3a54.48,54.48,0,0,0-1.57-12h0A99.34,99.34,0,0,1,475.33,429l4.92,8.11h8.39a100.3,100.3,0,0,1,11.47,9.71c.49.49,1,1,1.45,1.49,1.23,1.25,2.41,2.53,3.57,3.84.46.52.93,1.05,1.39,1.59,1.51,1.8,3,3.63,4.38,5.54,3.4-34.89-8.25-50.5-8.25-50.5q-4-4.06-7.57-8.56l21.58-18.72,13.71,11.42,32.14-22V329.47Zm-18.26-41.6c-10,32.33-25.34,40.22-25.34,40.22-20.24,13.39-39.77,8.36-49.74,4.08a8.47,8.47,0,0,1-4.66-10.5c10.59-31.74,19.38-36,19.38-36,20.2-17.81,43.78-12.57,55.32-8.29A8.46,8.46,0,0,1,532.33,269.91Z"></path><path d="M423,141.71h4.07l8.35,12.81h.05V141.71h3.07V159h-3.9l-8.52-13.23h-.05V159H423Z"></path><path d="M267.67,299.05H271l3.24,12.42h.05l3.87-12.42h3l3.8,12.42h.05l3.38-12.42h3.12l-5,17.25h-2.93l-4-13.13h-.05l-4,13.13h-2.83Z"></path><path d="M577.07,299.05h11.42v2.78h-8.35v4.24h7.91v2.77h-7.91v4.68h8.79v2.78H577.07Z"></path><path d="M281,725.94h13.55a19.37,19.37,0,0,1,6.41,1,12.7,12.7,0,0,1,8.25,8.54,17.11,17.11,0,0,1,.39,7.6,18.26,18.26,0,0,1-2.77,7.65,20.48,20.48,0,0,1-5,5.34,21.49,21.49,0,0,1-6.29,3.16,21.77,21.77,0,0,1-6.48,1H276.2Zm6.65,28.85a22.43,22.43,0,0,0,5.49-.66,15.26,15.26,0,0,0,4.71-2,12,12,0,0,0,3.49-3.59,13.19,13.19,0,0,0,1.85-5.37,12.71,12.71,0,0,0-.22-5.34,7.8,7.8,0,0,0-2.18-3.62,9.68,9.68,0,0,0-3.79-2,18.52,18.52,0,0,0-5.08-.65h-5.58l-3.26,23.31Z"></path><path d="M317.86,725.94h22.78l-.78,5.54H323.2L322,739.93h15.78l-.78,5.53H321.26L320,754.79h17.53l-.78,5.53H313.06Z"></path><path d="M363.36,733.32a4.87,4.87,0,0,0-2.33-2.06,8.1,8.1,0,0,0-3.3-.66,9.36,9.36,0,0,0-2.11.25,6.49,6.49,0,0,0-1.92.77,5,5,0,0,0-1.48,1.39,4.18,4.18,0,0,0-.75,2,2.78,2.78,0,0,0,.82,2.67,9.73,9.73,0,0,0,2.8,1.61c1.14.45,2.39.89,3.73,1.31a14.15,14.15,0,0,1,3.7,1.75,7.74,7.74,0,0,1,2.62,3,8.2,8.2,0,0,1,.51,4.9,12,12,0,0,1-1.7,4.83,12.18,12.18,0,0,1-3.23,3.43,14.33,14.33,0,0,1-4.3,2,17.89,17.89,0,0,1-4.9.68,16.93,16.93,0,0,1-6-1.07,9.89,9.89,0,0,1-4.61-3.59l5.25-4.47a6.58,6.58,0,0,0,2.59,2.64,7.36,7.36,0,0,0,3.72.95,8.56,8.56,0,0,0,2.16-.29,7.7,7.7,0,0,0,2-.87,6.08,6.08,0,0,0,1.63-1.49,4.59,4.59,0,0,0,.87-2.06,3.21,3.21,0,0,0-.83-2.91,8.8,8.8,0,0,0-2.79-1.73c-1.15-.47-2.39-.91-3.74-1.33a14.34,14.34,0,0,1-3.66-1.73,7.87,7.87,0,0,1-2.63-2.91,8,8,0,0,1-.53-4.88,10.5,10.5,0,0,1,1.75-4.61,12,12,0,0,1,3.32-3.23,14.83,14.83,0,0,1,4.35-1.92,18.53,18.53,0,0,1,4.76-.63,16.09,16.09,0,0,1,5.17.82,9.56,9.56,0,0,1,4.15,2.72Z"></path><path d="M381.67,731.48H371.13l.78-5.54H399.1l-.77,5.54H387.79l-4,28.84h-6.12Z"></path><path d="M403.13,725.94h6.12l-4.8,34.38h-6.12Z"></path><path d="M416.78,725.94h8.11L438,751.49h.1l3.59-25.55h6.12L443,760.32h-7.77L421.88,734h-.1l-3.69,26.37H412Z"></path><path d="M466.55,725.94h5.3l10,34.38h-7l-2.14-7.86H457.81l-4.17,7.86h-6.85Zm4.76,21.27-3.3-14-7.38,14Z"></path><path d="M492.29,731.48H481.75l.78-5.54h27.19l-.77,5.54H498.41l-4,28.84h-6.12Z"></path><path d="M513.75,725.94h6.12l-4.8,34.38H509Z"></path><path d="M523.13,743.28a22.09,22.09,0,0,1,2.4-7.5,20.42,20.42,0,0,1,4.56-5.76,20.07,20.07,0,0,1,6.27-3.67,21.88,21.88,0,0,1,7.5-1.28,19.05,19.05,0,0,1,7.21,1.19,13.19,13.19,0,0,1,5.27,3.62,13.74,13.74,0,0,1,3,5.73,19,19,0,0,1,.3,7.47,21.92,21.92,0,0,1-2.38,7.34,20.1,20.1,0,0,1-4.57,5.68,21,21,0,0,1-6.31,3.71,22.31,22.31,0,0,1-7.58,1.39,18.77,18.77,0,0,1-7.14-1.29,13.76,13.76,0,0,1-5.22-3.64,14.13,14.13,0,0,1-3-5.66A17.92,17.92,0,0,1,523.13,743.28Zm6.45-.39a14.38,14.38,0,0,0,.13,5.1,9.92,9.92,0,0,0,1.82,4,9.11,9.11,0,0,0,3.35,2.67,10.8,10.8,0,0,0,4.71,1,12.81,12.81,0,0,0,5-1,13.7,13.7,0,0,0,4.13-2.67,14.5,14.5,0,0,0,3-4,16.38,16.38,0,0,0,1.55-5.1,13.46,13.46,0,0,0-.17-4.81,9.72,9.72,0,0,0-1.82-3.91,9,9,0,0,0-3.37-2.62,11.3,11.3,0,0,0-4.74-.95,12.94,12.94,0,0,0-5,.95,13.59,13.59,0,0,0-4.11,2.62,14.54,14.54,0,0,0-4.47,8.72Z"></path><path d="M567.85,725.94H576L589,751.49h.1l3.59-25.55h6.12L594,760.32h-7.77L573,734h-.1l-3.69,26.37H563Z"></path><path d="M279.28,775.37h5.14l6.46,32.33,6.47-32.33h5.14v38.68h-3.37V780.34l-6.86,33.71h-3l-6.91-33.71v33.71h-3.09Z"></path><path d="M341.94,796.81l-8-21.44h3.65l6.19,17,6.24-17h3.37l-8,21.44v17.24h-3.43Z"></path><path d="M382.78,805.43v-2.15H386v2.37c0,3.87,2,5.81,5.2,5.81s5.19-1.94,5.19-5.86c0-3.7-1.55-6.14-6.36-10-5.47-4.37-7.29-7.41-7.29-11.83,0-5.63,3.09-9,8.51-9s8.35,3.38,8.35,9.18v1.55h-3.26v-1.77c0-3.87-1.88-5.86-5.09-5.86s-5.08,2-5.08,5.69c0,3.43,1.65,5.81,6.46,9.67,5.47,4.43,7.19,7.41,7.19,12.11,0,5.86-3.1,9.23-8.62,9.23S382.78,811.24,382.78,805.43Z"></path><path d="M437.1,778.46H430v-3.09h17.63v3.09h-7.13v35.59H437.1Z"></path><path d="M479.15,775.37h15.48v3.09H482.58v13.87h9.89v3.1h-9.89V810.9h12.05v3.15H479.15Z"></path><path d="M526.35,775.37h8.23c6,0,8.57,2.71,8.57,8.79v2.37c0,4.31-1.49,6.91-4.7,7.79v.11c3.37.78,4.7,3.38,4.7,8v7a15.32,15.32,0,0,0,.55,4.64h-3.48a17.35,17.35,0,0,1-.5-4.69v-7.13c0-4.48-1.66-6-5.74-6h-4.21v17.85h-3.42ZM533.92,793c3.92,0,5.8-1.66,5.8-5.86v-2.71c0-4.2-1.49-6-5.25-6h-4.7V793Z"></path><path d="M581.33,796.81l-8-21.44H577l6.19,17,6.24-17h3.37l-8,21.44v17.24h-3.43Z"></path><path d="M346.61,490.35c-63.83-29.48-109.88-91.09-117.2-164l-.22.23-20.65-20.65,20.65-20.64.23.23C239,189.62,315.67,113.2,411.66,103.86l-.58-.57,20.64-20.65,20.64,20.65-.6.6c95.93,9.57,172.39,86.16,181.78,182.13l.72-.72,20.64,20.64-20.64,20.65-.72-.73C626.37,399.09,580.13,461,516,490.51a183.66,183.66,0,0,1,12.65,33.29C613,486.46,672,402,672,304,672,171.56,564.21,63.77,431.73,63.77S191.46,171.56,191.46,304c0,98.46,59.56,183.23,144.52,220.3a175.34,175.34,0,0,1,8.08-23.54Z"></path><path d="M254.77,305.94c0-97.42,79.27-176.69,176.69-176.69s176.69,79.27,176.69,176.69c0,70.06-41,130.72-100.23,159.28l4.43,18.12c1.21,2.24,2.44,4.66,3.67,7.17,64.11-29.5,110.35-91.42,117.52-164.65l.72.73,20.64-20.65L634.26,285.3l-.72.72c-9.39-96-85.85-172.56-181.78-182.13l.6-.6L431.72,82.64l-20.64,20.65.58.57c-96,9.34-172.62,85.76-182.24,181.67l-.23-.23-20.65,20.64,20.65,20.65.22-.23c7.32,72.9,53.37,134.51,117.2,164L353,464.2C294.84,435.24,254.77,375.2,254.77,305.94Z"></path><path d="M686.36,304c0-140.41-114.23-254.65-254.63-254.65S177.08,163.63,177.08,304c0,105.39,64.37,196,155.86,234.69.79-4.93,1.81-9.74,3-14.39C251,487.27,191.46,402.5,191.46,304c0-132.48,107.79-240.27,240.27-240.27S672,171.56,672,304c0,98-59,182.42-143.32,219.76,1.24,4.65,2.29,9.46,3.1,14.38C622.58,499.23,686.36,409,686.36,304Z"></path><path d="M358.89,255.25V259a44.93,44.93,0,0,1,30.53,11.53l.21.32.56.22c.84.58,8.41,6.51,17.53,33.82a4.7,4.7,0,0,1-2.58,5.86A52.12,52.12,0,0,1,384.92,315,46.41,46.41,0,0,1,359,307l-.14-.1-.19-.09c-.14-.08-14.23-7.92-23.5-38a4.71,4.71,0,0,1,2.76-5.84,61.59,61.59,0,0,1,21-3.95v-3.76m0,0a65.16,65.16,0,0,0-22.31,4.18,8.48,8.48,0,0,0-5,10.48c10,32.33,25.35,40.22,25.35,40.22a50,50,0,0,0,28,8.67,55.61,55.61,0,0,0,21.71-4.59,8.46,8.46,0,0,0,4.65-10.5c-10.59-31.74-19.37-36-19.37-36a48.71,48.71,0,0,0-33-12.47Z"></path><polygon points="476.64 267.14 476.64 267.14 476.65 267.14 476.64 267.14"></polygon><path d="M476.05,299.27a1.18,1.18,0,0,0,.69.22,1.22,1.22,0,0,0,.93-.43l9.59-11.53q2.85.54,5.72,1,3.6.6,7.23,1.09c2.42.32,4.84.6,7.28.83,1.22.11,2.44.22,3.66.3l1.85.1c.62,0,1.24.06,1.87.07a1.21,1.21,0,0,0,1.21-1,1.23,1.23,0,0,0-.81-1.35c-.6-.19-1.19-.38-1.79-.55l-1.78-.51c-1.18-.32-2.37-.63-3.56-.92-2.38-.59-4.76-1.12-7.15-1.61s-4.78-.93-7.18-1.34q-2.94-.51-5.88-.94c-.33-.8-.66-1.6-1-2.39-.52-1.23-1.05-2.46-1.61-3.68s-1.11-2.44-1.7-3.65c-.29-.61-.59-1.21-.9-1.82l-.46-.9c-.16-.31-.33-.61-.49-.91a1.22,1.22,0,0,0-1.47-.55,1.2,1.2,0,0,0-.76,1.37l.45,2c.16.66.32,1.32.49,2,.34,1.3.7,2.6,1.08,3.89s.76,2.56,1.17,3.84c.28.87.56,1.75.85,2.62l-7.87,13.17A1.21,1.21,0,0,0,476.05,299.27Z"></path></svg>