<?xml version="1.0" encoding="UTF-8"?><svg xmlns="http://www.w3.org/2000/svg" xmlns:xlink="http://www.w3.org/1999/xlink" width="1080" zoomAndPan="magnify" viewBox="0 0 810 809.999993" height="1080" preserveAspectRatio="xMidYMid meet" version="1.2" baseProfile="tiny-ps"><title>DM-BIMI</title><defs><clipPath id="68070935d6"><path d="M 207 709.449219 L 603 709.449219 L 603 810 L 207 810 Z M 207 709.449219 "></path></clipPath><clipPath id="22fe76ff31"><path d="M 260.585938 709.574219 C 300.335938 709.726562 310.988281 710.175781 325.238281 711 C 345.488281 712.125 378.5625 716.023438 398.960938 716.324219 C 413.4375 716.550781 423.789062 714.824219 435.9375 714.75 C 447.9375 714.675781 459.414062 715.125 471.488281 715.648438 C 484.011719 716.101562 497.289062 716.699219 509.8125 717.601562 C 521.886719 718.5 532.914062 718.949219 545.4375 720.976562 C 559.835938 723.226562 581.585938 721.574219 591.1875 731.101562 C 601.164062 741 603.789062 765.75 602.511719 780.976562 C 601.386719 794.476562 594.863281 807.75 587.0625 818.101562 C 579.414062 828.375 568.238281 837.976562 556.238281 843 C 543.5625 848.175781 527.511719 847.050781 512.585938 847.574219 C 496.988281 848.101562 482.585938 846.976562 464.511719 845.925781 C 441.039062 844.574219 405.5625 840.675781 383.511719 839.476562 C 368.363281 838.574219 357.9375 838.125 345.039062 838.125 C 331.835938 838.199219 317.960938 837.898438 305.136719 839.773438 C 292.761719 841.574219 270.261719 850.574219 269.4375 849 C 268.988281 848.101562 278.136719 842.175781 278.0625 842.101562 C 277.988281 842.101562 271.238281 848.023438 267.335938 850.050781 C 263.4375 852.074219 258.9375 853.5 254.585938 854.175781 C 250.238281 854.773438 245.585938 854.773438 241.238281 853.949219 C 236.960938 853.199219 232.539062 851.625 228.636719 849.523438 C 224.8125 847.425781 221.136719 844.574219 218.136719 841.351562 C 215.136719 838.125 212.585938 834.148438 210.789062 830.175781 C 208.988281 826.199219 207.789062 821.625 207.414062 817.273438 C 206.960938 812.851562 207.261719 808.199219 208.3125 803.925781 C 209.289062 799.648438 211.085938 795.300781 213.414062 791.625 C 215.738281 787.875 218.8125 784.351562 222.1875 781.5 C 225.5625 778.726562 229.613281 776.398438 233.738281 774.824219 C 237.789062 773.25 242.4375 772.273438 246.789062 772.125 C 251.210938 771.898438 255.863281 772.5 260.0625 773.699219 C 264.261719 774.976562 268.460938 777 272.0625 779.476562 C 275.738281 782.023438 279.039062 785.25 281.664062 788.773438 C 284.289062 792.375 286.386719 796.5 287.738281 800.699219 C 289.085938 804.898438 289.835938 809.476562 289.761719 813.898438 C 289.6875 818.324219 288.863281 822.898438 287.4375 827.023438 C 285.9375 831.226562 283.6875 835.273438 280.988281 838.726562 C 278.289062 842.25 274.835938 845.398438 271.164062 847.800781 C 267.488281 850.199219 263.210938 852.148438 259.011719 853.273438 C 254.738281 854.398438 250.085938 854.851562 245.664062 854.550781 C 241.3125 854.25 236.738281 853.125 232.6875 851.476562 C 228.636719 849.824219 224.664062 847.351562 221.363281 844.425781 C 218.0625 841.574219 215.0625 837.976562 212.8125 834.148438 C 210.636719 830.324219 208.914062 825.976562 208.085938 821.699219 C 207.1875 817.351562 206.960938 812.699219 207.488281 808.351562 C 208.011719 804 209.363281 799.5 211.238281 795.523438 C 213.1875 791.550781 214.988281 788.101562 218.886719 784.574219 C 224.960938 779.101562 236.511719 773.25 246.863281 769.273438 C 258.261719 764.773438 272.289062 762 284.960938 759.824219 C 297.113281 757.800781 308.511719 757.125 321.335938 756.601562 C 335.664062 756 349.460938 756.148438 366.9375 756.898438 C 390.414062 757.875 426.9375 762.148438 449.511719 763.273438 C 465.1875 764.101562 476.4375 762.300781 489.488281 764.398438 C 502.460938 766.425781 516.5625 769.273438 527.585938 775.648438 C 538.460938 781.875 557.0625 797.773438 555.335938 801.75 C 553.6875 805.726562 531.488281 801.226562 519.335938 800.175781 C 506.8125 799.125 494.0625 796.648438 481.238281 795.375 C 468.113281 794.175781 454.613281 793.273438 441.488281 792.898438 C 428.511719 792.523438 419.210938 793.875 403.011719 793.125 C 375.039062 791.773438 314.289062 783 289.011719 781.648438 C 276.335938 780.976562 267.261719 781.949219 260.585938 781.574219 C 256.835938 781.273438 254.738281 781.199219 251.960938 780.523438 C 249.1875 779.773438 246.414062 778.726562 243.863281 777.449219 C 241.3125 776.101562 238.914062 774.375 236.738281 772.5 C 234.5625 770.625 232.613281 768.375 230.960938 765.976562 C 229.386719 763.648438 227.960938 761.023438 226.988281 758.324219 C 225.9375 755.625 225.1875 752.773438 224.886719 749.925781 C 224.511719 747.074219 224.511719 744.074219 224.886719 741.226562 C 225.1875 738.375 225.9375 735.523438 226.988281 732.824219 C 227.960938 730.125 229.386719 727.5 230.960938 725.175781 C 232.613281 722.773438 234.5625 720.523438 236.738281 718.648438 C 238.914062 716.773438 241.3125 715.050781 243.863281 713.699219 C 246.414062 712.425781 249.1875 711.375 251.960938 710.625 C 254.738281 709.949219 260.585938 709.574219 260.585938 709.574219 "></path></clipPath></defs><rect x="-81" width="972" fill="#ffffff" y="-80.999999" height="971.999992" fill-opacity="1"></rect><rect x="-81" width="972" fill="#ffffff" y="-80.999999" height="971.999992" fill-opacity="1"></rect><rect x="-81" width="972" fill="#000000" y="-80.999999" height="971.999992" fill-opacity="1"></rect><path stroke-linecap="round" transform="matrix(1.005208, 0, 0, 1.005208, -29.335483, 0.00002)" fill="none" stroke-linejoin="round" d="M 387.570789 499.189036 C 387.570789 499.189036 358.511203 541.18903 368.840219 583.810787 C 368.840219 583.810787 367.841514 570.411825 374.070789 562.231774 C 374.070789 562.231774 384.730115 581.078922 379.721048 595.23177 C 374.708094 609.380731 383.428302 626.479175 383.428302 626.479175 C 383.428302 626.479175 379.911462 614.078917 388.631669 597.221407 C 396.99825 581.020631 424.320788 654.909223 426.48141 660.819844 L 426.48141 661.189015 L 426.551358 661.010259 L 426.621306 661.189015 L 426.621306 660.819844 C 426.730115 660.520621 426.920529 659.999896 427.161462 659.370362 L 427.161462 515.821158 L 426.551358 516.081521 Z M 387.570789 499.189036 " stroke="#ffffff" stroke-width="3.76" stroke-opacity="1" stroke-miterlimit="4"></path><path fill="#ffffff" d="M 484.597656 485.929688 L 479.300781 465.109375 L 472.90625 467.621094 C 470.894531 464.867188 469.671875 463.371094 469.671875 463.371094 L 465.871094 464.757812 C 468.9375 455.992188 462.785156 451.46875 462.785156 451.46875 L 457.917969 467.664062 L 442.21875 467.664062 L 443.464844 456.816406 C 436.6875 452.714844 429.921875 452.714844 423.160156 456.816406 L 425.019531 467.664062 L 418.433594 467.664062 L 419.628906 456.816406 C 413.105469 452.714844 406.582031 452.714844 400.070312 456.816406 L 401.828125 467.652344 L 400.894531 479.164062 C 400.3125 486.535156 400.023438 493.9375 400.027344 501.367188 L 400.027344 667.148438 L 405.207031 706.984375 L 408.402344 708.992188 C 411.265625 702.410156 430.515625 637.121094 450.621094 614.996094 C 452.632812 623.972656 450.703125 629.722656 450.703125 629.722656 C 450.703125 629.722656 451.203125 628.867188 451.917969 627.441406 C 451.808594 628.214844 451.640625 628.976562 451.414062 629.722656 C 451.414062 629.722656 457.394531 619.820312 457.679688 608.835938 C 461.699219 606.421875 465.15625 606.695312 467.660156 610.765625 C 483.230469 636.125 476.9375 654.773438 476.9375 654.773438 C 476.9375 654.773438 492.5 629.039062 483.5625 607.789062 C 474.625 586.539062 493.613281 558.183594 493.613281 558.183594 C 504.671875 570.496094 502.953125 590.628906 502.953125 590.628906 C 514.703125 550.082031 498.269531 509.960938 484.597656 485.929688 Z M 484.597656 485.929688 " fill-opacity="1" fill-rule="nonzero"></path><path fill="#ffffff" d="M 408.039062 349.148438 C 408.046875 344.867188 407.710938 340.613281 407.035156 336.382812 C 406.613281 334.007812 406.054688 331.660156 405.367188 329.347656 L 405.367188 369.042969 C 406.066406 366.710938 406.628906 364.34375 407.046875 361.945312 C 407.730469 357.707031 408.058594 353.441406 408.039062 349.148438 Z M 408.039062 349.148438 " fill-opacity="1" fill-rule="nonzero"></path><path fill="#606161" d="M 404.664062 327.023438 C 404.933594 327.789062 405.117188 328.5625 405.347656 329.328125 L 405.347656 326.550781 C 405.175781 326.664062 404.984375 326.742188 404.8125 326.875 Z M 404.664062 327.023438 " fill-opacity="1" fill-rule="nonzero"></path><path fill="#606161" d="M 404.976562 370.328125 L 405.347656 370.4375 L 405.347656 369.023438 C 405.214844 369.453125 405.125 369.917969 404.976562 370.328125 Z M 404.976562 370.328125 " fill-opacity="1" fill-rule="nonzero"></path><path fill="#ffffff" d="M 340.964844 449.589844 L 343.980469 465.191406 L 350.414062 467.664062 L 361.066406 467.664062 L 359.316406 456.816406 C 360.019531 456.320312 360.753906 455.878906 361.519531 455.496094 C 362.289062 455.113281 363.082031 454.789062 363.902344 454.527344 C 364.71875 454.265625 365.554688 454.070312 366.402344 453.9375 C 367.25 453.804688 368.105469 453.742188 368.964844 453.742188 C 369.820312 453.742188 370.675781 453.804688 371.523438 453.9375 C 372.375 454.070312 373.207031 454.265625 374.023438 454.527344 C 374.84375 454.789062 375.636719 455.113281 376.40625 455.496094 C 377.171875 455.878906 377.90625 456.320312 378.609375 456.816406 L 377.433594 467.664062 L 385.09375 467.664062 L 383.402344 456.816406 C 384.070312 456.320312 384.773438 455.882812 385.511719 455.496094 C 386.25 455.113281 387.015625 454.792969 387.804688 454.53125 C 388.59375 454.269531 389.398438 454.070312 390.222656 453.9375 C 391.042969 453.808594 391.871094 453.742188 392.703125 453.742188 C 393.53125 453.742188 394.359375 453.808594 395.179688 453.9375 C 396.003906 454.070312 396.808594 454.269531 397.597656 454.53125 C 398.386719 454.792969 399.152344 455.113281 399.890625 455.496094 C 400.628906 455.882812 401.332031 456.320312 402 456.816406 L 400.863281 467.664062 L 405.375 467.664062 L 405.375 706.660156 C 405.375 697.503906 405.265625 697.503906 405.265625 697.503906 L 405.265625 706.378906 C 402.523438 699.734375 375.894531 635.875 356.703125 614.3125 L 356.363281 614.03125 C 355.261719 619.234375 355.179688 624.449219 356.121094 629.683594 C 351.226562 623.761719 350.542969 608.792969 350.542969 608.792969 C 349.207031 607.855469 347.722656 607.34375 346.089844 607.257812 C 344.148438 607.257812 342.441406 608.34375 341.0625 610.722656 C 326.265625 636.085938 332.25 654.734375 332.25 654.734375 C 332.25 654.734375 317.453125 629 325.957031 607.75 C 334.460938 586.5 316.367188 558.140625 316.367188 558.140625 C 305.832031 570.457031 307.488281 590.589844 307.488281 590.589844 C 298.792969 558.753906 306.554688 527.171875 316.535156 503.4375 L 325.90625 465.070312 L 332.066406 467.621094 L 336.089844 467.621094 C 338.007812 464.847656 339.183594 463.332031 339.183594 463.332031 L 340.027344 463.652344 C 337.082031 454.855469 340.933594 449.578125 340.933594 449.578125 M 340.933594 445.800781 C 340.335938 445.808594 339.769531 445.949219 339.238281 446.226562 C 338.707031 446.503906 338.269531 446.882812 337.917969 447.367188 C 337.738281 447.621094 333.898438 453.078125 335.65625 461.8125 C 335.304688 462.296875 334.800781 462.980469 334.167969 463.875 L 332.839844 463.875 L 327.371094 461.613281 C 327.121094 461.507812 326.859375 461.433594 326.59375 461.382812 C 326.324219 461.335938 326.054688 461.316406 325.78125 461.328125 C 325.511719 461.335938 325.242188 461.378906 324.980469 461.445312 C 324.714844 461.515625 324.460938 461.609375 324.21875 461.734375 C 323.976562 461.855469 323.75 462.003906 323.539062 462.175781 C 323.328125 462.347656 323.136719 462.542969 322.96875 462.753906 C 322.796875 462.96875 322.652344 463.195312 322.535156 463.441406 C 322.414062 463.6875 322.320312 463.941406 322.257812 464.207031 L 312.957031 502.273438 C 307.285156 515.507812 303.382812 529.246094 301.246094 543.484375 C 300.023438 551.511719 299.625 559.578125 300.058594 567.6875 C 300.488281 575.796875 301.742188 583.773438 303.8125 591.625 C 303.921875 592.023438 304.089844 592.398438 304.324219 592.742188 C 304.554688 593.085938 304.835938 593.382812 305.164062 593.632812 C 305.496094 593.882812 305.855469 594.078125 306.25 594.210938 C 306.640625 594.34375 307.046875 594.410156 307.460938 594.410156 C 307.679688 594.410156 307.898438 594.390625 308.113281 594.351562 C 308.578125 594.269531 309.007812 594.105469 309.414062 593.863281 C 309.816406 593.621094 310.160156 593.3125 310.449219 592.941406 C 310.738281 592.570312 310.949219 592.160156 311.082031 591.707031 C 311.21875 591.257812 311.265625 590.796875 311.230469 590.328125 C 311.230469 590.167969 310.222656 576.257812 316.003906 565.371094 C 320.476562 574.105469 328.066406 592.289062 322.417969 606.390625 C 313.371094 629.089844 328.296875 655.546875 328.941406 656.652344 C 329.277344 657.238281 329.738281 657.703125 330.324219 658.042969 C 330.910156 658.382812 331.539062 658.550781 332.21875 658.550781 C 332.75 658.554688 333.257812 658.445312 333.746094 658.230469 C 334.171875 658.042969 334.550781 657.78125 334.882812 657.453125 C 335.214844 657.125 335.476562 656.746094 335.667969 656.320312 C 335.859375 655.894531 335.964844 655.449219 335.992188 654.984375 C 336.019531 654.515625 335.960938 654.0625 335.816406 653.617188 C 335.765625 653.464844 330.640625 636.085938 344.289062 612.675781 C 345.226562 611.078125 345.867188 611.078125 346.070312 611.078125 C 346.355469 611.085938 346.632812 611.140625 346.902344 611.238281 C 347.316406 616 348.703125 626.707031 353.195312 632.125 C 353.464844 632.453125 353.777344 632.722656 354.136719 632.945312 C 354.496094 633.164062 354.882812 633.320312 355.292969 633.414062 C 355.707031 633.503906 356.121094 633.523438 356.542969 633.476562 C 356.960938 633.429688 357.359375 633.3125 357.738281 633.128906 C 358.117188 632.945312 358.457031 632.707031 358.757812 632.410156 C 359.054688 632.113281 359.300781 631.777344 359.488281 631.398438 C 359.675781 631.019531 359.796875 630.621094 359.851562 630.207031 C 359.90625 629.789062 359.894531 629.371094 359.8125 628.957031 C 359.5 627.238281 359.316406 625.5 359.257812 623.753906 C 377.269531 649.125 399.09375 701.425781 401.75 707.867188 L 401.808594 708 C 402.054688 708.667969 402.457031 709.222656 403.015625 709.667969 C 403.699219 710.210938 404.480469 710.480469 405.355469 710.480469 C 405.648438 710.484375 405.9375 710.449219 406.222656 710.378906 C 409.136719 709.699219 409.136719 706.902344 409.136719 705.847656 L 409.136719 467.664062 C 409.136719 467.160156 409.039062 466.679688 408.847656 466.214844 C 408.65625 465.753906 408.382812 465.34375 408.027344 464.992188 C 407.675781 464.636719 407.265625 464.363281 406.804688 464.171875 C 406.339844 463.980469 405.859375 463.882812 405.355469 463.882812 L 405.035156 463.882812 L 405.738281 457.21875 C 405.8125 456.519531 405.703125 455.847656 405.402344 455.210938 C 405.101562 454.574219 404.65625 454.058594 404.070312 453.671875 C 403.25 453.070312 402.386719 452.539062 401.480469 452.078125 C 400.574219 451.617188 399.640625 451.226562 398.671875 450.910156 C 397.707031 450.597656 396.722656 450.359375 395.71875 450.199219 C 394.714844 450.039062 393.703125 449.960938 392.6875 449.960938 C 391.667969 449.960938 390.660156 450.039062 389.65625 450.199219 C 388.652344 450.359375 387.664062 450.597656 386.699219 450.910156 C 385.734375 451.226562 384.796875 451.617188 383.890625 452.078125 C 382.988281 452.539062 382.125 453.070312 381.300781 453.671875 C 381.195312 453.742188 381.089844 453.820312 380.992188 453.902344 C 380.875 453.808594 380.753906 453.722656 380.628906 453.640625 C 379.777344 453.046875 378.886719 452.519531 377.953125 452.058594 C 377.023438 451.601562 376.0625 451.214844 375.070312 450.902344 C 374.082031 450.589844 373.070312 450.355469 372.046875 450.199219 C 371.019531 450.042969 369.988281 449.960938 368.949219 449.960938 C 367.910156 449.960938 366.878906 450.042969 365.851562 450.199219 C 364.824219 450.355469 363.816406 450.589844 362.824219 450.902344 C 361.835938 451.214844 360.875 451.601562 359.941406 452.058594 C 359.011719 452.519531 358.117188 453.046875 357.269531 453.640625 C 356.957031 453.839844 356.679688 454.074219 356.441406 454.355469 C 356.199219 454.632812 356.003906 454.941406 355.851562 455.277344 C 355.703125 455.613281 355.601562 455.960938 355.554688 456.328125 C 355.503906 456.691406 355.511719 457.054688 355.570312 457.421875 L 356.574219 463.882812 L 351.066406 463.882812 L 347.246094 462.414062 L 344.664062 448.886719 C 344.582031 448.453125 344.425781 448.046875 344.203125 447.667969 C 343.980469 447.289062 343.695312 446.957031 343.359375 446.675781 C 343.019531 446.394531 342.640625 446.179688 342.226562 446.03125 C 341.8125 445.882812 341.382812 445.808594 340.941406 445.808594 Z M 340.933594 445.800781 " fill-opacity="1" fill-rule="nonzero"></path><path stroke-linecap="butt" transform="matrix(1.005208, 0, 0, 1.005208, -29.335483, 0.00002)" fill="none" stroke-linejoin="round" d="M 379.721048 595.208453 C 384.718457 581.078922 374.070789 562.208458 374.070789 562.208458 C 367.860944 570.388508 368.840219 583.791356 368.840219 583.791356 C 358.511203 541.13074 387.570789 499.169606 387.570789 499.169606 L 426.570788 516.058204 L 427.180892 515.801728 L 427.180892 659.350932 C 426.939959 659.980466 426.749545 660.501191 426.640736 660.800414 L 429.100581 663.691605 C 429.100581 663.691605 426.621306 661.111295 426.570788 660.990829 C 426.551358 661.053005 426.528042 661.111295 426.50084 661.169585 L 426.50084 660.800414 C 424.340218 654.889793 397.021566 581.001201 388.651099 597.198091 " stroke="#ffffff" stroke-width="3.76" stroke-opacity="1" stroke-miterlimit="4"></path><path fill="#606161" d="M 405.125 437.6875 C 405.125 437.796875 405.214844 437.890625 405.347656 437.988281 L 405.347656 433.296875 C 405.246094 434.691406 405.164062 436.140625 405.125 437.6875 Z M 405.125 437.6875 " fill-opacity="1" fill-rule="nonzero"></path><path fill="#ffffff" d="M 401.566406 192.890625 L 401.566406 322.199219 C 400.355469 321.808594 399.117188 321.558594 397.847656 321.445312 C 397.535156 321.445312 397.203125 321.445312 396.84375 321.445312 C 390.558594 321.445312 377.472656 326.710938 370.246094 336.253906 C 368.464844 338.5 367.125 340.988281 366.226562 343.710938 C 365.328125 346.433594 364.925781 349.226562 365.019531 352.09375 L 365.019531 352.566406 C 366.195312 359.773438 372.335938 373.898438 387.191406 375.789062 C 388.339844 375.9375 389.492188 376.011719 390.652344 376.007812 C 394.355469 375.957031 397.976562 375.371094 401.507812 374.25 L 401.507812 416.75 L 395.394531 416.75 L 396.894531 421.632812 C 398.152344 426.023438 398.871094 430.5 399.042969 435.0625 C 395.085938 435.488281 391.113281 435.675781 387.132812 435.628906 C 383.164062 435.671875 379.207031 435.488281 375.261719 435.074219 C 375.488281 432.015625 375.980469 429 376.738281 426.027344 L 378.476562 419.351562 L 372.023438 421.445312 L 371.914062 421.445312 C 367.375 422.902344 362.964844 424.671875 358.675781 426.75 L 357.667969 427.234375 L 357.085938 428.238281 L 352.59375 435.648438 L 343.546875 435.648438 L 342.542969 436.371094 C 340.257812 438.019531 337.996094 439.800781 335.816406 441.660156 C 332.164062 444.773438 328.742188 448.125 325.554688 451.710938 C 325.050781 427.054688 332.589844 414.828125 333.59375 413.332031 C 336.199219 410.65625 338.761719 407.753906 341.222656 404.6875 L 343.507812 401.851562 L 340.753906 399.460938 L 319.058594 380.640625 L 316.636719 378.53125 L 314.164062 380.59375 L 302.585938 390.242188 L 274.238281 370.863281 L 274.238281 332.332031 L 285.585938 315.242188 L 286.21875 314.296875 L 286.21875 273.898438 C 286.222656 272.601562 286.285156 271.304688 286.414062 270.011719 C 286.542969 268.71875 286.734375 267.433594 286.988281 266.160156 C 287.246094 264.886719 287.5625 263.628906 287.9375 262.386719 C 288.316406 261.144531 288.753906 259.921875 289.253906 258.722656 C 289.75 257.523438 290.304688 256.351562 290.917969 255.203125 C 291.53125 254.058594 292.199219 252.945312 292.921875 251.867188 C 293.644531 250.785156 294.417969 249.742188 295.242188 248.738281 C 296.066406 247.734375 296.9375 246.773438 297.855469 245.855469 C 298.773438 244.9375 299.734375 244.066406 300.738281 243.242188 C 301.742188 242.417969 302.785156 241.644531 303.863281 240.921875 C 304.945312 240.199219 306.054688 239.53125 307.203125 238.917969 C 308.347656 238.304688 309.519531 237.75 310.71875 237.25 C 311.917969 236.753906 313.140625 236.3125 314.382812 235.9375 C 315.625 235.558594 316.882812 235.242188 318.15625 234.984375 C 319.429688 234.730469 320.714844 234.539062 322.007812 234.410156 C 323.300781 234.28125 324.597656 234.214844 325.894531 234.214844 L 341.816406 234.214844 L 342.945312 232.957031 C 356.484375 217.878906 376.195312 204.410156 401.566406 192.890625 M 403.265625 187.984375 C 374.617188 200.578125 354.132812 214.84375 340.128906 230.433594 L 325.894531 230.433594 C 324.472656 230.4375 323.054688 230.511719 321.636719 230.652344 C 320.222656 230.796875 318.816406 231.007812 317.421875 231.289062 C 316.027344 231.570312 314.652344 231.917969 313.289062 232.332031 C 311.929688 232.746094 310.59375 233.226562 309.277344 233.773438 C 307.964844 234.320312 306.679688 234.929688 305.425781 235.601562 C 304.171875 236.273438 302.957031 237.003906 301.773438 237.796875 C 300.589844 238.585938 299.449219 239.433594 298.351562 240.335938 C 297.25 241.238281 296.199219 242.195312 295.191406 243.199219 C 294.1875 244.203125 293.230469 245.257812 292.328125 246.355469 C 291.425781 247.457031 290.578125 248.597656 289.789062 249.777344 C 288.996094 250.960938 288.265625 252.179688 287.59375 253.433594 C 286.917969 254.6875 286.3125 255.96875 285.765625 257.285156 C 285.21875 258.597656 284.738281 259.933594 284.320312 261.292969 C 283.90625 262.65625 283.558594 264.03125 283.277344 265.425781 C 282.996094 266.820312 282.785156 268.226562 282.640625 269.640625 C 282.496094 271.058594 282.425781 272.476562 282.417969 273.898438 L 282.417969 313.101562 L 270.4375 331.195312 L 270.4375 372.863281 L 302.746094 394.976562 L 316.527344 383.496094 L 338.21875 402.316406 C 335.804688 405.316406 333.269531 408.183594 330.609375 410.917969 C 330.609375 410.917969 318.898438 426.609375 322.316406 461.683594 C 326.945312 455.328125 332.246094 449.601562 338.21875 444.492188 C 340.304688 442.71875 342.460938 441.019531 344.691406 439.398438 L 354.652344 439.398438 L 360.253906 430.167969 C 364.410156 428.195312 368.6875 426.519531 373.078125 425.144531 C 372.015625 429.269531 371.441406 433.464844 371.351562 437.726562 C 371.351562 438.863281 379.242188 439.425781 387.132812 439.425781 C 395.023438 439.425781 402.914062 438.863281 402.914062 437.726562 C 402.90625 431.890625 402.101562 426.164062 400.5 420.550781 C 401.417969 420.550781 402.320312 420.550781 403.234375 420.550781 C 403.941406 420.550781 404.625 420.550781 405.316406 420.550781 L 405.316406 370.4375 L 404.945312 370.328125 C 405.09375 369.886719 405.1875 369.453125 405.316406 369.023438 L 405.316406 329.328125 C 405.085938 328.5625 404.90625 327.789062 404.632812 327.023438 L 404.785156 326.875 C 404.953125 326.742188 405.144531 326.664062 405.316406 326.550781 L 405.316406 188.980469 C 404.613281 188.648438 403.949219 188.296875 403.234375 187.972656 Z M 390.710938 372.1875 C 389.703125 372.1875 388.695312 372.125 387.695312 371.996094 C 371.710938 369.988281 368.777344 351.894531 368.777344 351.894531 C 368.710938 349.460938 369.058594 347.09375 369.828125 344.785156 C 370.59375 342.476562 371.730469 340.371094 373.242188 338.464844 C 379.863281 329.738281 391.988281 325.15625 396.832031 325.15625 L 397.445312 325.15625 C 399.097656 325.21875 400.625 325.683594 402.03125 326.550781 C 400.898438 329.734375 400.0625 332.996094 399.527344 336.332031 C 398.839844 340.5625 398.507812 344.816406 398.519531 349.097656 C 398.5 353.386719 398.835938 357.644531 399.527344 361.875 C 399.988281 364.699219 400.65625 367.472656 401.535156 370.199219 C 398.023438 371.429688 394.402344 372.074219 390.679688 372.136719 Z M 390.710938 372.1875 " fill-opacity="1" fill-rule="nonzero"></path><path fill="#ffffff" d="M 402.984375 327.347656 C 404.605469 330.71875 405.71875 334.25 406.332031 337.941406 C 406.945312 341.449219 407.25 344.984375 407.246094 348.546875 C 407.257812 352.105469 406.957031 355.636719 406.34375 359.140625 C 405.734375 362.835938 404.617188 366.367188 402.984375 369.734375 C 401.355469 366.367188 400.238281 362.835938 399.636719 359.140625 C 399.011719 355.636719 398.707031 352.105469 398.722656 348.546875 C 398.714844 344.984375 399.023438 341.449219 399.648438 337.941406 C 400.25 334.25 401.363281 330.71875 402.984375 327.347656 Z M 402.984375 327.347656 " fill-opacity="1" fill-rule="nonzero"></path><path fill="#ffffff" d="M 524.121094 313.132812 L 524.121094 273.929688 C 524.117188 272.507812 524.042969 271.085938 523.902344 269.671875 C 523.757812 268.257812 523.546875 266.851562 523.265625 265.457031 C 522.984375 264.0625 522.636719 262.683594 522.222656 261.324219 C 521.804688 259.964844 521.324219 258.628906 520.777344 257.3125 C 520.230469 256 519.621094 254.71875 518.949219 253.464844 C 518.277344 252.210938 517.546875 250.992188 516.753906 249.808594 C 515.964844 248.625 515.117188 247.484375 514.214844 246.386719 C 513.308594 245.289062 512.355469 244.234375 511.351562 243.230469 C 510.34375 242.222656 509.292969 241.269531 508.191406 240.367188 C 507.09375 239.464844 505.953125 238.617188 504.769531 237.824219 C 503.585938 237.035156 502.367188 236.304688 501.113281 235.632812 C 499.859375 234.960938 498.578125 234.351562 497.261719 233.804688 C 495.949219 233.257812 494.613281 232.777344 493.253906 232.363281 C 491.890625 231.949219 490.515625 231.597656 489.117188 231.320312 C 487.722656 231.039062 486.320312 230.828125 484.902344 230.683594 C 483.488281 230.542969 482.070312 230.46875 480.648438 230.464844 L 460.613281 230.464844 C 452.933594 221.71875 444.433594 213.855469 435.121094 206.875 C 425.808594 199.894531 415.875 193.945312 405.328125 189.03125 L 405.328125 326.550781 C 406.265625 325.925781 407.289062 325.511719 408.398438 325.316406 C 409.511719 325.121094 410.613281 325.15625 411.710938 325.425781 C 423.179688 328.199219 429.621094 333.347656 433.230469 338.492188 C 434.605469 340.464844 435.671875 342.589844 436.4375 344.867188 C 437.203125 347.144531 437.632812 349.484375 437.722656 351.882812 C 437.289062 354.054688 436.617188 356.152344 435.714844 358.175781 C 430.949219 366.832031 424.65625 370.320312 418.835938 371.414062 C 414.234375 372.210938 409.71875 371.875 405.285156 370.410156 L 405.285156 420.488281 C 406.011719 420.488281 406.734375 420.488281 407.457031 420.488281 C 406.257812 424.652344 405.527344 428.898438 405.277344 433.226562 L 405.277344 437.917969 C 407.941406 439.878906 436.617188 439.777344 436.617188 437.617188 C 436.542969 433.539062 436.015625 429.515625 435.039062 425.554688 C 439.65625 427.121094 444.132812 429.011719 448.46875 431.234375 L 453.414062 439.386719 L 461.847656 439.386719 C 465.9375 442.351562 469.78125 445.605469 473.378906 449.148438 C 473.871094 449.640625 474.382812 450.152344 474.835938 450.644531 C 476.074219 451.902344 477.257812 453.1875 478.425781 454.503906 C 478.886719 455.027344 479.359375 455.558594 479.824219 456.101562 C 481.339844 457.914062 482.839844 459.753906 484.226562 461.671875 C 487.644531 426.601562 475.933594 410.910156 475.933594 410.910156 C 473.253906 408.1875 470.714844 405.320312 468.324219 402.304688 L 490.015625 383.488281 L 503.796875 394.964844 L 536.105469 372.851562 L 536.105469 331.1875 Z M 505.765625 271.316406 C 495.714844 303.8125 480.296875 311.746094 480.296875 311.746094 C 459.949219 325.207031 440.316406 320.148438 430.296875 315.847656 C 429.808594 315.636719 429.347656 315.382812 428.90625 315.085938 C 428.46875 314.789062 428.058594 314.453125 427.683594 314.082031 C 427.304688 313.707031 426.964844 313.304688 426.664062 312.867188 C 426.363281 312.429688 426.105469 311.96875 425.890625 311.484375 C 425.675781 311 425.507812 310.5 425.386719 309.984375 C 425.265625 309.46875 425.191406 308.945312 425.167969 308.414062 C 425.144531 307.886719 425.167969 307.359375 425.242188 306.832031 C 425.320312 306.308594 425.441406 305.792969 425.613281 305.292969 C 436.257812 273.386719 445.09375 269.105469 445.09375 269.105469 C 465.398438 251.203125 489.101562 256.46875 500.699219 260.769531 C 501.203125 260.964844 501.6875 261.203125 502.144531 261.484375 C 502.601562 261.769531 503.03125 262.09375 503.425781 262.457031 C 503.824219 262.824219 504.183594 263.222656 504.503906 263.65625 C 504.824219 264.089844 505.101562 264.546875 505.335938 265.035156 C 505.570312 265.519531 505.753906 266.023438 505.890625 266.542969 C 506.03125 267.066406 506.117188 267.59375 506.152344 268.132812 C 506.191406 268.671875 506.175781 269.207031 506.113281 269.742188 C 506.046875 270.277344 505.933594 270.800781 505.765625 271.316406 Z M 505.765625 271.316406 " fill-opacity="1" fill-rule="nonzero"></path><path fill="#ffffff" d="M 395.867188 142.449219 L 399.957031 142.449219 L 408.351562 155.324219 L 408.402344 155.324219 L 408.402344 142.449219 L 411.488281 142.449219 L 411.488281 159.828125 L 407.566406 159.828125 L 399.003906 146.527344 L 398.953125 146.527344 L 398.953125 159.828125 L 395.867188 159.828125 Z M 395.867188 142.449219 " fill-opacity="1" fill-rule="nonzero"></path><path fill="#ffffff" d="M 239.730469 300.609375 L 243.074219 300.609375 L 246.332031 313.09375 L 246.382812 313.09375 L 250.273438 300.609375 L 253.289062 300.609375 L 257.109375 313.09375 L 257.160156 313.09375 L 260.554688 300.609375 L 263.691406 300.609375 L 258.667969 317.949219 L 255.722656 317.949219 L 251.699219 304.75 L 251.648438 304.75 L 247.628906 317.949219 L 244.785156 317.949219 Z M 239.730469 300.609375 " fill-opacity="1" fill-rule="nonzero"></path><path fill="#ffffff" d="M 550.738281 300.609375 L 562.21875 300.609375 L 562.21875 303.402344 L 553.824219 303.402344 L 553.824219 307.664062 L 561.777344 307.664062 L 561.777344 310.449219 L 553.824219 310.449219 L 553.824219 315.152344 L 562.660156 315.152344 L 562.660156 317.949219 L 550.738281 317.949219 Z M 550.738281 300.609375 " fill-opacity="1" fill-rule="nonzero"></path><path fill="#ffffff" d="M 253.128906 729.722656 L 266.75 729.722656 C 268.953125 729.691406 271.101562 730.027344 273.191406 730.726562 C 274.179688 731.050781 275.117188 731.488281 275.996094 732.039062 C 276.878906 732.589844 277.679688 733.242188 278.402344 733.988281 C 279.125 734.738281 279.75 735.5625 280.269531 736.460938 C 280.789062 737.363281 281.195312 738.3125 281.484375 739.3125 C 282.195312 741.828125 282.328125 744.375 281.878906 746.949219 C 281.535156 749.726562 280.605469 752.289062 279.09375 754.640625 C 277.742188 756.734375 276.066406 758.523438 274.066406 760.007812 C 272.136719 761.417969 270.027344 762.476562 267.742188 763.183594 C 265.625 763.851562 263.453125 764.183594 261.230469 764.191406 L 248.304688 764.191406 Z M 259.8125 758.722656 C 261.679688 758.730469 263.519531 758.507812 265.332031 758.058594 C 267.023438 757.65625 268.601562 756.984375 270.066406 756.046875 C 271.492188 755.09375 272.660156 753.890625 273.574219 752.4375 C 274.589844 750.777344 275.210938 748.976562 275.433594 747.039062 C 275.746094 745.234375 275.671875 743.445312 275.210938 741.671875 C 274.824219 740.253906 274.09375 739.042969 273.019531 738.035156 C 271.902344 737.074219 270.632812 736.40625 269.210938 736.023438 C 267.539062 735.566406 265.835938 735.351562 264.105469 735.371094 L 258.496094 735.371094 L 255.21875 758.800781 Z M 259.8125 758.722656 " fill-opacity="1" fill-rule="nonzero"></path><path fill="#ffffff" d="M 290.179688 729.722656 L 313.078125 729.722656 L 312.292969 735.289062 L 295.546875 735.289062 L 294.339844 743.785156 L 310.203125 743.785156 L 309.417969 749.34375 L 293.597656 749.34375 L 292.332031 758.722656 L 309.953125 758.722656 L 309.167969 764.28125 L 285.355469 764.28125 Z M 290.179688 729.722656 " fill-opacity="1" fill-rule="nonzero"></path><path fill="#ffffff" d="M 335.917969 737.140625 C 335.367188 736.1875 334.589844 735.496094 333.574219 735.070312 C 332.515625 734.613281 331.410156 734.390625 330.257812 734.40625 C 329.542969 734.410156 328.835938 734.492188 328.136719 734.65625 C 327.453125 734.8125 326.808594 735.070312 326.207031 735.429688 C 325.613281 735.792969 325.117188 736.257812 324.71875 736.828125 C 324.289062 737.433594 324.039062 738.101562 323.964844 738.839844 C 323.851562 739.328125 323.867188 739.8125 324.015625 740.292969 C 324.164062 740.769531 324.421875 741.179688 324.789062 741.523438 C 325.636719 742.21875 326.574219 742.757812 327.605469 743.140625 C 328.75 743.59375 330.007812 744.035156 331.351562 744.457031 C 332.679688 744.863281 333.917969 745.449219 335.074219 746.214844 C 336.21875 746.988281 337.097656 747.992188 337.707031 749.230469 C 338.394531 750.820312 338.566406 752.460938 338.21875 754.15625 C 338.003906 755.902344 337.433594 757.519531 336.511719 759.011719 C 335.65625 760.375 334.570312 761.523438 333.261719 762.460938 C 331.933594 763.371094 330.492188 764.042969 328.941406 764.472656 C 327.332031 764.929688 325.6875 765.15625 324.015625 765.15625 C 321.9375 765.164062 319.929688 764.804688 317.984375 764.078125 C 316.066406 763.355469 314.523438 762.152344 313.351562 760.46875 L 318.628906 755.976562 C 319.234375 757.117188 320.105469 758 321.230469 758.632812 C 322.390625 759.285156 323.636719 759.605469 324.96875 759.585938 C 325.707031 759.582031 326.429688 759.484375 327.140625 759.292969 C 327.851562 759.097656 328.523438 758.808594 329.152344 758.417969 C 329.789062 758.019531 330.335938 757.523438 330.789062 756.921875 C 331.253906 756.304688 331.546875 755.613281 331.664062 754.851562 C 331.777344 754.324219 331.761719 753.800781 331.613281 753.285156 C 331.464844 752.765625 331.207031 752.3125 330.832031 751.925781 C 330.007812 751.167969 329.070312 750.589844 328.027344 750.1875 C 326.871094 749.714844 325.625 749.273438 324.265625 748.851562 C 322.957031 748.445312 321.730469 747.867188 320.585938 747.109375 C 319.457031 746.363281 318.574219 745.386719 317.945312 744.1875 C 317.238281 742.609375 317.0625 740.972656 317.410156 739.28125 C 317.625 737.59375 318.210938 736.050781 319.171875 734.648438 C 320.070312 733.34375 321.183594 732.261719 322.507812 731.398438 C 323.859375 730.519531 325.316406 729.875 326.878906 729.46875 C 328.449219 729.050781 330.042969 728.839844 331.664062 728.835938 C 333.441406 728.824219 335.175781 729.101562 336.863281 729.660156 C 338.496094 730.199219 339.886719 731.109375 341.035156 732.394531 Z M 335.917969 737.140625 " fill-opacity="1" fill-rule="nonzero"></path><path fill="#ffffff" d="M 354.324219 735.289062 L 343.726562 735.289062 L 344.511719 729.722656 L 371.84375 729.722656 L 371.070312 735.289062 L 360.472656 735.289062 L 356.453125 764.28125 L 350.300781 764.28125 Z M 354.324219 735.289062 " fill-opacity="1" fill-rule="nonzero"></path><path fill="#ffffff" d="M 375.894531 729.722656 L 382.046875 729.722656 L 377.222656 764.28125 L 371.070312 764.28125 Z M 375.894531 729.722656 " fill-opacity="1" fill-rule="nonzero"></path><path fill="#ffffff" d="M 389.617188 729.722656 L 397.765625 729.722656 L 410.945312 755.402344 L 411.046875 755.402344 L 414.65625 729.722656 L 420.808594 729.722656 L 415.972656 764.28125 L 408.160156 764.28125 L 394.742188 737.824219 L 394.640625 737.824219 L 390.933594 764.332031 L 384.808594 764.332031 Z M 389.617188 729.722656 " fill-opacity="1" fill-rule="nonzero"></path><path fill="#ffffff" d="M 439.644531 729.722656 L 444.972656 729.722656 L 455.023438 764.28125 L 447.988281 764.28125 L 445.835938 756.378906 L 430.859375 756.378906 L 426.667969 764.28125 L 419.78125 764.28125 Z M 444.429688 751.101562 L 441.113281 737.027344 L 433.695312 751.101562 Z M 444.429688 751.101562 " fill-opacity="1" fill-rule="nonzero"></path><path fill="#ffffff" d="M 465.519531 735.289062 L 454.921875 735.289062 L 455.707031 729.722656 L 483.039062 729.722656 L 482.265625 735.289062 L 471.671875 735.289062 L 467.648438 764.28125 L 461.496094 764.28125 Z M 465.519531 735.289062 " fill-opacity="1" fill-rule="nonzero"></path><path fill="#ffffff" d="M 487.089844 729.722656 L 493.242188 729.722656 L 488.417969 764.28125 L 482.316406 764.28125 Z M 487.089844 729.722656 " fill-opacity="1" fill-rule="nonzero"></path><path fill="#ffffff" d="M 496.519531 747.152344 C 496.867188 744.492188 497.671875 741.980469 498.933594 739.613281 C 500.105469 737.402344 501.632812 735.472656 503.515625 733.824219 C 505.390625 732.207031 507.492188 730.976562 509.816406 730.132812 C 512.253906 729.261719 514.769531 728.832031 517.355469 728.847656 C 519.851562 728.773438 522.265625 729.171875 524.605469 730.042969 C 526.671875 730.816406 528.4375 732.027344 529.902344 733.679688 C 531.371094 735.359375 532.378906 737.277344 532.917969 739.441406 C 533.519531 741.925781 533.621094 744.425781 533.21875 746.949219 C 532.863281 749.550781 532.0625 752.011719 530.828125 754.328125 C 529.648438 756.515625 528.117188 758.417969 526.234375 760.039062 C 524.339844 761.65625 522.226562 762.898438 519.890625 763.765625 C 517.433594 764.679688 514.890625 765.144531 512.269531 765.164062 C 509.792969 765.203125 507.402344 764.773438 505.09375 763.867188 C 503.054688 763.0625 501.304688 761.84375 499.847656 760.210938 C 498.398438 758.546875 497.394531 756.648438 496.832031 754.519531 C 496.214844 752.085938 496.109375 749.628906 496.519531 747.152344 Z M 503.003906 746.757812 C 502.738281 748.476562 502.78125 750.183594 503.132812 751.886719 C 503.4375 753.363281 504.046875 754.703125 504.964844 755.90625 C 505.867188 757.074219 506.992188 757.96875 508.332031 758.589844 C 509.832031 759.285156 511.410156 759.621094 513.066406 759.597656 C 514.808594 759.601562 516.484375 759.265625 518.089844 758.589844 C 519.636719 757.949219 521.023438 757.054688 522.242188 755.90625 C 523.480469 754.742188 524.488281 753.402344 525.257812 751.886719 C 526.058594 750.261719 526.578125 748.554688 526.816406 746.757812 C 527.050781 745.136719 526.996094 743.527344 526.644531 741.925781 C 526.332031 740.476562 525.722656 739.164062 524.816406 737.992188 C 523.902344 736.839844 522.773438 735.960938 521.429688 735.359375 C 519.910156 734.695312 518.320312 734.375 516.664062 734.40625 C 514.925781 734.386719 513.25 734.707031 511.636719 735.359375 C 510.101562 735.988281 508.722656 736.863281 507.507812 737.992188 C 506.273438 739.152344 505.269531 740.480469 504.5 741.988281 C 503.726562 743.492188 503.230469 745.082031 503.011719 746.757812 Z M 503.003906 746.757812 " fill-opacity="1" fill-rule="nonzero"></path><path fill="#ffffff" d="M 541.472656 729.722656 L 549.664062 729.722656 L 562.730469 755.402344 L 562.832031 755.402344 L 566.441406 729.722656 L 572.59375 729.722656 L 567.757812 764.28125 L 559.949219 764.28125 L 546.648438 737.824219 L 546.546875 737.824219 L 542.839844 764.332031 L 536.597656 764.332031 Z M 541.472656 729.722656 " fill-opacity="1" fill-rule="nonzero"></path><path fill="#ffffff" d="M 251.398438 779.410156 L 256.566406 779.410156 L 263.058594 811.90625 L 269.5625 779.410156 L 274.730469 779.410156 L 274.730469 818.289062 L 271.34375 818.289062 L 271.34375 784.40625 L 264.445312 818.289062 L 261.429688 818.289062 L 254.484375 784.40625 L 254.484375 818.289062 L 251.378906 818.289062 Z M 251.398438 779.410156 " fill-opacity="1" fill-rule="nonzero"></path><path fill="#ffffff" d="M 314.386719 800.960938 L 306.34375 779.410156 L 310.011719 779.410156 L 316.234375 796.496094 L 322.507812 779.410156 L 325.894531 779.410156 L 317.851562 800.960938 L 317.851562 818.289062 L 314.40625 818.289062 Z M 314.386719 800.960938 " fill-opacity="1" fill-rule="nonzero"></path><path fill="#ffffff" d="M 355.4375 809.625 L 355.4375 807.464844 L 358.675781 807.464844 L 358.675781 809.847656 C 358.675781 813.738281 360.683594 815.6875 363.902344 815.6875 C 367.117188 815.6875 369.117188 813.738281 369.117188 809.796875 C 369.117188 806.078125 367.5625 803.625 362.726562 799.742188 C 357.226562 795.351562 355.398438 792.296875 355.398438 787.851562 C 355.398438 782.191406 358.503906 778.804688 363.953125 778.804688 C 369.402344 778.804688 372.347656 782.203125 372.347656 788.03125 L 372.347656 789.589844 L 369.070312 789.589844 L 369.070312 787.8125 C 369.070312 783.921875 367.179688 781.921875 363.953125 781.921875 C 360.726562 781.921875 358.847656 783.933594 358.847656 787.640625 C 358.847656 791.089844 360.503906 793.480469 365.339844 797.363281 C 370.839844 801.816406 372.566406 804.808594 372.566406 809.535156 C 372.566406 815.425781 369.449219 818.8125 363.902344 818.8125 C 358.351562 818.8125 355.4375 815.464844 355.4375 809.625 Z M 355.4375 809.625 " fill-opacity="1" fill-rule="nonzero"></path><path fill="#ffffff" d="M 410.042969 782.515625 L 402.902344 782.515625 L 402.902344 779.410156 L 420.625 779.410156 L 420.625 782.515625 L 413.457031 782.515625 L 413.457031 818.289062 L 410.042969 818.289062 Z M 410.042969 782.515625 " fill-opacity="1" fill-rule="nonzero"></path><path fill="#ffffff" d="M 452.308594 779.410156 L 467.871094 779.410156 L 467.871094 782.515625 L 455.757812 782.515625 L 455.757812 796.457031 L 465.699219 796.457031 L 465.699219 799.574219 L 455.757812 799.574219 L 455.757812 815.125 L 467.871094 815.125 L 467.871094 818.289062 L 452.308594 818.289062 Z M 452.308594 779.410156 " fill-opacity="1" fill-rule="nonzero"></path><path fill="#ffffff" d="M 499.757812 779.410156 L 508.027344 779.410156 C 514.058594 779.410156 516.644531 782.132812 516.644531 788.246094 L 516.644531 790.625 C 516.644531 794.960938 515.144531 797.574219 511.917969 798.457031 L 511.917969 798.566406 C 515.304688 799.351562 516.644531 801.964844 516.644531 806.609375 L 516.644531 813.644531 C 516.585938 815.230469 516.773438 816.785156 517.195312 818.308594 L 513.699219 818.308594 C 513.316406 816.761719 513.148438 815.191406 513.195312 813.59375 L 513.195312 806.429688 C 513.195312 801.925781 511.527344 800.398438 507.425781 800.398438 L 503.195312 800.398438 L 503.195312 818.339844 L 499.757812 818.339844 Z M 507.367188 797.128906 C 511.304688 797.128906 513.195312 795.460938 513.195312 791.238281 L 513.195312 788.515625 C 513.195312 784.292969 511.699219 782.484375 507.917969 782.484375 L 503.195312 782.484375 L 503.195312 797.128906 Z M 507.367188 797.128906 " fill-opacity="1" fill-rule="nonzero"></path><path fill="#ffffff" d="M 555.023438 800.960938 L 546.980469 779.410156 L 550.667969 779.410156 L 556.890625 796.496094 L 563.164062 779.410156 L 566.550781 779.410156 L 558.511719 800.960938 L 558.511719 818.289062 L 555.0625 818.289062 Z M 555.023438 800.960938 " fill-opacity="1" fill-rule="nonzero"></path><path fill="#ffffff" d="M 226.761719 307.535156 C 226.761719 209.605469 306.445312 129.921875 404.371094 129.921875 C 502.300781 129.921875 581.980469 209.605469 581.980469 307.535156 C 581.980469 377.957031 540.769531 438.933594 481.230469 467.644531 L 485.683594 485.859375 C 486.898438 488.109375 488.136719 490.542969 489.371094 493.066406 C 553.816406 463.410156 600.296875 401.167969 607.503906 327.558594 L 608.226562 328.292969 L 628.976562 307.535156 L 608.226562 286.785156 L 607.503906 287.507812 C 598.066406 191.007812 521.207031 114.050781 424.777344 104.429688 L 425.378906 103.828125 L 404.632812 83.070312 L 383.886719 103.828125 L 384.46875 104.402344 C 287.96875 113.789062 210.949219 190.609375 201.28125 287.015625 L 201.046875 286.785156 L 180.289062 307.535156 L 201.046875 328.292969 L 201.269531 328.058594 C 208.628906 401.339844 254.917969 463.269531 319.078125 492.914062 L 325.503906 466.617188 C 267.039062 437.507812 226.761719 377.152344 226.761719 307.535156 Z M 226.761719 307.535156 " fill-opacity="1" fill-rule="nonzero"></path><path fill="#ffffff" d="M 660.597656 305.582031 C 660.597656 164.441406 545.773438 49.605469 404.644531 49.605469 C 263.511719 49.605469 148.667969 164.480469 148.667969 305.582031 C 148.667969 411.523438 213.371094 502.605469 305.339844 541.496094 C 306.132812 536.539062 307.15625 531.703125 308.355469 527.03125 C 222.972656 489.808594 163.121094 404.597656 163.121094 305.582031 C 163.121094 172.414062 271.472656 64.0625 404.644531 64.0625 C 537.8125 64.0625 646.164062 172.453125 646.164062 305.582031 C 646.164062 404.09375 586.855469 488.953125 502.097656 526.488281 C 503.34375 531.164062 504.398438 535.996094 505.214844 540.941406 C 596.488281 501.832031 660.597656 411.128906 660.597656 305.582031 Z M 660.597656 305.582031 " fill-opacity="1" fill-rule="nonzero"></path><path fill="#ffffff" d="M 331.421875 256.578125 L 331.421875 260.347656 C 334.230469 260.320312 337.011719 260.550781 339.777344 261.039062 C 342.539062 261.527344 345.234375 262.269531 347.859375 263.257812 C 350.484375 264.25 352.992188 265.476562 355.390625 266.933594 C 357.785156 268.394531 360.027344 270.0625 362.113281 271.9375 L 362.324219 272.261719 L 362.886719 272.480469 C 363.730469 273.066406 371.339844 279.027344 380.507812 306.476562 C 380.703125 307.042969 380.789062 307.621094 380.765625 308.21875 C 380.742188 308.816406 380.609375 309.386719 380.371094 309.933594 C 380.128906 310.480469 379.796875 310.964844 379.371094 311.382812 C 378.949219 311.804688 378.464844 312.132812 377.914062 312.367188 C 371.425781 315.164062 364.652344 316.585938 357.589844 316.640625 C 352.941406 316.628906 348.402344 315.9375 343.960938 314.566406 C 339.523438 313.195312 335.378906 311.207031 331.535156 308.597656 L 331.394531 308.5 L 331.203125 308.40625 C 331.0625 308.328125 316.898438 300.445312 307.582031 270.210938 C 307.488281 269.925781 307.421875 269.636719 307.386719 269.339844 C 307.347656 269.042969 307.339844 268.746094 307.359375 268.445312 C 307.378906 268.148438 307.425781 267.855469 307.5 267.5625 C 307.574219 267.273438 307.675781 266.996094 307.800781 266.722656 C 307.929688 266.453125 308.082031 266.199219 308.257812 265.957031 C 308.433594 265.714844 308.632812 265.492188 308.851562 265.289062 C 309.070312 265.082031 309.304688 264.902344 309.558594 264.742188 C 309.8125 264.582031 310.078125 264.449219 310.355469 264.339844 C 317.15625 261.777344 324.195312 260.453125 331.464844 260.367188 L 331.464844 256.589844 M 331.464844 256.589844 C 323.742188 256.667969 316.265625 258.070312 309.039062 260.792969 C 308.539062 260.988281 308.058594 261.226562 307.605469 261.511719 C 307.148438 261.796875 306.722656 262.121094 306.332031 262.488281 C 305.9375 262.855469 305.582031 263.253906 305.261719 263.6875 C 304.945312 264.121094 304.671875 264.578125 304.4375 265.0625 C 304.207031 265.546875 304.023438 266.050781 303.886719 266.570312 C 303.75 267.089844 303.664062 267.617188 303.628906 268.152344 C 303.589844 268.691406 303.605469 269.226562 303.667969 269.757812 C 303.734375 270.292969 303.847656 270.8125 304.011719 271.324219 C 314.0625 303.824219 329.492188 311.753906 329.492188 311.753906 C 333.644531 314.582031 338.117188 316.738281 342.914062 318.222656 C 347.710938 319.707031 352.617188 320.457031 357.640625 320.46875 C 365.226562 320.414062 372.5 318.875 379.460938 315.855469 C 379.949219 315.644531 380.414062 315.394531 380.851562 315.097656 C 381.289062 314.800781 381.699219 314.464844 382.074219 314.089844 C 382.453125 313.71875 382.789062 313.3125 383.089844 312.875 C 383.390625 312.4375 383.648438 311.980469 383.863281 311.492188 C 384.078125 311.007812 384.246094 310.507812 384.367188 309.992188 C 384.488281 309.476562 384.5625 308.953125 384.585938 308.421875 C 384.609375 307.894531 384.582031 307.367188 384.507812 306.84375 C 384.429688 306.316406 384.308594 305.804688 384.136719 305.300781 C 373.492188 273.398438 364.664062 269.113281 364.664062 269.113281 C 362.410156 267.089844 359.988281 265.285156 357.394531 263.710938 C 354.804688 262.132812 352.089844 260.808594 349.253906 259.738281 C 346.417969 258.667969 343.507812 257.863281 340.519531 257.335938 C 337.535156 256.804688 334.527344 256.550781 331.492188 256.578125 Z M 331.464844 256.589844 " fill-opacity="1" fill-rule="nonzero"></path><path fill="#ffffff" d="M 449.195312 300.828125 C 449.402344 300.976562 449.632812 301.050781 449.886719 301.050781 C 450.265625 301.050781 450.578125 300.90625 450.824219 300.617188 L 460.460938 289.027344 C 462.371094 289.390625 464.289062 289.722656 466.210938 290.03125 C 468.625 290.433594 471.046875 290.800781 473.480469 291.128906 C 475.914062 291.449219 478.34375 291.730469 480.796875 291.960938 C 482.023438 292.074219 483.25 292.183594 484.476562 292.265625 L 486.335938 292.363281 C 486.960938 292.363281 487.582031 292.425781 488.214844 292.433594 C 488.515625 292.441406 488.777344 292.347656 489.007812 292.15625 C 489.238281 291.964844 489.378906 291.722656 489.433594 291.429688 C 489.476562 291.136719 489.425781 290.859375 489.269531 290.605469 C 489.117188 290.347656 488.898438 290.171875 488.617188 290.074219 C 488.015625 289.882812 487.421875 289.691406 486.820312 289.519531 L 485.03125 289.007812 C 483.84375 288.6875 482.648438 288.375 481.449219 288.082031 C 479.058594 287.488281 476.667969 286.957031 474.265625 286.464844 C 471.863281 285.972656 469.460938 285.53125 467.046875 285.117188 C 465.078125 284.777344 463.105469 284.460938 461.136719 284.171875 C 460.804688 283.367188 460.472656 282.5625 460.128906 281.769531 C 459.609375 280.535156 459.074219 279.296875 458.511719 278.070312 C 457.949219 276.84375 457.398438 275.617188 456.804688 274.402344 C 456.511719 273.789062 456.210938 273.183594 455.898438 272.574219 L 455.4375 271.667969 C 455.277344 271.355469 455.105469 271.054688 454.945312 270.753906 C 454.796875 270.492188 454.585938 270.3125 454.304688 270.207031 C 454.027344 270.101562 453.746094 270.101562 453.464844 270.199219 C 453.1875 270.304688 452.972656 270.484375 452.828125 270.746094 C 452.683594 271.007812 452.640625 271.285156 452.703125 271.578125 L 453.15625 273.585938 C 453.316406 274.25 453.476562 274.914062 453.648438 275.597656 C 453.988281 276.90625 454.351562 278.210938 454.734375 279.507812 C 455.113281 280.804688 455.496094 282.082031 455.910156 283.367188 C 456.191406 284.242188 456.472656 285.128906 456.761719 286 L 448.851562 299.242188 C 448.699219 299.511719 448.652344 299.796875 448.71875 300.101562 C 448.785156 300.402344 448.941406 300.644531 449.195312 300.828125 Z M 449.195312 300.828125 " fill-opacity="1" fill-rule="nonzero"></path><g><g><path fill="#000000" d="M 204.414062 706.5 L 605.640625 706.5 L 605.640625 857.550781 L 204.414062 857.550781 Z M 204.414062 706.5 " fill-opacity="1" fill-rule="nonzero"></path></g></g></svg>