<?xml version="1.0" encoding="UTF-8" standalone="no"?>
<svg version="1.2" baseProfile="tiny-ps" viewBox="0 0 810 810" xmlns="http://www.w3.org/2000/svg">
  <title>Destination Mystery</title>
  <desc>The logo of the Destination Mystery Podcast, hosted by Michael Mickelsen and Melissa Morgan.</desc>
  <rect fill="#000000" width="810" height="810"/>
  <path stroke="#ffffff" stroke-width="4.6" d="m 363,533 c 0,0 -29,41 -19,82 0,0 -1,-13 5,-21 0,0 11,18 6,32 -5,14 4,30 4,30 0,0 -3,-12 5,-29 8,-16 35,56 38,62 v 0.4 l 0.1,-0.2 0.1,0.2 v -0.4 c 0.1,-0.3 0.3,-0.8 0.5,-1 V 549 l -0.6,0.3 z m 0,0"/>
  <path fill="#ffffff" d="m 486,518 -5,-20 -6,2 c -2,-2.7 -3.2,-4 -3,-4 l -3.8,1 c 3,-8 -3,-13 -3,-13 l -5,16 h -15 l 1,-11 c -7,-4 -13,-4 -20,0 l 1.8,10.5 h -6.5 l 1.18,-10.5 c -6.4,-4 -12.9,-4 -19.3,0 l 1.7,10.5 -0.9,11.2 a 273.5,268.7 0 0 0 -0.9,21.5 v 160.7 l 5,38.6 3.2,1.9 c 2.8,-6.4 21.8,-69.7 41.7,-91 2,8.7 0.1,14.3 0.1,14.3 0,0 0.5,-0.8 1.2,-2.2 -0.1,0.8 -0.3,1.5 -0.5,2.2 0,0 5.9,-9.6 6.2,-20.2 4,-2.3 7.4,-2.1 9.8,1.9 15.4,24.6 9.2,42.7 9.2,42.7 0,0 15.4,-24.9 6.5,-45.5 -8.8,-20.6 9.9,-48.1 9.9,-48.1 10.9,11.9 9.2,31.4 9.2,31.4 11.6,-39.3 -4.6,-78.2 -18.1,-101.5 z M 410.2,385 a 78.9,77.5 0 0 0 -1,-12.4 62.3,61.2 0 0 0 -1.6,-6.8 v 38.5 a 60.1,59 0 0 0 1.7,-6.9 76.8,75.5 0 0 0 1,-12.4 z m 0,0"/>
  <path fill="#ffffff" d="m 344,482.3 3,15.1 6.3,2.4 h 10.5 l -1.7,-10.5 a 16.5,16.2 0 0 1 2.2,-1.3 16.7,16.4 0 0 1 2.3,-0.9 c 0.8,-0.3 1.6,-0.4 2.5,-0.6 a 16.2,16 0 0 1 2.5,-0.2 16.3,16 0 0 1 4,0.8 16.9,16.6 0 0 1 2.4,0.9 c 0.8,0.4 1.5,0.8 2.2,1.3 l -1.2,10.5 h 7.6 l -1.7,-10.5 a 14.9,14.6 0 0 1 2.1,-1.3 15.2,14.9 0 0 1 2.3,-0.9 15.2,14.9 0 0 1 4.8,-0.8 15.2,14.9 0 0 1 4.8,0.8 c 0.8,0.3 1.5,0.6 2.3,0.9 0.7,0.4 1.4,0.8 2.1,1.3 l -1.1,10.5 h 4.5 v 231.6 c 0,-8.9 -0.1,-8.9 -0.1,-8.9 v 8.6 c -2.7,-6.4 -29,-68.3 -47.9,-89.2 l -0.3,-0.3 a 39.8,39.1 0 0 0 -0.2,15.2 c -4.8,-5.7 -5.5,-20.2 -5.5,-20.2 a 8.3,8.2 0 0 0 -4.4,-1.5 c -1.9,0 -3.6,1.1 -5,3.4 -14.6,24.6 -8.7,42.7 -8.7,42.7 0,0 -14.6,-24.9 -6.2,-45.5 8.4,-20.6 -9.5,-48.1 -9.5,-48.1 -10.4,11.9 -8.8,31.4 -8.8,31.4 -8.6,-30.9 -0.9,-61.5 8.9,-84.5 l 9.2,-37.2 6.1,2.5 h 4 c 1.9,-2.7 3.1,-4.2 3.1,-4.2 l 0.8,0.3 c -2.9,-8.5 0.9,-13.6 0.9,-13.6 m 0,-3.7 a 3.7,3.6 0 0 0 -1.7,0.4 3.7,3.7 0 0 0 -1.3,1.1 c -0.2,0.2 -4,5.5 -2.2,14 -0.4,0.5 -0.8,1.1 -1.5,2 h -1.3 l -5.4,-2.2 a 3.7,3.7 0 0 0 -1.6,-0.3 3.7,3.7 0 0 0 -2.2,0.8 3.7,3.6 0 0 0 -0.6,0.6 3.9,3.9 0 0 0 -0.4,0.7 3.9,3.9 0 0 0 -0.3,0.7 l -9.2,36.9 a 164.6,161.7 0 0 0 -11.6,39.9 116.9,114.9 0 0 0 -1.2,23.5 116.6,114.6 0 0 0 3.7,23.2 c 0.1,0.4 0.3,0.7 0.5,1.1 0.2,0.3 0.5,0.6 0.8,0.9 a 3.7,3.6 0 0 0 2.9,0.7 3.7,3.7 0 0 0 2.3,-1.4 3.6,3.5 0 0 0 0.6,-1.2 3.6,3.6 0 0 0 0.1,-1.3 c 0,-0.2 -1,-13.6 4.7,-24.2 4.4,8.5 11.9,26.1 6.3,39.8 -8.9,22 5.8,47.6 6.4,48.7 a 3.7,3.6 0 0 0 1.4,1.3 3.7,3.6 0 0 0 1.9,0.5 3.6,3.6 0 0 0 1.5,-0.3 c 0.4,-0.2 0.8,-0.4 1.1,-0.8 a 3.7,3.7 0 0 0 1.1,-2.4 3.7,3.7 0 0 0 -0.2,-1.3 c -0.05,-0.1 -5.1,-16 8.4,-39.7 0.9,-1.5 1.6,-1.5 1.8,-1.5 0.3,0.01 0.6,0.1 0.8,0.2 0.4,4.6 1.8,15 6.2,20.2 a 3.7,3.6 0 0 0 2.1,1.2 c 0.4,0.1 0.8,0.1 1.2,0.1 a 3.7,3.6 0 0 0 2.2,-1 c 0.3,-0.3 0.5,-0.6 0.7,-1 a 3.7,3.6 0 0 0 0.4,-1.2 3.7,3.6 0 0 0 -0.04,-1.2 35.6,34.9 0 0 1 -0.5,-5 c 17.8,24.6 39.3,75.3 41.9,81.5 l 0.06,0.1 a 3.7,3.6 0 0 0 1.2,1.6 3.6,3.6 0 0 0 2.3,0.8 3.4,3.3 0 0 0 0.9,-0.1 c 2.9,-0.7 2.9,-3.4 2.9,-4.4 V 499.9 c 0,-0.2 -0.03,-0.5 -0.1,-0.7 a 3.6,3.5 0 0 0 -0.6,-1.3 3.6,3.6 0 0 0 -0.5,-0.6 3.8,3.8 0 0 0 -0.6,-0.5 3.7,3.7 0 0 0 -0.6,-0.3 3.7,3.6 0 0 0 -1.4,-0.3 h -0.3 l 0.7,-6.5 a 3.6,3.6 0 0 0 -0.3,-1.9 3.6,3.6 0 0 0 -1.3,-1.5 19,18.6 0 0 0 -5.3,-2.7 19.2,18.8 0 0 0 -2.9,-0.7 19.2,18.9 0 0 0 -3,-0.2 c -1,0 -2,0.1 -3,0.2 a 19.1,18.8 0 0 0 -5.7,1.8 19.2,18.9 0 0 0 -2.6,1.5 3.2,3.2 0 0 0 -0.3,0.2 3.7,3.7 0 0 0 -0.4,-0.3 20,19.7 0 0 0 -5.5,-2.7 20.1,19.8 0 0 0 -17.6,2.7 3.6,3.6 0 0 0 -0.8,0.7 3.8,3.7 0 0 0 -0.9,1.9 3.8,3.7 0 0 0 0.02,1.1 l 1,6.3 h -5.4 l -3.8,-1.4 -2.5,-13.1 a 3.7,3.6 0 0 0 -1.3,-2.1 3.7,3.6 0 0 0 -1.1,-0.6 3.7,3.6 0 0 0 -1.3,-0.2 z m 0,0"/>
  <path fill="#ffffff" d="m 403.8,233.6 v 125.3 a 16.8,16.5 0 0 0 -3.7,-0.7 h -1 c -6.2,0 -19.1,5.1 -26.2,14.4 a 23.7,23.3 0 0 0 -4,7.2 23.7,23.2 0 0 0 -1.2,8.1 v 0.5 c 1.2,7 7.2,20.7 21.9,22.5 1.1,0.1 2.3,0.2 3.4,0.2 a 36.9,36.3 0 0 0 10.7,-1.7 v 41.2 h -6 l 1.5,4.7 a 55.6,54.7 0 0 1 2.1,13 c -3.9,0.4 -7.8,0.6 -11.8,0.5 -3.9,0.04 -7.8,-0.1 -11.7,-0.5 0.2,-3 0.7,-5.9 1.5,-8.8 l 1.7,-6.5 -6.4,2 h -0.1 a 100.8,99 0 0 0 -13.1,5.1 l -1,0.5 -0.6,1 -4.4,7.2 h -8.9 l -1,0.7 a 106.9,105 0 0 0 -6.6,5.1 103.5,101.7 0 0 0 -10.1,9.7 c -0.5,-23.9 6.9,-35.7 7.9,-37.2 a 119.9,117.8 0 0 0 7.5,-8.4 l 2.3,-2.7 -2.7,-2.3 -21.4,-18.2 -2.4,-2 -2.4,2 -11.4,9.4 -28,-18.8 v -37.3 l 11.2,-16.6 0.6,-0.9 v -39.2 a 39.5,38.8 0 0 1 0.8,-7.5 39.4,38.7 0 0 1 2.2,-7.2 38.8,38.1 0 0 1 1.6,-3.4 38.2,37.6 0 0 1 2,-3.2 39.7,39 0 0 1 2.3,-3 39.5,38.8 0 0 1 5.4,-5.3 39.1,38.4 0 0 1 9.8,-5.8 39.4,38.7 0 0 1 3.6,-1.3 38.4,37.7 0 0 1 3.7,-0.9 39,38.3 0 0 1 7.6,-0.8 h 15.7 l 1.1,-1.2 c 13.4,-14.6 32.8,-27.7 57.8,-38.8 m 1.7,-4.8 c -28.3,12.2 -48.5,26 -62.3,41.1 h -14 a 43.2,42.5 0 0 0 -8.4,0.8 43.1,42.3 0 0 0 -8,2.4 42.9,42.1 0 0 0 -7.4,3.9 43.4,42.6 0 0 0 -6.5,5.2 43.1,42.3 0 0 0 -9.3,13.6 43.5,42.7 0 0 0 -2.5,7.9 43.2,42.5 0 0 0 -0.8,8.2 v 38 l -11.8,17.5 v 40.4 l 31.9,21.4 13.6,-11.1 21.4,18.2 a 118.8,116.7 0 0 1 -7.5,8.3 c 0,0 -11.6,15.2 -8.2,49.2 a 98.8,97 0 0 1 15.7,-16.7 106.7,104.8 0 0 1 6.4,-4.9 h 9.8 l 5.5,-8.9 a 97,95.3 0 0 1 12.7,-4.9 54.1,53.2 0 0 0 -1.7,12.2 c 0,1.1 7.8,1.6 15.6,1.6 7.8,0 15.6,-0.5 15.6,-1.6 a 61.9,60.8 0 0 0 -2.4,-16.6 h 4.7 v -48.6 l -0.4,-0.1 c 0.1,-0.4 0.2,-0.8 0.4,-1.3 V 365.8 c -0.2,-0.7 -0.4,-1.5 -0.7,-2.2 l 0.1,-0.1 c 0.2,-0.1 0.4,-0.2 0.5,-0.3 V 229.8 c -0.7,-0.3 -1.3,-0.7 -2.1,-1 z M 393.1,407.3 a 23.1,22.7 0 0 1 -3,-0.2 c -15.8,-1.9 -18.7,-19.5 -18.7,-19.5 a 20.2,19.8 0 0 1 1,-6.9 20.4,20 0 0 1 3.4,-6.1 c 6.5,-8.5 18.5,-12.9 23.3,-12.9 h 0.6 c 1.6,0.1 3.1,0.5 4.5,1.4 a 54.9,53.9 0 0 0 -2.5,9.5 76.9,75.5 0 0 0 -1,12.4 75.8,74.5 0 0 0 1,12.4 56.2,55.3 0 0 0 2,8.1 34,33.4 0 0 1 -10.7,1.9 z m 0,0"/>
  <path fill="#ffffff" d="m 524.7,350.1 v -38 a 43.2,42.5 0 0 0 -0.8,-8.2 43.2,42.4 0 0 0 -2.5,-7.9 42.9,42.1 0 0 0 -1.8,-3.7 42.7,41.9 0 0 0 -4.7,-6.9 43,42.2 0 0 0 -12.9,-10.4 42.9,42.1 0 0 0 -3.8,-1.8 43.5,42.7 0 0 0 -4,-1.4 42.4,41.7 0 0 0 -4.1,-1 43.2,42.5 0 0 0 -8.4,-0.8 H 462.1 A 165.4,162.5 0 0 0 436.9,247.1 165.5,162.6 0 0 0 407.5,229.8 v 133.3 a 7.8,7.7 0 0 1 3,-1.2 7.9,7.7 0 0 1 3.26746,0.10434 c 11.31483,2.69065 17.67272,7.67901 21.2331,12.66736 a 24.628878,24.193256 0 0 1 3.16304,6.17764 24.587283,24.152396 0 0 1 1.26909,6.79835 29.201713,28.685209 0 0 1 -1.98419,6.09851 c -4.69851,8.3884 -10.90773,11.77106 -16.64965,12.8334 -4.53919,0.77113 -8.99876,0.44512 -13.37246,-0.97366 v 48.53342 h 2.14438 a 57.438765,56.42282 0 0 0 -2.15412,12.34482 v 4.55021 c 2.63112,1.90127 30.92659,1.80305 30.92659,-0.29211 a 53.792534,52.841082 0 0 0 -1.5585,-11.69281 98.894296,97.145107 0 0 1 13.25033,5.50563 l 4.8817,7.90241 h 8.32085 a 99.412911,97.654548 0 0 1 11.37412,9.46033 c 0.48676,0.47553 0.99209,0.97453 1.43813,1.45007 a 96.759654,95.048224 0 0 1 3.54004,3.74258 c 0.45578,0.50597 0.92306,1.02235 1.37885,1.54832 1.49742,1.75262 2.97716,3.53566 4.34539,5.39608 3.37187,-33.98914 -8.18191,-49.19935 -8.18191,-49.19935 a 105.83364,103.96171 0 0 1 -7.50928,-8.33711 l 21.40301,-18.23904 13.59637,11.12425 31.87798,-21.43132 v -40.38413 z m -18.10725,-40.53017 c -9.91917,31.4967 -25.13422,39.18529 -25.13422,39.18529 -20.07463,13.04377 -39.44479,8.14323 -49.3312,3.97294 a 8.2190659,8.0736917 0 0 1 -1.36914,-0.73721 8.3234969,8.1762755 0 0 1 -1.20979,-0.97368 8.5102334,8.3597092 0 0 1 -1.00269,-1.17536 8.2571213,8.1110739 0 0 1 -0.76467,-1.34142 8.2748213,8.128461 0 0 1 -0.49737,-1.45355 8.0712696,7.9285096 0 0 1 -0.21417,-1.52138 c -0.0248,-0.51291 0,-1.02236 0.0725,-1.5318 a 8.7792757,8.6239928 0 0 1 0.36288,-1.49442 c 10.50238,-30.92292 19.22146,-35.07235 19.22146,-35.07235 20.03305,-17.3497 43.42025,-12.24572 54.86695,-8.07631 a 8.3544721,8.2067028 0 0 1 3.75063,2.79498 c 0.31862,0.41816 0.59119,0.86675 0.81954,1.33532 0.23188,0.47207 0.41506,0.96064 0.54959,1.46662 a 7.9650687,7.8241871 0 0 1 0.2593,1.53875 8.1279101,7.9841481 0 0 1 -0.0417,1.55875 c -0.0619,0.519 -0.177,1.02844 -0.33895,1.52483 z M 398.19341,184.66446 h 4.03741 l 8.28013,12.47959 h 0.0513 v -12.47871 h 3.04266 v 16.84373 h -3.86482 l -8.45271,-12.88817 h -0.0488 v 12.88817 h -3.04517 z M 244.14013,337.95247 h 3.30108 l 3.21524,12.09966 h 0.0479 l 3.83737,-12.09966 h 2.97718 l 3.7675,12.09966 h 0.0486 l 3.35418,-12.09966 h 3.09312 l -4.95694,16.80635 h -2.90726 l -3.96482,-12.79255 h -0.0531 l -3.96484,12.79255 h -2.80726 z m 306.85869,0 h 11.32544 v 2.70978 h -8.28013 v 4.12942 h 7.84472 v 2.69935 h -7.84472 v 4.55801 h 8.7191 v 2.70979 h -11.76441 z m 0,0"/>
  <path fill="#ffffff" d="m 231.34557,344.66562 c 0,-94.91174 78.62054,-172.14168 175.23862,-172.14168 96.62156,0 175.2421,77.22994 175.2421,172.14168 0,68.25471 -40.6661,127.35429 -99.40759,155.17709 l 4.39407,17.65486 a 206.78027,203.12285 0 0 1 3.64002,6.98524 c 63.5825,-28.7391 109.44359,-89.06793 116.55552,-160.40888 l 0.71153,0.70941 20.4729,-20.11687 -20.4729,-20.11075 -0.71243,0.70244 C 597.69447,231.7313 521.86083,157.13985 426.71809,147.81864 l 0.59473,-0.58421 -20.46935,-20.11686 -20.47287,20.11686 0.5779,0.55377 c -95.21089,9.10041 -171.20473,83.55277 -180.74512,176.99181 l -0.22832,-0.22429 -20.47997,20.1099 20.47909,20.11772 0.21859,-0.22431 c 7.25973,71.02277 52.93409,131.04559 116.23956,159.77861 l 6.33664,-25.48687 c -57.68478,-28.21313 -97.4234,-86.70762 -97.4234,-154.18515 z m 0,0"/>
  <path fill="#ffffff" d="m 659.39279,342.77477 c 0,-136.79461 -113.2916,-248.091932 -252.53868,-248.091932 -139.25066,0 -252.56261,111.338182 -252.56261,248.091932 0,102.67507 63.84179,190.95189 154.58252,228.64621 a 159.02082,156.20814 0 0 1 2.97627,-14.01832 C 227.60553,521.32446 168.55517,438.73929 168.55517,342.77477 c 0,-129.06866 106.90627,-234.08403 238.29894,-234.08403 131.39264,0 238.29537,105.05623 238.29537,234.08403 0,95.47594 -58.51405,177.72206 -142.14108,214.10193 a 150.4398,147.7789 0 0 1 3.07362,14.00791 C 596.1351,532.97989 659.39191,445.0734 659.39191,342.77477 Z m 0,0"/>
  <path fill="#ffffff" d="m 334.6,295.3 v 3.7 a 44.5,43.7 0 0 1 16.2,2.8 44.4,43.6 0 0 1 7.4,3.6 44.2,43.4 0 0 1 6.6,4.8 l 0.2,0.3 0.6,0.2 c 0.8,0.6 8.3,6.3 17.4,33 a 4.6,4.5 0 0 1 0.3,1.7 4.5,4.4 0 0 1 -0.1,0.8 4.7,4.6 0 0 1 -2.7,3.2 51.2,50.3 0 0 1 -20.1,4.1 45.8,45 0 0 1 -13.4,-2 45.8,45 0 0 1 -12.3,-5.8 l -0.1,-0.1 -0.2,-0.1 c -0.1,-0.1 -14.1,-7.7 -23.3,-37 a 4.6,4.5 0 0 1 -0.2,-1.7 4.9,4.8 0 0 1 0.1,-0.9 c 0.1,-0.3 0.2,-0.6 0.3,-0.8 0.1,-0.3 0.3,-0.5 0.4,-0.7 0.2,-0.2 0.4,-0.5 0.6,-0.6 a 4.7,4.6 0 0 1 1.5,-0.9 60.6,59.6 0 0 1 20.8,-3.8 v -3.7 m 0,0 a 64.2,63 0 0 0 -22.1,4.1 8.5,8.3 0 0 0 -3.7,2.8 8.4,8.3 0 0 0 -1.6,4.3 8.4,8.3 0 0 0 0.4,3.1 c 9.9,31.5 25.1,39.2 25.1,39.2 a 49.3,48.5 0 0 0 13.2,6.3 49.3,48.4 0 0 0 14.5,2.2 c 7.5,-0.1 14.7,-1.5 21.5,-4.5 a 8.4,8.2 0 0 0 1.4,-0.7 8.5,8.3 0 0 0 2.2,-2.1 8.7,8.5 0 0 0 0.8,-1.3 c 0.2,-0.5 0.4,-1 0.5,-1.5 a 8.4,8.2 0 0 0 -0.2,-4.5 C 376.1,311.6 367.4,307.4 367.4,307.4 a 48,47.2 0 0 0 -7.2,-5.2 48.2,47.3 0 0 0 -16.6,-6.2 48.1,47.2 0 0 0 -8.9,-0.7 z m 116.2,42.9 c 0.2,0.1 0.4,0.2 0.7,0.2 0.4,0 0.7,-0.1 0.9,-0.4 l 9.5,-11.2 c 1.9,0.3 3.8,0.7 5.7,1 2.4,0.4 4.8,0.7 7.2,1.1 2.4,0.3 4.8,0.6 7.2,0.8 1.2,0.1 2.4,0.2 3.6,0.3 l 1.8,0.1 c 0.6,0 1.2,0.1 1.9,0.1 0.3,0.003 0.6,-0.1 0.8,-0.3 0.2,-0.2 0.4,-0.4 0.4,-0.7 a 1.2,1.2 0 0 0 -0.2,-0.8 1.2,1.2 0 0 0 -0.6,-0.5 57.9,56.9 0 0 0 -1.8,-0.5 l -1.8,-0.5 a 170.2,167.2 0 0 0 -10.6,-2.5 222.7,218.8 0 0 0 -7.1,-1.3 244.1,239.8 0 0 0 -5.8,-0.9 c -0.3,-0.8 -0.7,-1.6 -1,-2.3 a 125.5,123.3 0 0 0 -1.6,-3.6 c -0.6,-1.2 -1.1,-2.4 -1.7,-3.6 a 72.6,71.4 0 0 0 -0.9,-1.8 l -0.5,-0.9 c -0.2,-0.3 -0.3,-0.6 -0.5,-0.9 a 1.2,1.2 0 0 0 -0.6,-0.5 1.2,1.1 0 0 0 -0.8,-0.01 1.1,1.1 0 0 0 -0.6,0.5 c -0.1,0.3 -0.2,0.5 -0.1,0.8 l 0.4,1.9 c 0.2,0.6 0.3,1.3 0.5,1.9 0.3,1.3 0.7,2.5 1.1,3.8 0.4,1.3 0.8,2.5 1.2,3.7 0.3,0.8 0.6,1.7 0.8,2.6 l -7.8,12.8 a 1.2,1.1 0 0 0 -0.1,0.8 c 0.1,0.3 0.2,0.5 0.5,0.7 z m 0,0"/>
  <path fill="#ffffff" d="m 532,591 h -3.4 v 8.8 h -2.8 v -8.8 h -3.4 v -2.1 h 9.6 z m 12.1,8.8 h -2.8 v -7.3 l -2,4.7 h -1.9 l -2,-4.7 v 7.3 h -2.7 v -10.9 h 3.3 l 2.5,5.5 2.4,-5.5 h 3.3 z"/>
</svg>
