<?xml version="1.0" encoding="UTF-8"?>
<svg xmlns="http://www.w3.org/2000/svg" baseProfile="tiny-ps" preserveAspectRatio="xMidYMid meet" version="1.2" viewBox="0 0 810 810">
<title>Destination Mystery</title>
<desc>The logo of the Destination Mystery Podcast, hosted by Michael Mickelsen and Melissa Morgan.</desc>
<path d="M-81-81h972v972H-81z" fill="#fff" fill-opacity="1">
</path>
<path d="M-81-81h972v972H-81z" fill="#fff" fill-opacity="1">
</path>
<path d="M-81-81h972v972H-81z" fill="#000" fill-opacity="1">
</path>
<path d="M355.18 559.422s-32.567 47.066-20.992 94.832c0 0-1.121-15.02 5.863-24.183 0 0 11.945 21.12 6.332 36.98-5.617 15.855 4.156 35.02 4.156 35.02s-3.945-13.895 5.828-32.79c9.38-18.156 39.996 64.649 42.418 71.274v.414l.078-.203.079.203v-.414c.12-.336.335-.918.605-1.625V578.059l-.684.293Zm0 0" fill="none" stroke="#fff" stroke-linecap="round" stroke-linejoin="round" stroke-miterlimit="4" stroke-opacity="1" stroke-width="4.214">
</path>
<path d="m493.805 541.738-5.907-23.21-7.128 2.804c-2.239-3.07-3.606-4.742-3.606-4.742l-4.238 1.547c3.418-9.774-3.442-14.817-3.442-14.817l-5.421 18.055h-17.504l1.386-12.09c-7.55-4.574-15.097-4.574-22.636 0l2.074 12.09h-7.34l1.332-12.09c-7.277-4.574-14.547-4.574-21.809 0l1.961 12.078-1.039 12.832a309.044 309.044 0 0 0-.965 24.758V743.77l5.77 44.414 3.566 2.238c3.192-7.34 24.653-80.125 47.067-104.793 2.242 10.008.09 16.418.09 16.418s.558-.95 1.355-2.543c-.125.863-.308 1.71-.558 2.543 0 0 6.667-11.035 6.98-23.285 4.484-2.692 8.336-2.387 11.129 2.152 17.36 28.274 10.344 49.063 10.344 49.063s17.347-28.692 7.382-52.383c-9.96-23.688 11.207-55.301 11.207-55.301 12.329 13.727 10.41 36.172 10.41 36.172 13.102-45.207-5.218-89.934-20.46-116.727ZM408.453 389.25a89.097 89.097 0 0 0-1.121-14.234 70.387 70.387 0 0 0-1.86-7.844v44.258a67.891 67.891 0 0 0 1.872-7.914 86.794 86.794 0 0 0 1.11-14.266Zm0 0" fill="#fff" fill-opacity="1" fill-rule="nonzero">
</path>
<path d="M404.688 364.586c.304.851.507 1.71.765 2.566v-3.093c-.191.12-.406.21-.598.359Zm.347 48.277.418.121v-1.578c-.148.48-.25.996-.418 1.457Zm0 0" fill="#606161" fill-opacity="1" fill-rule="nonzero">
</path>
<path d="m333.672 501.227 3.363 17.39 7.172 2.758h11.879l-1.95-12.09a18.612 18.612 0 0 1 2.458-1.476 18.858 18.858 0 0 1 2.652-1.079c.91-.289 1.84-.507 2.79-.656a18.352 18.352 0 0 1 2.855-.219 18.425 18.425 0 0 1 5.64.875 19.1 19.1 0 0 1 2.656 1.079c.856.43 1.672.921 2.454 1.476l-1.309 12.09h8.54l-1.884-12.09a16.824 16.824 0 0 1 2.352-1.473 17.14 17.14 0 0 1 2.555-1.078 17.177 17.177 0 0 1 5.457-.879 17.177 17.177 0 0 1 5.46.879c.88.29 1.735.653 2.555 1.079.824.425 1.61.917 2.352 1.472l-1.266 12.09h5.031v266.45c0-10.212-.12-10.212-.12-10.212v9.899c-3.063-7.41-32.747-78.606-54.141-102.645l-.383-.312a44.998 44.998 0 0 0-.266 17.449c-5.46-6.602-6.222-23.29-6.222-23.29a9.4 9.4 0 0 0-4.965-1.714c-2.16 0-4.067 1.21-5.602 3.867-16.496 28.274-9.828 49.063-9.828 49.063s-16.496-28.688-7.016-52.38c9.48-23.69-10.691-55.304-10.691-55.304-11.742 13.727-9.895 36.176-9.895 36.176-9.695-35.492-1.043-70.703 10.086-97.16l10.446-42.778 6.867 2.848h4.484c2.14-3.094 3.453-4.785 3.453-4.785l.938.36c-3.281-9.81 1.012-15.692 1.012-15.692m0-4.215a4.198 4.198 0 0 0-1.891.477 4.205 4.205 0 0 0-1.473 1.273c-.203.281-4.484 6.363-2.52 16.105-.394.536-.952 1.297-1.66 2.297h-1.48l-6.094-2.523a4.204 4.204 0 0 0-1.773-.317 4.2 4.2 0 0 0-2.504.945 4.14 4.14 0 0 0-.637.645 4.445 4.445 0 0 0-.484.766 4.44 4.44 0 0 0-.309.852l-10.363 42.44a186.02 186.02 0 0 0-13.058 45.946 132.113 132.113 0 0 0-1.325 26.98 131.77 131.77 0 0 0 4.184 26.688c.121.446.312.86.57 1.246.258.383.574.715.942.992a4.181 4.181 0 0 0 3.285.801 4.203 4.203 0 0 0 2.601-1.57 4.05 4.05 0 0 0 .707-1.375 4.105 4.105 0 0 0 .164-1.54c0-.179-1.12-15.687 5.325-27.823 4.988 9.738 13.449 30.011 7.148 45.734-10.086 25.305 6.559 54.8 7.274 56.031a4.14 4.14 0 0 0 1.543 1.551 4.127 4.127 0 0 0 2.109.567 4.11 4.11 0 0 0 1.703-.356c.477-.21.902-.5 1.27-.867a4.204 4.204 0 0 0 1.238-2.754 4.2 4.2 0 0 0-.2-1.524c-.054-.167-5.769-19.546 9.45-45.644 1.043-1.781 1.758-1.781 1.984-1.781.32.008.63.066.93.18.457 5.308 2.004 17.245 7.015 23.285a4.18 4.18 0 0 0 2.34 1.437c.457.102.922.125 1.387.07a4.172 4.172 0 0 0 2.473-1.191c.332-.332.605-.707.812-1.129a4.16 4.16 0 0 0 .406-1.328 4.16 4.16 0 0 0-.046-1.39 40.187 40.187 0 0 1-.614-5.805c20.082 28.285 44.41 86.593 47.368 93.777l.07.144a4.188 4.188 0 0 0 1.344 1.864 4.095 4.095 0 0 0 2.609.906 3.82 3.82 0 0 0 .965-.113c3.25-.762 3.25-3.875 3.25-5.051V521.375c0-.277-.028-.55-.082-.82a4.074 4.074 0 0 0-.629-1.52 4.12 4.12 0 0 0-.524-.64 4.323 4.323 0 0 0-.636-.524 4.21 4.21 0 0 0-.73-.387 4.183 4.183 0 0 0-1.613-.324h-.357l.782-7.43a4.094 4.094 0 0 0-.375-2.238 4.099 4.099 0 0 0-1.485-1.715 21.449 21.449 0 0 0-6.015-3.078 21.668 21.668 0 0 0-3.297-.793 21.733 21.733 0 0 0-3.38-.265c-1.132 0-2.257.09-3.378.265a21.62 21.62 0 0 0-6.426 2.094 21.696 21.696 0 0 0-2.886 1.777 3.633 3.633 0 0 0-.348.258 4.232 4.232 0 0 0-.402-.293 22.625 22.625 0 0 0-6.196-3.05 22.74 22.74 0 0 0-19.847 3.05 4.099 4.099 0 0 0-.926.797 4.238 4.238 0 0 0-.988 2.2 4.25 4.25 0 0 0 .019 1.218l1.121 7.203h-6.14l-4.262-1.633-2.88-15.086a4.19 4.19 0 0 0-1.452-2.46 4.176 4.176 0 0 0-1.262-.72 4.174 4.174 0 0 0-1.43-.25Zm0 0" fill="#fff" fill-opacity="1" fill-rule="nonzero">
</path>
<path d="M346.383 667.028c5.602-15.836-6.332-36.98-6.332-36.98-6.961 9.167-5.863 24.183-5.863 24.183-11.575-47.809 20.992-94.832 20.992-94.832l43.703 18.93.684-.294v160.871c-.266.708-.48 1.29-.606 1.625l2.758 3.239s-2.777-2.89-2.836-3.024a1.24 1.24 0 0 1-.078.2v-.415c-2.418-6.62-33.035-89.43-42.414-71.273" fill="none" stroke="#fff" stroke-linecap="butt" stroke-linejoin="round" stroke-miterlimit="4" stroke-opacity="1" stroke-width="4.214">
</path>
<path d="M405.203 487.957c0 .125.102.227.25.336v-5.234a107.037 107.037 0 0 0-.25 4.898Zm0 0" fill="#606161" fill-opacity="1" fill-rule="nonzero">
</path>
<path d="M401.238 215.043v144.16a19.025 19.025 0 0 0-4.148-.84h-1.121c-7.004 0-21.594 5.875-29.653 16.508a26.792 26.792 0 0 0-4.476 8.317 26.736 26.736 0 0 0-1.348 9.347v.524c1.309 8.035 8.156 23.78 24.719 25.89 1.281.168 2.566.25 3.855.246a41.748 41.748 0 0 0 12.106-1.96v47.378h-6.817l1.672 5.45a62.88 62.88 0 0 1 2.399 14.968c-4.414.473-8.84.684-13.281.63-4.422.05-8.836-.157-13.235-.618.254-3.41.8-6.77 1.649-10.086l1.937-7.441-7.195 2.332h-.121a113.867 113.867 0 0 0-14.762 5.918l-1.121.539-.649 1.117-5.007 8.262h-10.086l-1.121.804a120.792 120.792 0 0 0-7.5 5.895 116.94 116.94 0 0 0-11.442 11.207c-.558-27.488 7.848-41.117 8.965-42.785a135.497 135.497 0 0 0 8.508-9.637l2.543-3.16-3.07-2.668-24.184-20.98-2.7-2.352-2.757 2.297-12.91 10.757-31.602-21.605V370.5l12.652-19.05.704-1.052v-45.043a44.618 44.618 0 0 1 .859-8.625 44.466 44.466 0 0 1 2.523-8.293 43.862 43.862 0 0 1 1.86-3.921 43.211 43.211 0 0 1 2.23-3.723 44.902 44.902 0 0 1 2.586-3.484 44.64 44.64 0 0 1 6.129-6.133 44.167 44.167 0 0 1 11.129-6.676 44.542 44.542 0 0 1 4.082-1.465 43.38 43.38 0 0 1 4.211-1.058 44.016 44.016 0 0 1 8.625-.864h17.75l1.254-1.398c15.098-16.813 37.074-31.828 65.36-44.672m1.894-5.469c-31.942 14.043-54.778 29.946-70.39 47.324h-15.868a48.866 48.866 0 0 0-9.445.953 48.698 48.698 0 0 0-9.078 2.773 48.48 48.48 0 0 0-8.372 4.481 48.989 48.989 0 0 0-7.335 6.028 48.645 48.645 0 0 0-10.512 15.699 49.133 49.133 0 0 0-2.773 9.082 48.866 48.866 0 0 0-.954 9.441v43.707l-13.36 20.172v46.454l36.02 24.652 15.364-12.797 24.183 20.98a134.232 134.232 0 0 1-8.484 9.59s-13.055 17.496-9.246 56.594a111.609 111.609 0 0 1 17.73-19.164 120.508 120.508 0 0 1 7.219-5.68h11.106l6.242-10.289a109.608 109.608 0 0 1 14.297-5.601 61.18 61.18 0 0 0-1.926 14.03c0 1.267 8.797 1.892 17.594 1.892 8.796 0 17.593-.625 17.593-1.891a69.93 69.93 0 0 0-2.687-19.152h5.367v-55.868l-.414-.12c.168-.493.27-.977.414-1.458v-44.254c-.258-.855-.461-1.714-.762-2.566l.168-.168c.192-.148.403-.238.594-.36V210.685c-.785-.371-1.523-.762-2.32-1.121Zm-14 205.36a26.076 26.076 0 0 1-3.36-.211c-17.82-2.243-21.09-22.414-21.09-22.414a22.815 22.815 0 0 1 1.169-7.922 23.015 23.015 0 0 1 3.804-7.051c7.387-9.727 20.903-14.836 26.305-14.836h.684c1.84.07 3.543.59 5.109 1.559a62.02 62.02 0 0 0-2.793 10.902 86.853 86.853 0 0 0-1.117 14.234 85.674 85.674 0 0 0 1.117 14.243 63.556 63.556 0 0 0 2.242 9.277 38.382 38.382 0 0 1-12.101 2.164Zm0 0" fill="#fff" fill-opacity="1" fill-rule="nonzero">
</path>
<path d="M402.816 364.941a43.627 43.627 0 0 1 3.735 11.813 68.141 68.141 0 0 1 1.02 11.824 67.305 67.305 0 0 1-1.009 11.813 42.829 42.829 0 0 1-3.746 11.808 42.797 42.797 0 0 1-3.73-11.808 65.791 65.791 0 0 1-1.02-11.813 66.656 66.656 0 0 1 1.032-11.824 43.28 43.28 0 0 1 3.718-11.813Zm0 0" fill="#fff" fill-opacity="1" fill-rule="nonzero">
</path>
<path d="M537.867 349.098V305.39a48.866 48.866 0 0 0-.953-9.445 48.774 48.774 0 0 0-2.773-9.078 48.443 48.443 0 0 0-2.04-4.294 48.247 48.247 0 0 0-5.28-7.89 48.56 48.56 0 0 0-14.602-11.989 48.443 48.443 0 0 0-4.293-2.039 49.167 49.167 0 0 0-4.473-1.605 47.933 47.933 0 0 0-4.61-1.164 48.866 48.866 0 0 0-9.445-.953h-22.332a186.894 186.894 0 0 0-28.421-26.297 187.037 187.037 0 0 0-33.215-19.899v153.32a8.862 8.862 0 0 1 3.425-1.378 8.911 8.911 0 0 1 3.692.12c12.785 3.095 19.969 8.833 23.992 14.571a27.829 27.829 0 0 1 3.574 7.106 27.782 27.782 0 0 1 1.434 7.82 32.996 32.996 0 0 1-2.242 7.015c-5.309 9.649-12.325 13.54-18.813 14.762-5.129.887-10.168.512-15.11-1.12v55.827h2.423a64.902 64.902 0 0 0-2.434 14.2v5.234c2.973 2.187 34.945 2.074 34.945-.336a60.782 60.782 0 0 0-1.761-13.45 111.744 111.744 0 0 1 14.972 6.333l5.516 9.09h9.402a112.33 112.33 0 0 1 12.852 10.882c.55.547 1.121 1.121 1.625 1.668a109.332 109.332 0 0 1 4 4.305c.515.582 1.043 1.176 1.558 1.781 1.692 2.016 3.364 4.067 4.91 6.207 3.81-39.097-9.245-56.593-9.245-56.593a119.585 119.585 0 0 1-8.485-9.59l24.184-20.98 15.363 12.796 36.02-24.652v-46.453Zm-20.46-46.621c-11.208 36.23-28.4 45.074-28.4 45.074-22.683 15.004-44.57 9.367-55.741 4.57a9.287 9.287 0 0 1-1.547-.848 9.405 9.405 0 0 1-1.367-1.12 9.616 9.616 0 0 1-1.133-1.352 9.33 9.33 0 0 1-.864-1.543 9.35 9.35 0 0 1-.562-1.672 9.12 9.12 0 0 1-.242-1.75c-.028-.59 0-1.176.082-1.762a9.92 9.92 0 0 1 .41-1.719c11.867-35.57 21.719-40.343 21.719-40.343 22.636-19.957 49.062-14.086 61.996-9.29a9.44 9.44 0 0 1 4.238 3.215c.36.481.668.997.926 1.536.262.543.469 1.105.621 1.687a9 9 0 0 1 .293 1.77 9.184 9.184 0 0 1-.047 1.793c-.07.597-.2 1.183-.383 1.754ZM394.882 158.809h4.562l9.356 14.355h.058V158.81h3.438v19.375h-4.367l-9.551-14.825h-.055v14.825h-3.441Zm-174.07 176.324h3.73l3.633 13.918h.054l4.336-13.918h3.364l4.257 13.918h.055l3.79-13.918h3.495l-5.601 19.332h-3.285l-4.48-14.715h-.06l-4.48 14.715h-3.172Zm346.73 0h12.797v3.117h-9.356V343h8.864v3.105h-8.864v5.243h9.852v3.117h-13.293Zm0 0" fill="#fff" fill-opacity="1" fill-rule="nonzero">
</path>
<path d="M206.355 342.855c0-109.175 88.836-198.011 198.008-198.011 109.176 0 198.012 88.836 198.012 198.011 0 78.512-45.95 146.493-112.324 178.497l4.965 20.308a233.648 233.648 0 0 1 4.113 8.035c71.844-33.058 123.664-102.453 131.7-184.515l.804.816 23.133-23.14-23.133-23.133-.805.808c-10.523-107.582-96.21-193.383-203.715-204.105l.672-.672-23.129-23.14-23.133 23.14.653.637c-107.582 10.468-193.45 96.109-204.23 203.59l-.258-.258-23.141 23.132 23.14 23.141.247-.258c8.203 81.696 59.812 150.739 131.343 183.79l7.16-29.317c-65.18-32.453-110.082-99.738-110.082-177.356Zm0 0" fill="#fff" fill-opacity="1" fill-rule="nonzero">
</path>
<path d="M690.02 340.68c0-157.352-128.012-285.375-285.352-285.375-157.344 0-285.379 128.07-285.379 285.375 0 118.105 72.137 219.648 174.668 263.007a179.683 179.683 0 0 1 3.363-16.125c-95.191-41.5-161.914-136.496-161.914-246.882 0-148.465 120.797-269.262 269.262-269.262S673.926 192.262 673.926 340.68c0 109.824-66.117 204.43-160.61 246.277a169.987 169.987 0 0 1 3.473 16.113c101.754-43.601 173.23-144.718 173.23-262.39Zm0 0" fill="#fff" fill-opacity="1" fill-rule="nonzero">
</path>
<path d="M323.04 286.047v4.203a50.316 50.316 0 0 1 18.32 3.246 50.143 50.143 0 0 1 8.398 4.098 49.943 49.943 0 0 1 7.492 5.578l.238.36.625.245c.942.649 9.426 7.297 19.649 37.903a5.2 5.2 0 0 1 .285 1.938 5.106 5.106 0 0 1-.129.976 5.282 5.282 0 0 1-3.05 3.652 57.831 57.831 0 0 1-22.661 4.762 51.758 51.758 0 0 1-15.191-2.313 51.793 51.793 0 0 1-13.856-6.652l-.156-.113-.211-.102c-.16-.09-15.95-8.875-26.336-42.582a5.225 5.225 0 0 1-.25-1.969 5.57 5.57 0 0 1 .156-.984c.086-.32.2-.633.34-.934.145-.3.313-.586.508-.855.2-.27.418-.52.66-.746a5.285 5.285 0 0 1 1.68-1.059 68.514 68.514 0 0 1 23.531-4.426v-4.214m0 0a72.514 72.514 0 0 0-25 4.683 9.56 9.56 0 0 0-4.21 3.23 9.498 9.498 0 0 0-1.821 4.981 9.534 9.534 0 0 0 .426 3.535c11.207 36.23 28.41 45.075 28.41 45.075a55.755 55.755 0 0 0 14.96 7.207 55.715 55.715 0 0 0 16.419 2.507c8.457-.062 16.566-1.777 24.328-5.144a9.481 9.481 0 0 0 1.55-.848 9.586 9.586 0 0 0 2.497-2.473 9.794 9.794 0 0 0 .863-1.542c.238-.54.426-1.098.558-1.672a9.483 9.483 0 0 0-.257-5.23c-11.868-35.571-21.707-40.345-21.707-40.345a54.236 54.236 0 0 0-8.106-6.023 54.46 54.46 0 0 0-18.812-7.11 54.32 54.32 0 0 0-10.063-.843Zm131.254 49.32c.23.168.488.25.773.246.422 0 .766-.16 1.04-.48l10.75-12.922c2.128.402 4.265.777 6.41 1.12 2.687.45 5.39.856 8.101 1.223 2.711.36 5.422.672 8.156.93 1.368.121 2.735.246 4.102.336l2.074.113c.695 0 1.39.067 2.098.078.332.004.625-.101.883-.312.257-.211.414-.48.472-.809a1.36 1.36 0 0 0-.18-.922 1.334 1.334 0 0 0-.73-.59 65.43 65.43 0 0 0-2.004-.617l-1.996-.574a192.361 192.361 0 0 0-12-2.832 251.66 251.66 0 0 0-8.047-1.504 275.78 275.78 0 0 0-6.59-1.054c-.37-.895-.738-1.793-1.12-2.676a141.852 141.852 0 0 0-1.805-4.125c-.63-1.367-1.243-2.735-1.907-4.09a82.076 82.076 0 0 0-1.007-2.04l-.516-1.007c-.18-.348-.367-.683-.547-1.02a1.344 1.344 0 0 0-.71-.609 1.315 1.315 0 0 0-.938-.008 1.286 1.286 0 0 0-.711.61c-.16.289-.207.597-.14.926l.503 2.242c.18.738.36 1.476.55 2.238.38 1.457.782 2.914 1.208 4.36.426 1.445.851 2.87 1.312 4.304.313.977.63 1.961.953 2.938l-8.82 14.757a1.3 1.3 0 0 0-.148.957c.074.34.25.61.53.813Zm0 0" fill="#fff" fill-opacity="1" fill-rule="nonzero">
</path>
</svg>
