<?xml version="1.0" encoding="UTF-8" standalone="no"?>
<svg xmlns="http://www.w3.org/2000/svg" viewBox="0 0 375 375" baseProfile="tiny-ps" version="1.2">
<title>MelissaTheGhostDr</title>
<desc>The logo for MelissaTheGhostDr.</desc>
<defs>
<g/>
<clipPath id="0f1fcd66b3">
<path d="M 37.503906 119.707031 L 337.496094 119.707031 L 337.496094 255.292969 L 37.503906 255.292969 Z M 37.503906 119.707031 " clip-rule="nonzero"/>
</clipPath>
<clipPath id="7102e484d4">
<path d="M 48.574219 130.019531 L 326.425781 130.019531 L 326.425781 199.242188 L 48.574219 199.242188 Z M 48.574219 130.019531 " clip-rule="nonzero"/>
</clipPath>
</defs>
<rect fill="#e4e4e4" width="375" height="375"/>
<g clip-path="url(#0f1fcd66b3)">
<path stroke-linecap="butt" transform="matrix(0.75, 0, 0, 0.75, 37.502203, 119.706028)" fill="none" stroke-linejoin="miter" d="M 0.0022709 0.00133748 L 399.991855 0.00133748 L 399.991855 180.782588 L 0.0022709 180.782588 Z M 0.0022709 0.00133748 " stroke="#000000" stroke-width="6" stroke-opacity="1" stroke-miterlimit="4"/>
</g>
<g clip-path="url(#7102e484d4)">
<path fill="#000000" d="M 48.574219 130.019531 L 326.546875 130.019531 L 326.546875 199.242188 L 48.574219 199.242188 Z M 48.574219 130.019531 " fill-opacity="1" fill-rule="nonzero"/>
</g>
<g fill="#e4e4e4" fill-opacity="1"><g transform="translate(63.640794, 181.122987)">
<g>
<path d="M 5.25 0 L 9.777344 0 L 9.777344 -27.585938 L 21.71875 -9.574219 L 25.425781 -9.574219 L 37.363281 -27.535156 L 37.363281 0 L 41.894531 0 L 41.894531 -36.027344 L 37.671875 -36.027344 L 23.621094 -14.667969 L 9.46875 -36.027344 L 5.25 -36.027344 Z M 5.25 0 "/>
</g>
</g>
</g>
<g fill="#e4e4e4" fill-opacity="1">
<g transform="translate(114.679582, 181.122987)">
<g>
<path d="M 5.25 0 L 27.6875 0 L 27.6875 -4.21875 L 9.777344 -4.21875 L 9.777344 -16.261719 L 25.835938 -16.261719 L 25.835938 -20.433594 L 9.777344 -20.433594 L 9.777344 -31.804688 L 27.121094 -31.804688 L 27.121094 -36.027344 L 5.25 -36.027344 Z M 5.25 0 "/>
</g>
</g>
</g>
<g fill="#e4e4e4" fill-opacity="1">
<g transform="translate(149.614909, 181.122987)">
<g>
<path d="M 5.25 0 L 27.277344 0 L 27.277344 -4.324219 L 9.777344 -4.324219 L 9.777344 -36.027344 L 5.25 -36.027344 Z M 5.25 0 "/>
</g>
</g>
</g>
<g fill="#e4e4e4" fill-opacity="1">
<g transform="translate(182.389386, 181.122987)">
<g>
<path d="M 5.25 0 L 9.777344 0 L 9.777344 -36.027344 L 5.25 -36.027344 Z M 5.25 0 "/>
</g>
</g>
</g>
<g fill="#e4e4e4" fill-opacity="1">
<g transform="translate(201.324126, 181.122987)">
<g>
<path d="M 17.242188 0.667969 C 25.117188 0.667969 30.210938 -3.191406 30.210938 -9.46875 C 30.210938 -14.769531 26.660156 -17.960938 17.445312 -20.226562 C 10.449219 -21.925781 8.132812 -23.777344 8.132812 -26.761719 C 8.132812 -30.210938 11.21875 -32.371094 16.367188 -32.371094 C 21.667969 -32.371094 24.960938 -29.695312 25.0625 -25.371094 L 29.542969 -25.371094 C 29.488281 -32.371094 24.445312 -36.695312 16.367188 -36.695312 C 8.492188 -36.695312 3.5 -32.835938 3.5 -26.761719 C 3.5 -21.203125 7.460938 -18.117188 16.316406 -16.007812 C 22.800781 -14.460938 25.527344 -12.660156 25.527344 -9.316406 C 25.527344 -5.765625 22.335938 -3.652344 17.242188 -3.652344 C 11.632812 -3.652344 7.71875 -6.433594 7.617188 -11.066406 L 3.089844 -11.066406 C 3.140625 -4.015625 8.644531 0.667969 17.242188 0.667969 Z M 17.242188 0.667969 "/>
</g>
</g>
</g>
<g fill="#e4e4e4" fill-opacity="1">
<g transform="translate(238.523199, 181.122987)">
<g>
<path d="M 17.242188 0.667969 C 25.117188 0.667969 30.210938 -3.191406 30.210938 -9.46875 C 30.210938 -14.769531 26.660156 -17.960938 17.445312 -20.226562 C 10.449219 -21.925781 8.132812 -23.777344 8.132812 -26.761719 C 8.132812 -30.210938 11.21875 -32.371094 16.367188 -32.371094 C 21.667969 -32.371094 24.960938 -29.695312 25.0625 -25.371094 L 29.542969 -25.371094 C 29.488281 -32.371094 24.445312 -36.695312 16.367188 -36.695312 C 8.492188 -36.695312 3.5 -32.835938 3.5 -26.761719 C 3.5 -21.203125 7.460938 -18.117188 16.316406 -16.007812 C 22.800781 -14.460938 25.527344 -12.660156 25.527344 -9.316406 C 25.527344 -5.765625 22.335938 -3.652344 17.242188 -3.652344 C 11.632812 -3.652344 7.71875 -6.433594 7.617188 -11.066406 L 3.089844 -11.066406 C 3.140625 -4.015625 8.644531 0.667969 17.242188 0.667969 Z M 17.242188 0.667969 "/>
</g>
</g>
</g>
<g fill="#e4e4e4" fill-opacity="1">
<g transform="translate(275.722273, 181.122987)">
<g>
<path d="M 0.875 0 L 5.710938 0 L 9.007812 -8.183594 L 26.554688 -8.183594 L 29.953125 0 L 34.738281 0 L 19.917969 -36.027344 L 15.695312 -36.027344 Z M 10.757812 -12.402344 L 17.808594 -29.695312 L 24.859375 -12.402344 Z M 10.757812 -12.402344 "/>
</g>
</g>
</g>
<g fill="#000000" fill-opacity="1">
<g transform="translate(48.014612, 238.479179)">
<g>
<path d="M 9.214844 0 L 16.902344 0 L 16.902344 -19.617188 L 25.046875 -19.617188 L 25.046875 -26.769531 L 1.070312 -26.769531 L 1.070312 -19.617188 L 9.214844 -19.617188 Z M 9.214844 0 "/>
</g>
</g>
</g>
<g fill="#000000" fill-opacity="1">
<g transform="translate(74.131337, 238.479179)">
<g>
<path d="M 18.8125 0 L 26.539062 0 L 26.539062 -26.769531 L 18.8125 -26.769531 L 18.8125 -17.171875 L 10.554688 -17.171875 L 10.554688 -26.769531 L 2.828125 -26.769531 L 2.828125 0 L 10.554688 0 L 10.554688 -10.058594 L 18.8125 -10.058594 Z M 18.8125 0 "/>
</g>
</g>
</g>
<g fill="#000000" fill-opacity="1">
<g transform="translate(103.498314, 238.479179)">
<g>
<path d="M 2.828125 0 L 21.605469 0 L 21.605469 -6.308594 L 10.476562 -6.308594 L 10.476562 -10.441406 L 20.152344 -10.441406 L 20.152344 -16.632812 L 10.476562 -16.632812 L 10.476562 -20.535156 L 21.183594 -20.535156 L 21.183594 -26.769531 L 2.828125 -26.769531 Z M 2.828125 0 "/>
</g>
</g>
</g>
<g fill="#000000" fill-opacity="1">
<g transform="translate(126.823642, 238.479179)">
<g>
<path d="M 15.601562 0.574219 C 24.816406 0.574219 30.59375 -6.117188 29.75 -15.527344 L 14.265625 -15.527344 L 14.265625 -10.09375 L 21.644531 -10.09375 C 20.878906 -7.839844 18.738281 -6.308594 15.679688 -6.308594 C 11.394531 -6.308594 8.910156 -9.332031 8.910156 -13.382812 C 8.910156 -17.589844 11.625 -20.457031 15.601562 -20.457031 C 17.972656 -20.457031 20 -19.425781 21.03125 -17.742188 L 29.253906 -17.742188 C 27.6875 -23.59375 22.257812 -27.34375 15.488281 -27.34375 C 7.074219 -27.34375 1.300781 -21.605469 1.300781 -13.382812 C 1.300781 -5.125 7.113281 0.574219 15.601562 0.574219 Z M 15.601562 0.574219 "/>
</g>
</g>
</g>
<g fill="#000000" fill-opacity="1">
<g transform="translate(157.873098, 238.479179)">
<g>
<path d="M 18.8125 0 L 26.539062 0 L 26.539062 -26.769531 L 18.8125 -26.769531 L 18.8125 -17.171875 L 10.554688 -17.171875 L 10.554688 -26.769531 L 2.828125 -26.769531 L 2.828125 0 L 10.554688 0 L 10.554688 -10.058594 L 18.8125 -10.058594 Z M 18.8125 0 "/>
</g>
</g>
</g>
<g fill="#000000" fill-opacity="1">
<g transform="translate(187.240075, 238.479179)">
<g>
<path d="M 15.871094 0.574219 C 24.398438 0.574219 30.4375 -5.199219 30.4375 -13.382812 C 30.4375 -21.566406 24.398438 -27.34375 15.871094 -27.34375 C 7.34375 -27.34375 1.300781 -21.566406 1.300781 -13.382812 C 1.300781 -5.199219 7.34375 0.574219 15.871094 0.574219 Z M 9.140625 -13.382812 C 9.140625 -17.398438 11.929688 -20.191406 15.871094 -20.191406 C 19.847656 -20.191406 22.601562 -17.398438 22.601562 -13.382812 C 22.601562 -9.367188 19.847656 -6.578125 15.871094 -6.578125 C 11.929688 -6.578125 9.140625 -9.367188 9.140625 -13.382812 Z M 9.140625 -13.382812 "/>
</g>
</g>
</g>
<g fill="#000000" fill-opacity="1">
<g transform="translate(219.016066, 238.479179)">
<g>
<path d="M 12.429688 0.574219 C 19.082031 0.574219 23.019531 -2.5625 23.019531 -7.839844 C 23.019531 -12.273438 20.152344 -14.875 13.652344 -16.328125 C 10.210938 -17.09375 8.949219 -17.933594 8.949219 -19.3125 C 8.949219 -20.613281 10.09375 -21.414062 11.894531 -21.414062 C 14.035156 -21.414062 15.257812 -20.304688 15.257812 -18.277344 L 22.523438 -18.277344 C 22.523438 -23.785156 18.316406 -27.34375 11.738281 -27.34375 C 5.429688 -27.34375 1.53125 -24.207031 1.53125 -19.160156 C 1.53125 -14.644531 4.472656 -11.855469 10.515625 -10.707031 C 13.765625 -10.058594 15.335938 -9.0625 15.335938 -7.535156 C 15.335938 -6.195312 14.1875 -5.429688 12.3125 -5.429688 C 10.09375 -5.429688 8.796875 -6.617188 8.796875 -8.679688 L 1.339844 -8.679688 C 1.339844 -2.90625 5.46875 0.574219 12.429688 0.574219 Z M 12.429688 0.574219 "/>
</g>
</g>
</g>
<g fill="#000000" fill-opacity="1">
<g transform="translate(243.450312, 238.479179)">
<g>
<path d="M 9.214844 0 L 16.902344 0 L 16.902344 -19.617188 L 25.046875 -19.617188 L 25.046875 -26.769531 L 1.070312 -26.769531 L 1.070312 -19.617188 L 9.214844 -19.617188 Z M 9.214844 0 "/>
</g>
</g>
</g>
<g fill="#000000" fill-opacity="1">
<g transform="translate(269.567038, 238.479179)">
<g>
<path d="M 2.828125 0 L 14.1875 0 C 22.828125 0 28.566406 -5.316406 28.566406 -13.382812 C 28.566406 -21.414062 22.828125 -26.769531 14.1875 -26.769531 L 2.828125 -26.769531 Z M 10.554688 -6.921875 L 10.554688 -19.847656 L 13.957031 -19.847656 C 18.050781 -19.847656 20.6875 -17.324219 20.6875 -13.382812 C 20.6875 -9.445312 18.050781 -6.921875 13.957031 -6.921875 Z M 10.554688 -6.921875 "/>
</g>
</g>
</g>
<g fill="#000000" fill-opacity="1">
<g transform="translate(299.431104, 238.479179)">
<g>
<path d="M 2.828125 0 L 10.554688 0 L 10.554688 -7.609375 L 13.460938 -7.609375 L 17.285156 0 L 26.042969 0 L 21.109375 -9.023438 C 23.9375 -10.59375 25.542969 -13.421875 25.542969 -17.171875 C 25.542969 -23.097656 21.53125 -26.769531 15.027344 -26.769531 L 2.828125 -26.769531 Z M 10.402344 -13.765625 L 10.402344 -20.457031 L 13.996094 -20.457031 C 16.445312 -20.457031 17.78125 -19.273438 17.78125 -17.132812 C 17.78125 -14.992188 16.445312 -13.765625 13.996094 -13.765625 Z M 10.402344 -13.765625 "/>
</g>
</g>
</g>
</svg>