<?xml version="1.0" encoding="UTF-8" standalone="no"?>
<svg xmlns="http://www.w3.org/2000/svg" baseProfile="tiny-ps" version="1.2" viewBox="0 0 375 375">
  <title>MelissaTheGhostDr</title>
  <desc>The logo for MelissaTheGhostDr.</desc>
  <rect fill="#e4e4e4" width="375" height="375"/>
  <path fill="#000000" d="M 48.9,130.8 H 324.2 v 65.7 H 48.9 Z"/>
  <path fill="#e4e4e4" transform="translate(63.6,181.1)" d="M 5.3 0 L 9.8 0 L 9.8 -27.6 L 21.7 -9.6 L 25.4 -9.6 L 37.4 -27.5 L 37.4 0 L 41.9 0 L 41.9 -36 L 37.7 -36 L 23.6 -14.7 L 9.5 -36 L 5.3 -36 Z M 5.3 0"/>
  <path fill="#e4e4e4" transform="translate(114.7, 181.1)" d="M 5.3 0 L 27.7 0 L 27.7 -4.2 L 9.8 -4.2 L 9.8 -16.3 L 25.8 -16.3 L 25.8 -20.4 L 9.8 -20.4 L 9.8 -31.8 L 27.1 -31.8 L 27.1 -36 L 5.3 -36 Z M 5.3 0"/>
  <path fill="#e4e4e4" transform="translate(149.6, 181.1)" d="M 5.3 0 L 27.3 0 L 27.3 -4.3 L 9.8 -4.3 L 9.8 -36 L 5.3 -36 Z M 5.3 0"/>
  <path fill="#e4e4e4" transform="translate(182.4, 181.1)" d="M 5.3 0 L 9.8 0 L 9.8 -36 L 5.3 -36 Z M 5.3 0"/>
  <path fill="#e4e4e4" transform="translate(201.3, 181.1)" d="M 17.2 0.7 C 25.1 0.7 30.2 -3.2 30.2 -9.5 C 30.2 -14.8 26.7 -18 17.4 -20.2 C 10.4 -21.9 8.1 -23.8 8.1 -26.8 C 8.1 -30.2 11.2 -32.4 16.4 -32.4 C 21.7 -32.4 25 -29.7 25 -25.4 L 29.5 -25.4 C 29.5 -32.4 24.4 -36.7 16.4 -36.7 C 8.5 -36.7 3.5 -32.8 3.5 -26.8 C 3.5 -21.2 7.5 -18.1 16.3 -16 C 22.8 -14.5 25.5 -12.7 25.5 -9.3 C 25.5 -5.8 22.3 -3.7 17.2 -3.7 C 11.6 -3.7 7.7 -6.4 7.6 -11.1 L 3.1 -11.1 C 3.1 -4 8.6 0.7 17.2 0.7 Z M 17.2 0.7"/>
  <path fill="#e4e4e4" transform="translate(238.5, 181.1)" d="M 17.2 0.7 C 25.1 0.7 30.2 -3.2 30.2 -9.5 C 30.2 -14.8 26.7 -18 17.4 -20.2 C 10.4 -21.9 8.1 -23.8 8.1 -26.8 C 8.1 -30.2 11.2 -32.4 16.4 -32.4 C 21.7 -32.4 25 -29.7 25.1 -25.4 L 29.5 -25.4 C 29.5 -32.4 24.4 -36.7 16.4 -36.7 C 8.5 -36.7 3.5 -32.8 3.5 -26.8 C 3.5 -21.2 7.5 -18.1 16.3 -16 C 22.8 -14.5 25.5 -12.7 25.5 -9.3 C 25.5 -5.8 22.3 -3.7 17.2 -3.7 C 11.6 -3.7 7.7 -6.4 7.6 -11.1 L 3.1 -11.1 C 3.1 -4 8.6 0.7 17.2 0.7 Z M 17.2 0.7"/>
  <path fill="#e4e4e4" transform="translate(275.7, 181.1)" d="M 0.9 0 L 5.7 0 L 9 -8.2 L 26.6 -8.2 L 30 0 L 34.7 0 L 19.9 -36 L 15.7 -36 Z M 10.8 -12.4 L 17.8 -29.7 L 24.9 -12.4 Z M 10.8 -12.4"/>
  <path fill="#000000" transform="translate(48, 238.5)" d="M 9.2 0 L 16.9 0 L 16.9 -19.6 L 25 -19.6 L 25 -26.8 L 1.1 -26.8 L 1.1 -19.6 L 9.2 -19.6 Z M 9.2 0"/>
  <path fill="#000000" transform="translate(74.1, 238.5)" d="M 18.8 0 L 26.5 0 L 26.5 -26.8 L 18.8 -26.8 L 18.8 -17.2 L 10.6 -17.2 L 10.6 -26.8 L 2.8 -26.8 L 2.8 0 L 10.6 0 L 10.6 -10.1 L 18.8 -10.1 Z M 18.8 0"/>
  <path fill="#000000" transform="translate(103.5, 238.5)" d="M 2.8 0 L 21.6 0 L 21.6 -6.3 L 10.5 -6.3 L 10.5 -10.4 L 20.2 -10.4 L 20.2 -16.6 L 10.5 -16.6 L 10.5 -20.5 L 21.2 -20.5 L 21.2 -26.8 L 2.8 -26.8 Z M 2.8 0"/>
  <path fill="#000000" transform="translate(126.8, 238.5)" d="M 15.6 0.6 C 24.8 0.6 30.6 -6.1 29.8 -15.5 L 14.3 -15.5 L 14.3 -10.1 L 21.6 -10.1 C 20.9 -7.8 18.7 -6.3 15.7 -6.3 C 11.4 -6.3 8.9 -9.3 8.9 -13.4 C 8.9 -17.6 11.6 -20.5 15.6 -20.5 C 18 -20.5 20 -19.4 21 -17.7 L 29.3 -17.7 C 27.7 -23.6 22.3 -27.3 15.5 -27.3 C 7.1 -27.3 1.3 -21.6 1.3 -13.4 C 1.3 -5.1 7.1 0.6 15.6 0.6 Z M 15.6 0.6"/>
  <path fill="#000000" transform="translate(157.9, 238.5)" d="M 18.8 0 L 26.5 0 L 26.5 -26.8 L 18.8 -26.8 L 18.8 -17.2 L 10.6 -17.2 L 10.6 -26.8 L 2.8 -26.8 L 2.8 0 L 10.6 0 L 10.6 -10.1 L 18.8 -10.1 Z M 18.8 0"/>
  <path fill="#000000" transform="translate(187.2, 238.5)" d="M 15.9 0.6 C 24.4 0.6 30.4 -5.2 30.4 -13.4 C 30.4 -21.6 24.4 -27.4 15.9 -27.3 C 7.3 -27.3 1.3 -21.6 1.3 -13.4 C 1.3 -5.2 7.3 0.6 15.9 0.6 Z M 9.1 -13.3 C 9.1 -17.4 11.9 -20.2 15.9 -20.2 C 19.8 -20.2 22.6 -17.4 22.6 -13.4 C 22.6 -9.4 19.8 -6.6 15.9 -6.6 C 11.9 -6.6 9.1 -9.4 9.1 -13.4 Z M 9.1 -13.4"/>
  <path fill="#000000" transform="translate(219, 238.5)" d="M 12.429688 0.574219 C 19.082031 0.574219 23.019531 -2.5625 23.019531 -7.839844 C 23.019531 -12.273438 20.152344 -14.875 13.652344 -16.328125 C 10.210938 -17.09375 8.949219 -17.933594 8.949219 -19.3125 C 8.949219 -20.613281 10.09375 -21.414062 11.894531 -21.414062 C 14.035156 -21.414062 15.257812 -20.304688 15.257812 -18.277344 L 22.523438 -18.277344 C 22.523438 -23.785156 18.316406 -27.34375 11.738281 -27.34375 C 5.429688 -27.34375 1.53125 -24.207031 1.53125 -19.160156 C 1.53125 -14.644531 4.472656 -11.855469 10.515625 -10.707031 C 13.765625 -10.058594 15.335938 -9.0625 15.335938 -7.535156 C 15.335938 -6.195312 14.1875 -5.429688 12.3125 -5.429688 C 10.09375 -5.429688 8.796875 -6.617188 8.796875 -8.679688 L 1.339844 -8.679688 C 1.339844 -2.90625 5.46875 0.574219 12.429688 0.574219 Z M 12.429688 0.574219"/>
  <path fill="#000000" transform="translate(243.5, 238.5)" d="M 9.2 0 L 16.9 0 L 16.9 -19.6 L 25 -19.6 L 25 -26.8 L 1.1 -26.8 L 1.1 -19.6 L 9.2 -19.6 Z M 9.2 0"/>
  <path fill="#000000" transform="translate(269.6, 238.5)" d="M 2.828125 0 L 14.1875 0 C 22.828125 0 28.566406 -5.316406 28.566406 -13.382812 C 28.566406 -21.414062 22.828125 -26.769531 14.1875 -26.769531 L 2.828125 -26.769531 Z M 10.554688 -6.921875 L 10.554688 -19.847656 L 13.957031 -19.847656 C 18.050781 -19.847656 20.6875 -17.324219 20.6875 -13.382812 C 20.6875 -9.445312 18.050781 -6.921875 13.957031 -6.921875 Z M 10.554688 -6.921875"/>
  <path fill="#000000" transform="translate(299.431104, 238.479179)" d="M 2.828125 0 L 10.554688 0 L 10.554688 -7.609375 L 13.460938 -7.609375 L 17.285156 0 L 26.042969 0 L 21.109375 -9.023438 C 23.9375 -10.59375 25.542969 -13.421875 25.542969 -17.171875 C 25.542969 -23.097656 21.53125 -26.769531 15.027344 -26.769531 L 2.828125 -26.769531 Z M 10.402344 -13.765625 L 10.402344 -20.457031 L 13.996094 -20.457031 C 16.445312 -20.457031 17.78125 -19.273438 17.78125 -17.132812 C 17.78125 -14.992188 16.445312 -13.765625 13.996094 -13.765625 Z M 10.402344 -13.765625"/>
  <path fill="#000000" d="M 39.960937,122.88672 V 256.55078 H 333.04102 V 122.88672 Z m 1.601563,1.60156 H 331.44141 V 254.95117 H 41.5625 Z"/>
</svg>
