<?xml version="1.0" encoding="UTF-8" standalone="no"?>
<svg xmlns="http://www.w3.org/2000/svg" version="1.2" baseProfile="tiny-ps" viewBox="0 0 375 375">
<title>The-Bass.Co</title>
<desc>The logo for TheBass.Co services.</desc>
<rect fill="#2e2c2b" width="375" height="375"/>
<path fill="#ffffff" transform="translate(79.8, 221.8)" d="M 32.1 -46.3 C 32.1 -39 22.4 -39 22.4 -39 L 12.5 -39 L 12.5 -54 L 22.4 -54.1 C 22.4 -54.1 32.1 -54.2 32.1 -46.3 Z M 44.7 -47 C 44.7 -66.4 22.4 -65.9 22.4 -65.9 L 0.9 -65.9 C 0.4 -65.9 0 -65.4 0 -65.1 L 0 -26.8 L 22.4 -26.8 C 22.4 -26.8 33 -27.2 33 -19.511719 C 33.011719 -13.171875 26.507812 -12.019531 22.390625 -12.019531 L 12.59375 -12.019531 L 12.59375 0 L 22.390625 0 C 26.835938 0 45.605469 -0.824219 45.605469 -19.179688 C 45.605469 -19.179688 46.015625 -29.386719 35.5625 -32.929688 C 40.582031 -34.984375 44.699219 -39.347656 44.699219 -47.003906 Z M 44.699219 -47.003906 "/>
<path fill="#ffffff" transform="translate(136.8, 221.8)" d="M 51.695312 -0.988281 L 26.671875 -65.363281 C 26.425781 -66.019531 25.273438 -66.019531 25.023438 -65.363281 L 0.0820312 -0.988281 C -0.164062 -0.492188 0.164062 0 0.90625 0 L 12.183594 0 C 12.511719 0 12.925781 -0.164062 13.007812 -0.492188 L 25.847656 -37.207031 L 38.855469 -0.492188 C 38.9375 -0.164062 39.347656 0 39.597656 0 L 50.957031 0 C 51.53125 0 51.945312 -0.492188 51.695312 -0.988281 Z M 51.695312 -0.988281 "/>
<path fill="#ffffff" transform="translate(200.2, 221.8)" d="M 30.210938 -36.550781 C 25.519531 -38.773438 20.910156 -38.773438 20.496094 -38.773438 C 16.300781 -38.773438 12.265625 -41.242188 12.265625 -46.015625 C 12.265625 -51.285156 15.96875 -54 20.496094 -54 C 24.777344 -54 28.402344 -51.777344 28.566406 -47.085938 C 28.566406 -46.839844 28.976562 -46.429688 29.46875 -46.429688 L 39.761719 -46.429688 C 40.335938 -46.429688 40.75 -46.839844 40.667969 -47.085938 C 40.5 -58.28125 31.777344 -65.855469 20.496094 -65.855469 C 9.960938 -65.855469 0 -58.363281 0 -46.015625 C 0 -38.359375 3.867188 -32.515625 10.703125 -29.386719 C 15.476562 -27.164062 19.921875 -27.164062 20.496094 -27.164062 C 24.203125 -27 28.730469 -24.039062 28.730469 -19.179688 C 28.730469 -14.816406 24.859375 -11.855469 20.496094 -11.855469 C 20.496094 -11.855469 20.496094 -11.855469 20.414062 -11.855469 L 20.414062 0 C 20.496094 0 20.496094 0 20.496094 0 C 31.035156 0 40.914062 -6.832031 40.914062 -19.179688 C 40.914062 -26.917969 37.125 -33.339844 30.210938 -36.550781 Z M 30.210938 -36.550781 "/>
<path fill="#ffffff" transform="translate(252.2, 221.8)" d="M 30.210938 -36.550781 C 25.519531 -38.773438 20.910156 -38.773438 20.496094 -38.773438 C 16.300781 -38.773438 12.265625 -41.242188 12.265625 -46.015625 C 12.265625 -51.285156 15.96875 -54 20.496094 -54 C 24.777344 -54 28.402344 -51.777344 28.566406 -47.085938 C 28.566406 -46.839844 28.976562 -46.429688 29.46875 -46.429688 L 39.761719 -46.429688 C 40.335938 -46.429688 40.75 -46.839844 40.667969 -47.085938 C 40.5 -58.28125 31.777344 -65.855469 20.496094 -65.855469 C 9.960938 -65.855469 0 -58.363281 0 -46.015625 C 0 -38.359375 3.867188 -32.515625 10.703125 -29.386719 C 15.476562 -27.164062 19.921875 -27.164062 20.496094 -27.164062 C 24.203125 -27 28.730469 -24.039062 28.730469 -19.179688 C 28.730469 -14.816406 24.859375 -11.855469 20.496094 -11.855469 C 20.496094 -11.855469 20.496094 -11.855469 20.414062 -11.855469 L 20.414062 0 C 20.496094 0 20.496094 0 20.496094 0 C 31.035156 0 40.914062 -6.832031 40.914062 -19.179688 C 40.914062 -26.917969 37.125 -33.339844 30.210938 -36.550781 Z M 30.210938 -36.550781 "/>
<path stroke-linecap="butt" transform="matrix(-1.2, 0, 0, -1.2, 324.5, 140.7)" fill="none" stroke-linejoin="miter" d="M 0.000591233 4.998505 L 84.432167 4.998505 " stroke="#ffffff" stroke-width="10" stroke-opacity="1" stroke-miterlimit="4"/>
<path stroke-linecap="butt" transform="matrix(0, -1.2, 1.2, 0, 312.7, 229.4)" fill="none" stroke-linejoin="miter" d="M -0.00156593 5.001143 L 82.463317 5.001143 " stroke="#ffffff" stroke-width="10" stroke-opacity="1" stroke-miterlimit="4"/>
<path stroke-linecap="butt" transform="matrix(1.2, 0, 0, 1.2, 48.3, 239.6)" fill="none" stroke-linejoin="miter" d="M -0.00139542 4.999167 L 84.433502 4.999167 " stroke="#ffffff" stroke-width="10" stroke-opacity="1" stroke-miterlimit="4"/>
<path stroke-linecap="butt" transform="matrix(0, 1.2, -1.2, 0, 60, 150.9)" fill="none" stroke-linejoin="miter" d="M -0.000916749 4.99981 L 82.463966 4.99981 " stroke="#ffffff" stroke-width="10" stroke-opacity="1" stroke-miterlimit="4"/>
<path fill="#ffffff" transform="translate(79.4, 152.5)" d="M 3.574219 -11.050781 L 3.574219 -0.195312 C 3.574219 -0.109375 3.660156 0 3.8125 0 L 6.609375 0 C 6.761719 0 6.871094 -0.109375 6.871094 -0.195312 L 6.871094 -11.050781 Z M 0.238281 -14.367188 L 10.183594 -14.367188 C 10.335938 -14.367188 10.421875 -14.453125 10.421875 -14.5625 L 10.421875 -17.140625 C 10.421875 -17.226562 10.335938 -17.335938 10.183594 -17.335938 L 0.238281 -17.335938 C 0.109375 -17.335938 0 -17.226562 0 -17.140625 L 0 -14.5625 C 0 -14.453125 0.109375 -14.367188 0.238281 -14.367188 Z M 0.238281 -14.367188 "/>
<path fill="#ffffff" transform="translate(92.7, 152.5)" d="M 3.316406 -9.816406 L 3.316406 -17.140625 C 3.316406 -17.226562 3.230469 -17.335938 3.078125 -17.335938 L 0.238281 -17.335938 C 0.109375 -17.335938 0 -17.226562 0 -17.140625 L 0 -9.816406 Z M 12.957031 -17.335938 L 10.121094 -17.335938 C 9.988281 -17.335938 9.882812 -17.226562 9.882812 -17.140625 L 9.882812 -6.480469 L 3.316406 -6.480469 L 3.316406 -6.5 L 0 -6.5 L 0 -0.195312 C 0 -0.109375 0.109375 0 0.238281 0 L 3.078125 0 C 3.230469 0 3.316406 -0.109375 3.316406 -0.195312 L 3.316406 -3.25 L 9.882812 -3.25 L 9.882812 -0.195312 C 9.882812 -0.109375 9.988281 0 10.121094 0 L 12.957031 0 C 13.109375 0 13.195312 -0.109375 13.195312 -0.195312 L 13.195312 -17.140625 C 13.195312 -17.226562 13.109375 -17.335938 12.957031 -17.335938 Z M 12.957031 -17.335938 "/>
<path fill="#ffffff" transform="translate(109, 152.5)" d="M 8.234375 -3.230469 L 3.316406 -3.230469 L 3.316406 -7.128906 L 10.121094 -7.128906 C 10.25 -7.128906 10.359375 -7.238281 10.359375 -7.324219 L 10.359375 -10.078125 C 10.359375 -10.183594 10.25 -10.269531 10.121094 -10.269531 L 3.316406 -10.269531 L 3.316406 -14.191406 L 8.234375 -14.191406 L 8.234375 -17.335938 L 0.238281 -17.335938 C 0.109375 -17.335938 0 -17.226562 0 -17.140625 L 0 -0.195312 C 0 -0.109375 0.109375 0 0.238281 0 L 8.234375 0 Z M 8.234375 -3.230469 "/>
<path fill="#ffffff" transform="translate(122.2, 152.5)" d="M 10.554688 -12.113281 C 10.554688 -12.199219 10.488281 -12.308594 10.359375 -12.308594 L 2.601562 -12.308594 C 2.449219 -12.308594 2.363281 -12.199219 2.363281 -12.113281 L 2.363281 -9.773438 C 2.363281 -9.6875 2.449219 -9.597656 2.601562 -9.597656 L 10.359375 -9.597656 C 10.488281 -9.597656 10.554688 -9.6875 10.554688 -9.773438 Z M 10.554688 -12.113281 "/>
<path fill="#ffffff" transform="translate(255.2, 243.6)" d="M 3.121094 -1.515625 C 3.121094 -2.339844 2.425781 -3.054688 1.539062 -3.054688 C 0.695312 -3.054688 0 -2.339844 0 -1.515625 C 0 -0.671875 0.695312 0 1.539062 0 C 2.425781 0 3.121094 -0.671875 3.121094 -1.515625 Z M 3.121094 -1.515625 "/>
<path fill="#ffffff" transform="translate(260.8, 243.6)" d="M 9.902344 -3.183594 C 7.800781 -3.097656 3.335938 -3.316406 3.335938 -8.667969 C 3.335938 -12.785156 6.132812 -14.367188 9.902344 -14.171875 L 9.902344 -10.335938 L 13.21875 -10.335938 L 13.21875 -17.140625 C 13.21875 -17.226562 13.132812 -17.335938 12.980469 -17.335938 L 10.164062 -17.335938 C 5.914062 -17.335938 0 -16.359375 0 -8.667969 C 0 -1.257812 5.851562 0 10.164062 0 L 12.980469 0 C 13.132812 0 13.21875 -0.109375 13.21875 -0.195312 L 13.21875 -3.183594 Z M 9.902344 -3.183594 "/>
<path fill="#ffffff" transform="translate(277.1, 243.6)" d="M 9.96875 -8.625 C 9.96875 -9.535156 9.253906 -10.269531 8.34375 -10.269531 C 7.433594 -10.269531 6.71875 -9.535156 6.71875 -8.625 C 6.71875 -7.734375 7.433594 -7 8.34375 -7 C 9.253906 -7 9.96875 -7.734375 9.96875 -8.625 Z M 16.683594 -8.6875 C 16.683594 -13 13.890625 -17.335938 8.363281 -17.335938 C 2.753906 -17.335938 0 -13 0 -8.6875 C 0 -4.355469 2.753906 0 8.363281 0 C 13.890625 0 16.683594 -4.355469 16.683594 -8.6875 Z M 13.433594 -8.625 C 13.433594 -5.828125 11.722656 -3.035156 8.363281 -3.035156 C 4.960938 -3.035156 3.273438 -5.828125 3.273438 -8.625 C 3.273438 -11.464844 4.960938 -14.28125 8.363281 -14.28125 C 11.722656 -14.28125 13.433594 -11.464844 13.433594 -8.625 Z M 13.433594 -8.625 "/>
</svg>
