
<svg xmlns="http://www.w3.org/2000/svg" xmlns:xlink="http://www.w3.org/1999/xlink" baseProfile="tiny-ps" viewBox="0 0 810 810" version="1.2">
<title>Tyler and Joey</title>
<desc>The logo of Tyler and Joey, aka, tylerjoey.com. The letters T, ampersand, and J are featured within the logo.</desc>
<rect width="810" fill="#22263e" height="810" fill-opacity="1"/>
<path d="M 9.640625 -321.3125 L 9.640625 -277.933594 L 12.851562 -277.933594 C 12.851562 -278.898438 12.53125 -277.933594 12.53125 -279.21875 C 12.53125 -300.746094 53.015625 -318.097656 108.28125 -318.097656 L 108.28125 -89.324219 C 108.28125 -26.027344 106.355469 -3.214844 78.722656 -3.214844 L 78.722656 0 L 162.582031 0 L 162.582031 -3.214844 C 134.949219 -3.214844 135.59375 -26.027344 135.59375 -89.324219 L 135.59375 -318.097656 C 190.859375 -318.097656 231.34375 -300.746094 231.34375 -279.21875 C 231.34375 -277.933594 231.023438 -278.898438 231.023438 -277.933594 L 234.234375 -277.933594 L 234.234375 -321.3125 Z M 9.640625 -321.3125" fill="#96a3b6" fill-opacity="0.302" transform="translate(107.265999, 557.170314)"/>
<path d="M 19.277344 -100.890625 C 19.277344 -41.769531 53.660156 6.425781 136.558594 6.425781 C 185.398438 6.425781 257.691406 -19.921875 257.691406 -84.503906 C 257.691406 -124.027344 227.808594 -134.628906 211.421875 -134.628906 C 177.683594 -134.628906 160.335938 -107.960938 135.273438 -107.960938 C 122.417969 -107.960938 115.671875 -119.847656 115.671875 -129.808594 C 115.671875 -152.300781 149.089844 -165.796875 173.828125 -165.796875 C 205.316406 -165.796875 209.816406 -157.121094 238.414062 -157.121094 C 270.867188 -157.121094 274.398438 -181.539062 269.582031 -186.683594 C 264.117188 -179.933594 258.976562 -177.363281 249.335938 -177.363281 C 228.453125 -177.363281 215.601562 -186.359375 187.003906 -186.359375 C 150.375 -186.359375 112.460938 -157.765625 112.460938 -129.808594 C 112.460938 -116.316406 121.777344 -104.746094 135.273438 -104.746094 C 157.765625 -104.746094 168.046875 -122.742188 194.070312 -122.742188 C 217.207031 -122.742188 227.808594 -103.460938 227.808594 -80.328125 C 227.808594 -44.339844 196 2.570312 136.234375 2.570312 C 81.292969 2.570312 46.910156 -44.019531 46.910156 -92.214844 C 46.910156 -147.804688 81.292969 -189.574219 128.847656 -189.574219 C 138.804688 -189.574219 146.519531 -192.144531 146.519531 -201.785156 C 146.519531 -209.171875 139.128906 -212.066406 128.203125 -212.066406 C 104.105469 -212.066406 62.335938 -213.992188 62.335938 -260.582031 C 62.335938 -280.183594 78.722656 -323.882812 138.484375 -323.882812 C 190.539062 -323.882812 207.566406 -294.320312 207.566406 -270.222656 C 207.566406 -258.011719 201.785156 -238.734375 186.359375 -238.734375 C 179.613281 -238.734375 174.152344 -240.984375 170.296875 -247.730469 C 167.722656 -246.445312 166.117188 -243.234375 166.117188 -239.699219 C 166.117188 -225.5625 178.648438 -218.171875 192.785156 -218.171875 C 213.351562 -218.171875 232.949219 -233.273438 232.949219 -264.4375 C 232.949219 -307.496094 178.007812 -327.738281 138.484375 -327.738281 C 64.261719 -327.738281 34.378906 -290.464844 34.378906 -259.621094 C 34.378906 -219.457031 67.796875 -205.960938 100.25 -205.960938 C 111.496094 -205.960938 117.601562 -208.851562 128.203125 -208.851562 C 137.519531 -208.851562 143.304688 -207.246094 143.304688 -201.460938 C 143.304688 -194.394531 136.878906 -192.464844 121.777344 -192.464844 C 64.261719 -192.464844 19.277344 -148.765625 19.277344 -100.890625 Z M 19.277344 -100.890625" fill="#96a3b6" fill-opacity="0.302" transform="translate(338.288411, 557.170314)"/>
<path d="M -16.066406 66.191406 C -12.210938 66.832031 -9.960938 67.476562 -4.820312 67.476562 C 36.628906 67.476562 65.867188 23.777344 65.867188 -22.171875 L 65.867188 -231.988281 C 65.867188 -295.285156 67.796875 -318.097656 95.429688 -318.097656 L 95.429688 -321.3125 L 8.675781 -321.3125 L 8.675781 -318.097656 C 36.308594 -318.097656 38.234375 -295.285156 38.234375 -231.988281 L 38.234375 -21.527344 C 38.234375 27.3125 21.207031 63.296875 -10.28125 63.296875 C -12.210938 63.296875 -15.421875 62.976562 -15.421875 62.976562 Z M -16.066406 66.191406" fill="#96a3b6" fill-opacity="0.302" transform="translate(615.90087, 557.170314)"/>
<path d="M 9.640625 -321.3125 L 9.640625 -277.933594 L 12.851562 -277.933594 C 12.851562 -278.898438 12.53125 -277.933594 12.53125 -279.21875 C 12.53125 -300.746094 53.015625 -318.097656 108.28125 -318.097656 L 108.28125 -89.324219 C 108.28125 -26.027344 106.355469 -3.214844 78.722656 -3.214844 L 78.722656 0 L 162.582031 0 L 162.582031 -3.214844 C 134.949219 -3.214844 135.59375 -26.027344 135.59375 -89.324219 L 135.59375 -318.097656 C 190.859375 -318.097656 231.34375 -300.746094 231.34375 -279.21875 C 231.34375 -277.933594 231.023438 -278.898438 231.023438 -277.933594 L 234.234375 -277.933594 L 234.234375 -321.3125 Z M 9.640625 -321.3125" fill="#96a3b6" fill-opacity="0.502" transform="translate(93.065875, 542.970192)"/>
<path d="M 19.277344 -100.890625 C 19.277344 -41.769531 53.660156 6.425781 136.558594 6.425781 C 185.398438 6.425781 257.691406 -19.921875 257.691406 -84.503906 C 257.691406 -124.027344 227.808594 -134.628906 211.421875 -134.628906 C 177.683594 -134.628906 160.335938 -107.960938 135.273438 -107.960938 C 122.417969 -107.960938 115.671875 -119.847656 115.671875 -129.808594 C 115.671875 -152.300781 149.089844 -165.796875 173.828125 -165.796875 C 205.316406 -165.796875 209.816406 -157.121094 238.414062 -157.121094 C 270.867188 -157.121094 274.398438 -181.539062 269.582031 -186.683594 C 264.117188 -179.933594 258.976562 -177.363281 249.335938 -177.363281 C 228.453125 -177.363281 215.601562 -186.359375 187.003906 -186.359375 C 150.375 -186.359375 112.460938 -157.765625 112.460938 -129.808594 C 112.460938 -116.316406 121.777344 -104.746094 135.273438 -104.746094 C 157.765625 -104.746094 168.046875 -122.742188 194.070312 -122.742188 C 217.207031 -122.742188 227.808594 -103.460938 227.808594 -80.328125 C 227.808594 -44.339844 196 2.570312 136.234375 2.570312 C 81.292969 2.570312 46.910156 -44.019531 46.910156 -92.214844 C 46.910156 -147.804688 81.292969 -189.574219 128.847656 -189.574219 C 138.804688 -189.574219 146.519531 -192.144531 146.519531 -201.785156 C 146.519531 -209.171875 139.128906 -212.066406 128.203125 -212.066406 C 104.105469 -212.066406 62.335938 -213.992188 62.335938 -260.582031 C 62.335938 -280.183594 78.722656 -323.882812 138.484375 -323.882812 C 190.539062 -323.882812 207.566406 -294.320312 207.566406 -270.222656 C 207.566406 -258.011719 201.785156 -238.734375 186.359375 -238.734375 C 179.613281 -238.734375 174.152344 -240.984375 170.296875 -247.730469 C 167.722656 -246.445312 166.117188 -243.234375 166.117188 -239.699219 C 166.117188 -225.5625 178.648438 -218.171875 192.785156 -218.171875 C 213.351562 -218.171875 232.949219 -233.273438 232.949219 -264.4375 C 232.949219 -307.496094 178.007812 -327.738281 138.484375 -327.738281 C 64.261719 -327.738281 34.378906 -290.464844 34.378906 -259.621094 C 34.378906 -219.457031 67.796875 -205.960938 100.25 -205.960938 C 111.496094 -205.960938 117.601562 -208.851562 128.203125 -208.851562 C 137.519531 -208.851562 143.304688 -207.246094 143.304688 -201.460938 C 143.304688 -194.394531 136.878906 -192.464844 121.777344 -192.464844 C 64.261719 -192.464844 19.277344 -148.765625 19.277344 -100.890625 Z M 19.277344 -100.890625" fill="#96a3b6" fill-opacity="0.502" transform="translate(324.088288, 542.970192)"/>
<path d="M -16.066406 66.191406 C -12.210938 66.832031 -9.960938 67.476562 -4.820312 67.476562 C 36.628906 67.476562 65.867188 23.777344 65.867188 -22.171875 L 65.867188 -231.988281 C 65.867188 -295.285156 67.796875 -318.097656 95.429688 -318.097656 L 95.429688 -321.3125 L 8.675781 -321.3125 L 8.675781 -318.097656 C 36.308594 -318.097656 38.234375 -295.285156 38.234375 -231.988281 L 38.234375 -21.527344 C 38.234375 27.3125 21.207031 63.296875 -10.28125 63.296875 C -12.210938 63.296875 -15.421875 62.976562 -15.421875 62.976562 Z M -16.066406 66.191406" fill="#96a3b6" fill-opacity="0.502" transform="translate(601.700747, 542.970192)"/>
<path d="M 9.640625 -321.3125 L 9.640625 -277.933594 L 12.851562 -277.933594 C 12.851562 -278.898438 12.53125 -277.933594 12.53125 -279.21875 C 12.53125 -300.746094 53.015625 -318.097656 108.28125 -318.097656 L 108.28125 -89.324219 C 108.28125 -26.027344 106.355469 -3.214844 78.722656 -3.214844 L 78.722656 0 L 162.582031 0 L 162.582031 -3.214844 C 134.949219 -3.214844 135.59375 -26.027344 135.59375 -89.324219 L 135.59375 -318.097656 C 190.859375 -318.097656 231.34375 -300.746094 231.34375 -279.21875 C 231.34375 -277.933594 231.023438 -278.898438 231.023438 -277.933594 L 234.234375 -277.933594 L 234.234375 -321.3125 Z M 9.640625 -321.3125" fill="#96a3b6" fill-opacity="1" transform="translate(78.865752, 528.770072)"/>
<path d="M 19.277344 -100.890625 C 19.277344 -41.769531 53.660156 6.425781 136.558594 6.425781 C 185.398438 6.425781 257.691406 -19.921875 257.691406 -84.503906 C 257.691406 -124.027344 227.808594 -134.628906 211.421875 -134.628906 C 177.683594 -134.628906 160.335938 -107.960938 135.273438 -107.960938 C 122.417969 -107.960938 115.671875 -119.847656 115.671875 -129.808594 C 115.671875 -152.300781 149.089844 -165.796875 173.828125 -165.796875 C 205.316406 -165.796875 209.816406 -157.121094 238.414062 -157.121094 C 270.867188 -157.121094 274.398438 -181.539062 269.582031 -186.683594 C 264.117188 -179.933594 258.976562 -177.363281 249.335938 -177.363281 C 228.453125 -177.363281 215.601562 -186.359375 187.003906 -186.359375 C 150.375 -186.359375 112.460938 -157.765625 112.460938 -129.808594 C 112.460938 -116.316406 121.777344 -104.746094 135.273438 -104.746094 C 157.765625 -104.746094 168.046875 -122.742188 194.070312 -122.742188 C 217.207031 -122.742188 227.808594 -103.460938 227.808594 -80.328125 C 227.808594 -44.339844 196 2.570312 136.234375 2.570312 C 81.292969 2.570312 46.910156 -44.019531 46.910156 -92.214844 C 46.910156 -147.804688 81.292969 -189.574219 128.847656 -189.574219 C 138.804688 -189.574219 146.519531 -192.144531 146.519531 -201.785156 C 146.519531 -209.171875 139.128906 -212.066406 128.203125 -212.066406 C 104.105469 -212.066406 62.335938 -213.992188 62.335938 -260.582031 C 62.335938 -280.183594 78.722656 -323.882812 138.484375 -323.882812 C 190.539062 -323.882812 207.566406 -294.320312 207.566406 -270.222656 C 207.566406 -258.011719 201.785156 -238.734375 186.359375 -238.734375 C 179.613281 -238.734375 174.152344 -240.984375 170.296875 -247.730469 C 167.722656 -246.445312 166.117188 -243.234375 166.117188 -239.699219 C 166.117188 -225.5625 178.648438 -218.171875 192.785156 -218.171875 C 213.351562 -218.171875 232.949219 -233.273438 232.949219 -264.4375 C 232.949219 -307.496094 178.007812 -327.738281 138.484375 -327.738281 C 64.261719 -327.738281 34.378906 -290.464844 34.378906 -259.621094 C 34.378906 -219.457031 67.796875 -205.960938 100.25 -205.960938 C 111.496094 -205.960938 117.601562 -208.851562 128.203125 -208.851562 C 137.519531 -208.851562 143.304688 -207.246094 143.304688 -201.460938 C 143.304688 -194.394531 136.878906 -192.464844 121.777344 -192.464844 C 64.261719 -192.464844 19.277344 -148.765625 19.277344 -100.890625 Z M 19.277344 -100.890625" fill="#96a3b6" fill-opacity="1" transform="translate(309.888164, 528.770072)"/>
<path d="M -16.066406 66.191406 C -12.210938 66.832031 -9.960938 67.476562 -4.820312 67.476562 C 36.628906 67.476562 65.867188 23.777344 65.867188 -22.171875 L 65.867188 -231.988281 C 65.867188 -295.285156 67.796875 -318.097656 95.429688 -318.097656 L 95.429688 -321.3125 L 8.675781 -321.3125 L 8.675781 -318.097656 C 36.308594 -318.097656 38.234375 -295.285156 38.234375 -231.988281 L 38.234375 -21.527344 C 38.234375 27.3125 21.207031 63.296875 -10.28125 63.296875 C -12.210938 63.296875 -15.421875 62.976562 -15.421875 62.976562 Z M -16.066406 66.191406" fill="#96a3b6" fill-opacity="1" transform="translate(587.500624, 528.770072)"/>
</svg>