<?xml version="1.0" encoding="UTF-8" standalone="no"?>
<svg xmlns="http://www.w3.org/2000/svg" xmlns:xlink="http://www.w3.org/1999/xlink" viewBox="0 0 525 525" baseProfile="tiny-ps" version="1.2">
<title>Tyler Morgan</title>
<desc>The logo for Tyler Morgan. Showcasing the capital letters T and M.</desc>
<path d="M 0.5 0 L 524.5 0 L 524.5 524 L 0.5 524 Z M 0.5 0 "/>
<path fill="#ffffff" d="M 0.5 0 L 524.5 0 L 524.5 524 L 0.5 524 Z M 0.5 0 " fill-opacity="1" fill-rule="nonzero"/>
<path fill="#222222" d="M 0.5 0 L 524.5 0 L 524.5 524 L 0.5 524 Z M 0.5 0 " fill-opacity="1" fill-rule="nonzero"/>
<g fill="#d9d9d9" fill-opacity="1" transform="translate(142.477774, 374.0393)">
<path d="M 254.5625 -219.546875 L 254.5625 -216.71875 C 254.144531 -216.71875 253.519531 -216.40625 252.6875 -215.78125 C 251.851562 -215.15625 251.019531 -214.007812 250.1875 -212.34375 C 249.351562 -210.675781 248.675781 -208.28125 248.15625 -205.15625 C 247.632812 -202.03125 247.375 -197.859375 247.375 -192.640625 L 247.375 -26.890625 C 247.375 -21.890625 247.632812 -17.769531 248.15625 -14.53125 C 248.675781 -11.300781 249.351562 -8.851562 250.1875 -7.1875 C 251.019531 -5.519531 251.851562 -4.375 252.6875 -3.75 C 253.519531 -3.125 254.144531 -2.8125 254.5625 -2.8125 L 254.5625 0 L 217.65625 0 L 217.65625 -2.8125 C 218.070312 -2.8125 218.695312 -3.125 219.53125 -3.75 C 220.375 -4.375 221.160156 -5.519531 221.890625 -7.1875 C 222.617188 -8.851562 223.296875 -11.300781 223.921875 -14.53125 C 224.546875 -17.769531 224.859375 -21.890625 224.859375 -26.890625 L 224.859375 -212.96875 L 131.03125 -18.453125 L 139.796875 0 L 115.09375 0 L 24.078125 -189.203125 L 24.078125 -51.28125 C 24.078125 -43.988281 24.492188 -37.367188 25.328125 -31.421875 C 26.160156 -25.484375 27.148438 -20.375 28.296875 -16.09375 C 29.441406 -11.820312 30.691406 -8.539062 32.046875 -6.25 C 33.410156 -3.957031 34.71875 -2.8125 35.96875 -2.8125 L 35.96875 0 L 9.375 0 L 9.375 -2.8125 C 10.632812 -2.8125 11.941406 -3.957031 13.296875 -6.25 C 14.648438 -8.539062 15.898438 -11.820312 17.046875 -16.09375 C 18.191406 -20.375 19.179688 -25.484375 20.015625 -31.421875 C 20.847656 -37.367188 21.265625 -43.988281 21.265625 -51.28125 L 21.265625 -194.828125 L 9.375 -219.546875 L 34.09375 -219.546875 L 129.46875 -21.578125 L 224.859375 -219.546875 Z M 254.5625 -219.546875 "/>
</g>
<g fill="#a6a6a6" fill-opacity="1" transform="translate(63.720984, 377.022397)">
<path d="M 190.65625 -196.046875 L 187.796875 -196.046875 C 183.128906 -201.128906 178.570312 -205.257812 174.125 -208.4375 C 169.675781 -211.613281 164.59375 -214.050781 158.875 -215.75 C 153.15625 -217.445312 146.484375 -218.613281 138.859375 -219.25 C 131.234375 -219.882812 122.019531 -220.203125 111.21875 -220.203125 L 111.21875 -27.328125 C 111.21875 -22.242188 111.476562 -18.054688 112 -14.765625 C 112.53125 -11.484375 113.21875 -8.992188 114.0625 -7.296875 C 114.914062 -5.609375 115.765625 -4.445312 116.609375 -3.8125 C 117.460938 -3.175781 118.097656 -2.859375 118.515625 -2.859375 L 118.515625 0 L 81.34375 0 L 81.34375 -2.859375 C 81.769531 -2.859375 82.40625 -3.175781 83.25 -3.8125 C 84.09375 -4.445312 84.882812 -5.609375 85.625 -7.296875 C 86.375 -8.992188 87.066406 -11.484375 87.703125 -14.765625 C 88.335938 -18.054688 88.65625 -22.242188 88.65625 -27.328125 L 88.65625 -220.203125 C 77.851562 -220.203125 68.632812 -219.882812 61 -219.25 C 53.375 -218.613281 46.753906 -217.445312 41.140625 -215.75 C 35.535156 -214.050781 30.503906 -211.613281 26.046875 -208.4375 C 21.597656 -205.257812 17.046875 -201.128906 12.390625 -196.046875 L 9.53125 -196.046875 L 9.53125 -223.0625 L 190.65625 -223.0625 Z M 190.65625 -196.046875 "/>
</g>
</svg>
