<?xml version="1.0" encoding="UTF-8" standalone="no"?>
<svg xmlns="http://www.w3.org/2000/svg" version="1.2" baseProfile="tiny-ps" viewBox="0 0 525 525">
<title>Tyler Morgan</title>
<desc>The logo for Tyler Morgan. Showcasing the capital letters T and M.</desc>
<rect fill="#222222" width="525" height="525"/>
<path d="M 254.6 -219.5 L 254.6 -216.7 C 254.1 -216.7 253.5 -216.4 252.7 -215.8 C 251.9 -215.2 251 -214 250.2 -212.3 C 249.4 -210.7 248.7 -208.3 248.2 -205.2 C 247.6 -202 247.4 -197.9 247.4 -192.6 L 247.4 -26.9 C 247.4 -21.9 247.6 -17.8 248.2 -14.5 C 248.7 -11.3 249.4 -8.9 250.2 -7.2 C 251 -5.5 251.9 -4.4 252.7 -3.8 C 253.5 -3.1 254.1 -2.8 254.6 -2.8 L 254.6 0 L 217.7 0 L 217.7 -2.8 C 218.1 -2.8 218.7 -3.1 219.5 -3.8 C 220.4 -4.4 221.2 -5.5 221.9 -7.2 C 222.6 -8.9 223.3 -11.3 223.9 -14.5 C 224.5 -17.8 224.9 -21.9 224.9 -26.9 L 224.9 -213 L 131 -18.5 L 139.8 0 L 115.1 0 L 24.1 -189.2 L 24.1 -51.3 C 24.1 -44 24.5 -37.4 25.3 -31.4 C 26.2 -25.5 27.2 -20.4 28.3 -16.1 C 29.4 -11.8 30.7 -8.5 32 -6.3 C 33.4 -4 34.7 -2.8 36 -2.8 L 36 0 L 9.4 0 L 9.4 -2.8 C 10.6 -2.8 11.9 -4 13.3 -6.3 C 14.6 -8.5 15.9 -11.8 17 -16.1 C 18.2 -20.4 19.2 -25.5 20 -31.4 C 20.8 -37.4 21.3 -44 21.3 -51.3 L 21.3 -194.8 L 9.4 -219.5 L 34.1 -219.5 L 129.5 -21.6 L 224.9 -219.5 Z M 254.6 -219.5" fill="#d9d9d9" transform="translate(142.477774, 374.0393)"/>
<path d="M 190.65625 -196.046875 L 187.796875 -196.046875 C 183.128906 -201.128906 178.570312 -205.257812 174.125 -208.4375 C 169.675781 -211.613281 164.59375 -214.050781 158.875 -215.75 C 153.15625 -217.445312 146.484375 -218.613281 138.859375 -219.25 C 131.234375 -219.882812 122.019531 -220.203125 111.21875 -220.203125 L 111.21875 -27.328125 C 111.21875 -22.242188 111.476562 -18.054688 112 -14.765625 C 112.53125 -11.484375 113.21875 -8.992188 114.0625 -7.296875 C 114.914062 -5.609375 115.765625 -4.445312 116.609375 -3.8125 C 117.460938 -3.175781 118.097656 -2.859375 118.515625 -2.859375 L 118.515625 0 L 81.34375 0 L 81.34375 -2.859375 C 81.769531 -2.859375 82.40625 -3.175781 83.25 -3.8125 C 84.09375 -4.445312 84.882812 -5.609375 85.625 -7.296875 C 86.375 -8.992188 87.066406 -11.484375 87.703125 -14.765625 C 88.335938 -18.054688 88.65625 -22.242188 88.65625 -27.328125 L 88.65625 -220.203125 C 77.851562 -220.203125 68.632812 -219.882812 61 -219.25 C 53.375 -218.613281 46.753906 -217.445312 41.140625 -215.75 C 35.535156 -214.050781 30.503906 -211.613281 26.046875 -208.4375 C 21.597656 -205.257812 17.046875 -201.128906 12.390625 -196.046875 L 9.53125 -196.046875 L 9.53125 -223.0625 L 190.65625 -223.0625 Z M 190.65625 -196.046875" fill="#a6a6a6" fill-opacity="1" transform="translate(63.720984, 377.022397)"/>
</svg>
